<?xml version="1.0" standalone="no"?>
<!DOCTYPE svg PUBLIC "-//W3C//DTD SVG 1.1//EN" "http://www.w3.org/Graphics/SVG/1.1/DTD/svg11.dtd" >
<svg xmlns="http://www.w3.org/2000/svg">
<metadata></metadata>
<defs>
<font id="oldstyle_1hplhs" horiz-adv-x="1011" >
<font-face units-per-em="2048" ascent="1638" descent="-410" />
<missing-glyph horiz-adv-x="567" />
<glyph horiz-adv-x="2048" />
<glyph horiz-adv-x="2048" />
<glyph unicode="&#xd;" horiz-adv-x="567" />
<glyph unicode=" "  horiz-adv-x="567" />
<glyph unicode="&#x09;" horiz-adv-x="567" />
<glyph unicode="&#xa0;" horiz-adv-x="567" />
<glyph unicode="!" horiz-adv-x="593" d="M125 70q0 25 8 45q37 74 78 90q29 12 57 12q63 0 109.5 -49t54.5 -117q-18 -33 -38.5 -68.5t-55.5 -45.5q-25 -6 -53 -7q-68 0 -113 33q-47 45 -47 107zM135 1210q0 111 41 199q33 41 90 41q44 0 101 -25q41 -90 41 -204q0 -86 -33 -267q-33 -172 -29 -256l-20 -370 q-12 -23 -39 -23q-20 0 -39 10q-23 35 -23 88q0 20 4 60.5t4 60.5q0 53 -22 88q8 104 -33 297q-43 211 -43 301z" />
<glyph unicode="&#x22;" horiz-adv-x="792" d="M143 1499q0 121 121 121q119 0 119 -115q0 -42 -39 -198q-12 -43 -12 -105q0 -12 2 -35v-32q0 -100 -66 -109q-47 -6 -53 84q-10 143 -22 180q-49 143 -50 209zM438 1499q0 121 121 121t121 -115q0 -42 -41 -198q-10 -43 -10 -105v-34.5v-32.5q0 -100 -64 -109 q-49 -6 -55 84q-10 143 -23 180q-49 143 -49 209z" />
<glyph unicode="$" horiz-adv-x="1114" d="M88 543q0 31 33 58.5t65 27.5q16 0 33 -8q57 -10 86 -80q23 -59 45 -119q29 -31 60 -60q39 -35 73 -34q18 0 37 8l12 16q0 4 3 269q0 147 -15 260q-10 23 -49 22q-20 0 -27 6q-150 90 -215 150q-115 104 -127 221q23 197 134 307q29 41 157 70q106 25 107 94q0 18 -4 39 l25.5 42.5t37.5 22.5q6 -6 43 -14q29 -4 37 -24q6 -12 2 -70q-4 -45 25 -64q276 -41 372 -190q16 -53 17 -88q0 -45 -25 -82q-33 -37 -96 -37q-27 0 -57 6q-45 27 -101 138q-51 100 -129 118q-16 -37 -14 -119.5t-15 -117.5q-2 18 -2 -109q0 -45 23 -76q-4 -14 -4 -28 q0 -33 33 -54q8 -6 65 -28q320 -127 336 -348q-27 -35 -20 -47q23 -4 22 -37q0 -23 -10 -56q-57 -170 -193 -252q-31 -18 -116 -43q-78 -20 -113 -51q10 -39 10 -86q0 -29 -8 -112q-6 -68 -2 -107q-25 -31 -88 -8q-27 37 -27 90q0 27 8.5 80t8.5 80q0 68 -45 110 q-156 41 -222 72q-117 57 -172 158q0 12 -7 40.5t-7 43.5zM256 1348q66 -180 229 -222q25 57 25 138q0 33 -5 100.5t-5 101.5q0 35 4 66q-18 23 -43 22q-18 0 -53 -15t-50 -15q-86 -41 -102 -176zM625 580q6 -199 2 -236q23 -33 75 -33q31 0 99 17q68 41 104.5 114.5 t26.5 149.5q-25 82 -107 147q-80 59 -170 74q-33 -90 -30 -233z" />
<glyph unicode="%" horiz-adv-x="1732" d="M41 971q16 14 15 53t5 53q59 133 199 256q156 137 287 137q78 0 199.5 -77.5t189.5 -77.5q57 0 117 39q92 57 114 76q66 51 82 106q51 59 131 59q43 0 78 -20q0 -61 -53 -139q-61 -94 -72 -129q-70 -80 -166 -238q-111 -178 -161 -244q-143 -274 -287 -546 q-158 -315 -240 -564q-6 -27 -35 -47q-20 -14 -40.5 -25.5t-43.5 -11.5q-47 0 -81 29q-16 29 -17 59q0 47 51 111q78 92 80 98q203 340 299 518q59 78 135 203q104 176 123 207q47 70 107 209q66 150 102 211q-14 8 -29 8q-20 0 -63 -20.5t-70 -20.5q-10 0 -20 4 q-16 -10 -49 -10h-29q-23 2 -33 2q-59 0 -82 -39q4 -14 4 -29q0 -23 -21.5 -69.5t-14.5 -79.5q-4 -6 -23 -64q-12 -37 -37 -53q-6 -59 -71 -127q-55 -51 -113 -102q-84 -37 -172 -37q-68 0 -121 25q-180 133 -174 307zM250 825q29 -76 96 -102q25 -4 47 -4q92 0 162 59 q164 176 158 430q-16 100 -174 127q-135 -78 -212 -215t-77 -295zM1030 233q0 225 176 367q174 168 350 168q53 0 109 -14l51 -39q78 -92 78 -223q0 -50 -14 -97q-96 -307 -322 -411q-109 -25 -168 -25q-37 0 -71 6q-51 25 -101 80q-41 47 -82 96q-6 47 -6 92zM1214 221 q0 -47 14.5 -95t74.5 -58q53 -2 108 -5q90 45 160 142q26 37 108 182q-6 16 -6 33q0 20 10.5 61t10.5 60q0 35 -25 59q-45 70 -135 70q-49 0 -86 -23q-233 -250 -234 -426z" />
<glyph unicode="&#x26;" horiz-adv-x="1402" d="M78 442q0 94 53 178.5t139 135.5q45 29 133 94q-8 59 -67 184q-53 115 -53 185q0 41 14 81q33 53 68 107q41 63 98 72q43 39 119 39q23 0 69.5 -4.5t71.5 -4.5q150 -61 186 -141q25 -49 25 -102q0 -92 -80 -207q-80 -57 -111 -82q-61 -47 -98 -88q35 -74 225 -402 q16 -37 33 -73q20 -47 58 -62q63 10 94 76q23 57 45 115q2 20 16 64t14 67q0 29 -16 53q-12 55 -104 70q-82 12 -70 69q254 23 295 23q96 0 176 -19q8 -18 8 -30q0 -33 -65 -52q-78 -23 -97 -45q-37 -39 -59 -110q-35 -111 -37 -119q-12 -35 -78 -131q-53 -80 -53 -137 q0 -23 6 -47q47 -55 72 -78q45 -39 90 -45q14 -8 31 -8q29 0 84 23.5t71 23.5q31 0 31 -41q0 -17 -4 -37q-186 -78 -272 -78q-43 0 -81 9t-106 65q-61 49 -106 51q-41 -39 -113 -68q-57 -23 -117 -47q-39 -4 -75 -4q-289 0 -422 234q-41 72 -41 243zM262 467 q78 -305 277 -383q82 -10 114 -10q103 -1 162 65q-14 98 -88 230q-111 201 -119 221q-31 25 -64.5 91.5t-64.5 90.5q-10 10 -18 10t-24.5 -10t-26.5 -10q-8 0 -15 2q-133 -63 -133 -297zM457 1292q0 -41 16 -102q14 -47 29 -94q20 -37 41 -74q27 -45 63 -45q12 0 27 4 q98 80 123 197q14 133 -72 217q-31 29 -78 28q-35 0 -104 -20q-45 -43 -45 -111z" />
<glyph unicode="'" horiz-adv-x="567" d="M184 1499q0 121 121 121q119 0 119 -115q0 -42 -39 -198q-12 -43 -12 -105q0 -12 2 -35v-32q0 -100 -66 -109q-47 -6 -53 84q-10 143 -23 180q-49 143 -49 209z" />
<glyph unicode="(" horiz-adv-x="706" d="M94 852q8 27 19 121q6 78 32 117q12 92 82 208q59 96 119 195q106 135 336 303q27 0 44.5 -21t31.5 -44q-12 -63 -15 -70q-12 -39 -45 -53q-51 -33 -123 -99q-197 -172 -247 -458q-41 -231 -21 -537q18 -66 76 -190q49 -164 133 -238q20 -41 104.5 -91t106.5 -101 q0 -14 -14 -31q-20 -25 -23 -29q-88 -4 -168 78q-119 123 -139 135q-313 354 -289 805z" />
<glyph unicode=")" horiz-adv-x="671" d="M94 -131q8 35 58 65q59 39 73 60q166 174 238 422q53 186 69 487q-43 213 -81 322q-61 172 -170 282q-18 29 -111 84q-76 45 -76 90q0 25 17.5 56.5t74.5 7.5q18 -25 97 -72q63 -39 73 -90l90 -88q53 -51 64 -102q84 -125 119 -260q23 -45 37 -140q18 -100 36 -145 q-10 -131 -18 -264q-20 -156 -96 -238q-14 -59 -56 -125q-39 -57 -77 -112l-140 -156q-82 -88 -157 -121q-63 0 -64 37z" />
<glyph unicode="*" horiz-adv-x="913" d="M98 1040q37 111 170 166q45 2 92 2q57 8 82 45q-20 63 -104 68q-117 6 -137 16q-35 33 -68 66q-33 41 -33 76q0 16 6 34q33 6 70 7q96 0 160 -45q27 -37 53 -76q37 -43 78 -47q29 27 29 57q0 25 -30 75t-30 81q0 25 15 49q12 43 22 84q16 49 55 69q55 -4 74 -67 q12 -55 23 -111q2 -35 -25 -95t-27 -91q0 -27 15 -51q43 10 94 63q43 41 84 84q18 0 59 8.5t64 8.5q33 0 59 -17q8 -14 8 -31q0 -33 -45 -71q-55 -47 -61 -60q-4 0 -135 -18q-80 -12 -103 -66q33 -37 144 -53q102 -16 133 -70q72 -55 76 -106q-55 -18 -103 -18 q-80 0 -135 47q-2 2 -55 84q-35 49 -84 39q-29 -14 -29 -39q0 -14 12.5 -47t12.5 -50q35 -27 34 -65q0 -25 -22.5 -79t-22.5 -81l-45 -39q-39 23 -55 84q-20 80 -31 94q-2 31 27 86.5t29 77.5q0 29 -31 49q-55 8 -94 -55q-43 -72 -84 -80q-20 0 -66.5 -16.5t-66.5 -16.5 q-39 0 -58 41z" />
<glyph unicode="+" horiz-adv-x="712" d="M129 504q-8 43 10.5 80t57.5 39l149 -9q-2 92 31 236q90 25 145 -25q33 -63 19 -192q88 0 217 -31q25 -88 -25 -145q-63 -33 -196 -19q6 -61 6 -90q0 -98 -68 -127q-41 -6 -79 11.5t-40 56.5l9 155q-86 -8 -109 -8q-98 0 -127 68z" />
<glyph unicode="," horiz-adv-x="616" d="M121 -227q0 33 68.5 78t62.5 96l-78 94q-45 59 -45 111q0 23 8 49q70 59 146 59q27 0 53 -8q29 -18 59.5 -37.5t40.5 -46.5q12 -37 13 -72q0 -74 -62 -162q-55 -70 -108 -139q-76 -74 -144 -65q-14 25 -14 43z" />
<glyph unicode="-" horiz-adv-x="712" d="M129 504q-8 43 10.5 80t57.5 39l217 -13q49 23 127 23q88 0 217 -31q25 -88 -25 -145q-43 -23 -112 -23q-35 0 -102.5 7.5t-96.5 7.5q-23 0 -80 -6.5t-86 -6.5q-98 0 -127 68z" />
<glyph unicode="." horiz-adv-x="729" d="M164 117q0 27 6 51q33 80 154 98q47 -8 92 -16q55 -11 69 -60q8 -35 9 -67q0 -76 -37 -117q-37 -31 -101 -31q-39 0 -139 23q-53 37 -53 119z" />
<glyph unicode="/" horiz-adv-x="784" d="M68 -29q0 133 141 420q27 51 55 103q33 68 33 110q0 20 -8 39q68 141 172 461q100 305 157 418q94 184 203 192q18 -16 19 -45q0 -43 -70 -164q-51 -158 -171 -472t-171 -476q10 -6 10 -14q0 -10 -16 -32t-21 -30q-20 -86 -82.5 -254t-80.5 -243q-43 -61 -117 -97 q-53 0 -53 84z" />
<glyph unicode="0" horiz-adv-x="1030" d="M111 739q0 55 4 113q6 14 30 170q90 240 127 301q98 164 256 197q25 6 52 6q127 0 309 -168q53 -82 129 -324q-6 -45 12 -102q17 -49 33 -96q4 -104 -59 -347q-25 -66 -68 -194q-88 -152 -123 -197q-82 -98 -182 -118q-51 -10 -96 -11q-137 0 -207 86q-217 270 -217 684z M315 911q0 -193 2 -387q10 -236 84 -370q47 -88 183 -88q84 31 114 96q2 37 38 96t38 96q16 41 17 115q-2 82 6 115q-6 205 -13 407q-20 227 -125 367q-70 45 -161 39q-96 -76 -133 -223q-25 -131 -50 -263z" />
<glyph unicode="1" horiz-adv-x="733" d="M98 1294q0 45 80 49q96 6 115 23q37 25 72 51q43 33 57 64q39 20 90 20q68 0 88 -43q-18 -150 -39 -459q2 -223 -8 -667q-16 -18 0 -76q0 -145 98 -193q39 1 76 -28q4 -8 4 -12q0 -12 -45 -35l-508 -13q-39 27 -45 84q23 23 64 23q8 0 22 -2h25q47 0 71 31q41 39 41 112 q0 10 -2 35v35q0 39 8 65q-2 -31 -2 191q0 119 19 190l-17 47q-4 27 -4 58q0 33 6.5 95t6.5 95q0 76 -27 135q-23 35 -94 35h-14q-76 0 -95 43h-30q-12 27 -13 47z" />
<glyph unicode="2" horiz-adv-x="1024" d="M106 27q0 14 19 75q74 82 248 299q152 188 250 293q43 70 114 135q82 129 82 238q0 43 -14 86q8 12 8 23q0 23 -35 49q-43 33 -49 43q-70 43 -147 43q-78 0 -150 -43q-104 -59 -153 -154q-74 -55 -107 -55q-10 70 49 143q53 59 109 121q23 33 89 67.5t89 59.5 q35 -6 89 24.5t93 22.5q250 -47 316 -199q23 -12 38 -53t29 -53q-8 -25 -31 -160q-16 -92 -61 -147q-90 -106 -342 -314q-231 -193 -332 -329q12 -41 15 -45q10 -25 32 -31q49 10 125 10q27 0 85.5 -2t86.5 -2q248 0 338 156q2 -2 23 -15q14 -6 14 -20q6 -51 -34 -136 t-34 -137l-59 -45q-94 -10 -213 -10q-70 0 -278 6q-174 6 -275 4q-27 18 -27 52z" />
<glyph unicode="3" horiz-adv-x="931" d="M96 233q10 55 15 66q14 37 41 49q16 4 30 4q88 0 123 -80q29 -109 51 -149q45 -80 123 -88q20 -6 41 -6q49 0 96 37q39 37 80 75q70 156 70 281q0 113 -57 194q-37 68 -125 101q-131 45 -144 53q-6 35 29 55q49 29 57 39q195 127 195 289q0 18 -4 39q-25 41 -49 80 q-31 45 -74 55q-20 4 -41 4q-68 0 -137 -65q-109 -104 -119 -113h-39q-20 2 -20 21q6 59 57 129l86 110q104 100 262 100q203 0 283 -159q0 -20 5 -65.5t5 -69.5q0 -51 -18 -86q-29 -57 -122.5 -140.5t-115.5 -136.5q80 -16 148.5 -77.5t101.5 -139.5q32 -131 16 -221 q-47 -283 -207 -391q-104 -72 -254 -72q-115 0 -219 41q-170 117 -170 237z" />
<glyph unicode="4" horiz-adv-x="1024" d="M80 436q0 10 20 101q33 57 148 204q98 125 137 215q43 20 68 91q29 78 55 102q43 37 78 125q39 96 76 133q23 33 46 67.5t56 34.5q12 0 24 -4q94 0 95 -67q0 -66 -20.5 -179.5t-18.5 -183.5q4 -86 -10 -233q-16 -162 -17 -234q0 -35 2 -67q20 -27 123 -43q88 -12 88 -56 q0 -24 -20 -59q-18 -18 -60 -18q-8 0 -26 2h-27q-63 0 -78 -48q2 -31 -2 -155q-4 -94 19 -152q-18 -49 -68 -67q-66 0 -78 2q-41 6 -63 37q-12 29 -13 63q0 33 15.5 94.5t15.5 89.5q0 43 -22 78v33q-2 18 -17 23q-41 4 -88 4q-49 0 -143 -5.5t-139 -5.5q-63 0 -119 7 q-37 27 -37 71zM252 557q37 -25 67 -25q14 0 27 9q35 12 152 2q96 -8 129 35q0 428 -4 477h-33q-41 -47 -158 -211q-98 -135 -170 -211q-31 -20 -10 -76z" />
<glyph unicode="5" horiz-adv-x="868" d="M88 166q0 82 64 110q63 18 106 -12q16 -57 78 -114q57 -47 113 -95q27 -10 51 -10q86 0 192 152q45 123 45 233q0 139 -75 225q-63 74 -195 86q-113 6 -225 13q-23 27 -23 65q0 18 6 56t6 57q0 16 -4 31q-2 41 -2 90q0 51 5.5 157.5t5.5 159.5q0 51 -3 94l33 33h426 q33 37 68 74q43 41 86 41q18 0 37 -8l35 -29q-2 -57 -48 -148q-53 -106 -63 -147q-63 -20 -141 -20q-37 0 -122 7t-132 5q-14 6 -25 6q-55 0 -70 -82q-27 -145 -8 -233l35 -35q207 -8 291 -35q156 -45 211 -178q39 -96 39 -215q0 -231 -129 -389q-121 -145 -342 -146 q-84 0 -164 23q-68 29 -154 123q-8 27 -8 55z" />
<glyph unicode="6" horiz-adv-x="1034" d="M96 664q0 90 31 157q80 176 113 238q72 127 163 215q184 121 203 131q119 68 228 80q35 43 84 26q4 0 30 -18q4 -12 4 -25q0 -33 -43 -51q-68 -29 -67 -28q-172 -41 -307 -179q-131 -129 -187 -303q0 -27 17 -39q141 68 253 68q43 0 82 -8q193 -39 316 -336 q16 -59 16 -121q0 -213 -198 -424q-129 -68 -256 -67q-98 0 -166 47q-182 47 -297 383q0 41 -9.5 126t-9.5 128zM301 551q0 -39 2 -105q6 -78 6 -100q59 -258 201 -291q39 -8 80 -8q106 0 174 59q29 31 70 162q-2 51 0 131q4 96 4 125q0 201 -99 307q-49 51 -121 52 q-35 0 -61 -15q-98 0 -221 -114q-35 -80 -35 -203z" />
<glyph unicode="7" horiz-adv-x="894" d="M94 1169q0 12 7.5 43t4.5 48q33 35 48 159q12 109 77 137q18 8 33 9q29 0 39 -54.5t43 -58.5q61 2 184 -4q143 -6 193 -6q84 0 141 10q27 -6 56.5 -12.5t37.5 -26.5q-18 -100 -145 -256q-8 -49 -39 -113q-27 -53 -55 -108q-133 -309 -420 -928q-35 -53 -102 -53 q-14 0 -27 4q-45 12 -55 61q-4 25 0 91q135 186 231 383q59 72 162 245q96 162 174 244q2 4 45 104q27 63 78 89q8 14 8 32q0 47 -39 60l-483 -8q-35 -10 -88 -65.5t-88 -66.5q-20 16 -21 41z" />
<glyph unicode="8" horiz-adv-x="997" d="M113 342q0 53 20 104q57 162 258 252q-61 74 -125 148q-74 90 -83 167t-9 130q0 211 162 309q90 51 207 51q90 0 207 -30q92 -49 146 -140.5t54 -195.5q0 -141 -108 -230q-16 -33 -88 -63q-57 -25 -56 -70q129 -70 213 -170q101 -121 101 -250q0 -104 -51.5 -196 t-139.5 -140q-111 -61 -246 -61q-186 0 -315 106q-147 121 -147 279zM307 387q16 -240 152 -305q53 -27 114 -27q113 0 213 78q63 78 64 176q0 31 -8 62q-135 238 -400 297q-63 -41 -92 -131q-23 -74 -43 -150zM336 1130q0 -86 55 -131q49 -51 98 -100q61 -63 121 -63 q10 0 25 2q29 29 59 57q37 37 51 68q31 66 31 149q0 147 -86 234q-35 33 -92 38q-20 2 -109 2q-125 -37 -145 -114q0 -23 -4 -71t-4 -71z" />
<glyph unicode="9" horiz-adv-x="948" d="M100 1014q0 86 25 166q82 270 276 315q68 14 131 14q180 0 252 -116q102 -72 146 -205q14 -47 49 -254q12 -270 -141 -502q-147 -221 -396 -346q-86 -43 -249 -84q-39 16 -17 68q178 49 326 159q158 119 243 283q0 43 -26 63q-29 -2 -123 -14q-80 -12 -127 -12 q-113 0 -182 57q-186 147 -187 408zM276 1036q0 -59 11 -125q33 -233 190 -305q31 -12 60 -12q51 0 108 33q51 32 100 63q53 104 54 238q0 154 -70 350q-68 139 -215 139q-43 0 -84 -16q-154 -119 -154 -365z" />
<glyph unicode=":" horiz-adv-x="561" d="M145 848q33 47 43 61q29 35 60 45q12 -4 92 -8q49 -2 74 -39q33 -37 32 -84q0 -28 -16 -51q-51 -78 -141 -78q-29 0 -58 8q-43 12 -55 64q-18 68 -31 82zM154 133q31 63 94 94q14 2 28 2q70 0 125 -49q29 -35 29 -82q0 -23 -8 -41q-33 -51 -86 -82q14 -2 -76 -2 q-45 0 -59 33q-31 33 -47 127z" />
<glyph unicode=";" horiz-adv-x="581" d="M123 -322q6 37 78.5 82t74.5 101q2 55 -61 130t-63 111q0 39 38 82q41 35 101 35q59 0 100 -35q53 -37 53 -123q0 10 -6 -94q-18 -72 -100 -160q-66 -70 -129 -139q-10 0 -30.5 -7t-28.5 -7q-18 0 -27 24zM162 817q10 41 25.5 83t58.5 54q37 8 71 9q109 0 142 -78 q10 -20 10 -45q0 -47 -31 -82q-23 -37 -76 -47q-84 -16 -86 -17q-39 25 -77 49q-43 33 -37 74z" />
<glyph unicode="=" horiz-adv-x="735" d="M129 360q-8 37 10.5 70t57.5 35q377 -19 561 -19q29 0 28 -40q0 -72 -53 -87q-63 -14 -155 -12q-78 2 -156 6q-23 0 -80 -6t-86 -6q-98 0 -127 59zM129 606q-8 37 10.5 70t57.5 35l217 -11q49 18 127 19q88 0 217 -27q25 -78 -25 -127q-43 -20 -112 -20q-35 0 -102.5 6 t-96.5 6q-23 2 -80 -4t-86 -6q-98 0 -127 59z" />
<glyph unicode="?" horiz-adv-x="933" d="M139 1366q0 90 72 137q51 8 104 8q324 1 410 -245q39 -78 39 -187q0 -145 -66 -235q-119 -113 -221 -113q-27 0 -55 6q-70 -35 -70 -121q0 -20 5 -65t5 -66q0 -59 -28 -92q-29 -6 -46.5 10.5t-17.5 40.5q23 41 23 111q0 33 -8.5 104.5t-8.5 102.5q0 141 130 141 q18 0 43 -4q20 14 71 28.5t72 30.5q57 61 57 154q0 51 -18 98q-39 102 -135 103q-39 0 -118 -16.5t-118 -16.5q-70 0 -119 41q-2 27 -2 45zM180 164q18 10 47 51q25 33 52 39q53 -8 106 -14q64 -13 76 -68q0 -127 -80 -170q-27 -8 -55 -8q-72 0 -125 55q-43 47 -21 115z" />
<glyph unicode="@" horiz-adv-x="1990" d="M18 446q0 154 58 263q-2 92 67 202q66 90 131 181q467 418 924 417q145 0 289 -45l59 -37q33 6 75 -31.5t71 -37.5q279 -197 278 -604q0 -168 -49 -336q-43 -150 -166 -283q-129 -139 -276 -184q-33 -10 -66 -10q-84 0 -172 65q-12 12 -43 70q-23 45 -55 57 q-98 -94 -144 -125q-86 -61 -170 -61q-39 0 -77 12q-94 31 -162 119t-76 188q-14 178 98 348q98 147 267 256q76 47 170 48q72 0 145 -27q55 -47 74 -47q10 0 20 4q31 74 133 74q29 0 66 -7q14 -25 14 -57q0 -51 -31 -94q-10 -66 -86 -330q-59 -201 -49 -338q2 -41 76 -69 q94 -10 186 61q47 39 142 152q143 248 143 499q0 211 -115 353q-248 307 -581 307q-84 0 -166 -23q-268 -74 -477 -250q-227 -188 -314 -440q-47 -133 -47 -272q0 -295 187 -494q244 -256 675 -256q264 0 512 94q41 16 213 129q160 104 177 105q43 0 43 -41q-8 -94 -68 -123 q-63 -14 -190 -98q-119 -78 -201 -86q-172 -109 -412 -109q-315 0 -690 178q-104 92 -209 183q-127 119 -135 229q-66 150 -66 321zM698 238q0 -92 45 -172q78 -49 115 -48q98 6 189 111q47 53 127 188q70 219 69 316q1 73 -22 139q-31 80 -125 80q-14 0 -29 -4 q-139 -53 -193 -150q-90 -160 -116 -221q-59 -133 -60 -239z" />
<glyph unicode="A" horiz-adv-x="1583" d="M29 72q25 14 114 43q76 25 115 55q12 27 137 309q80 186 152 303q0 39 28.5 114t30.5 116q39 53 76 162q39 123 66 165q8 68 75 179q12 4 25 4q66 0 98 -49q16 -70 31 -140q18 -78 59 -129q16 -61 62.5 -182t60.5 -184q61 -106 154 -367q86 -242 162 -356 q10 -16 41.5 -15.5t42.5 -5.5l90 -39q-8 -41 -58 -41q-12 0 -35.5 2t-33.5 2t-19 -2l-383 -8q-29 6 -28 47q14 29 77 35q57 4 66 51q-2 47 -42 131t-42 136q-23 18 -34 77.5t-52 75.5q-137 6 -272 6t-267 -6q-53 -61 -96 -184q-49 -145 -74 -191q20 -84 152 -123l8 9 q4 -6 17.5 -18.5t13.5 -18.5q-39 -23 -154 -27q-40 -6 -110 -6q-25 0 -57 1q-26 1 -49 1q-77 0 -120 -8q-30 8 -30 52q0 11 2 24zM590 702q0 -16 4 -34q55 -31 135 -31q27 0 81 4t81 4q59 0 106 -16q25 14 25 35q0 14 -15.5 40.5t-17.5 38.5q-23 66 -47 129q-29 76 -59 123 q-10 47 -76 162h-6q-41 0 -62 -53q-27 -72 -47 -84q2 -61 -50 -161.5t-52 -156.5z" />
<glyph unicode="B" horiz-adv-x="1433" d="M111 1407q0 23 12 57q27 23 65 23q18 0 55.5 -7t55.5 -7q16 0 29 4l782 -21q109 -29 194 -127t85 -209q0 -102 -70 -200q-33 -45 -94 -82q-92 -59 -99 -64q0 -49 58 -78q86 -43 96 -53q168 -137 168 -262q0 -19 -2 -35q4 -168 -268 -299q-43 -20 -119 -29 q-96 -10 -123 -18q-90 8 -201 8q-94 0 -288.5 -8t-292.5 -8q-31 18 -31 53q0 16 11 35.5t48 19.5q69 0 69 -2h-1q12 -10 24 -10q16 0 39 26.5t31 30.5q8 207 8 588t8 590q-25 31 -106 31h-26.5h-24.5q-92 0 -92 53zM565 817l17 -12q78 -16 172 -17q127 0 258 29q47 43 61 57 q37 35 53 66q14 66 15 129q0 139 -70 225q-23 6 -65.5 35t-69.5 33q-23 -8 -51 -8q-29 0 -90.5 10t-87.5 10q-98 0 -117 -98q-27 -153 -27 -357q0 -50 2 -102zM569 207q0 -25 25 -55q18 -27 39 -54q20 1 48.5 1t63.5 -1q96 -2 121 -2q131 0 205 33q131 55 131 240 q0 29 -4 73q-2 56 -4 70q-18 23 -37.5 49.5t-17.5 50.5q-94 70 -254 80q-135 6 -273 10l-30 -12l-9 -461q-4 -10 -4 -22z" />
<glyph unicode="C" horiz-adv-x="1343" d="M80 727q0 250 194 537q37 2 66 49t57 57q205 160 426 160q113 0 217 -45q39 -23 86 -23q78 0 174 62q86 -25 86 -178q0 -12 -2 -35v-35q1 -53 9 -80q-16 -18 -33 -18q-18 0 -49 29.5t-49 31.5q-86 53 -172 107q-89 57 -166 57q-13 0 -25 -2q-51 16 -113 16 q-141 0 -260 -76q-219 -207 -219 -602q0 -70 6 -151q41 -170 45 -180q31 -100 82 -164q150 -193 422 -193q100 0 191 35q195 74 256 190q6 2 28 17q16 10 31 6q8 -16 8 -35q0 -33 -39 -102q-219 -209 -530 -209q-59 0 -119 10q-29 14 -127 39q-82 20 -121 57q-41 14 -90 58 q-43 37 -84 76l-114 188q-57 104 -57 188q0 9 1 19q-16 68 -16 139z" />
<glyph unicode="D" horiz-adv-x="1591" d="M90 1425q0 12 8 21l29 31q16 -2 35 -2q29 0 67 4q78 6 99 6q39 0 67 -8q47 -4 105 -4q47 0 143 4t143 4q203 0 328 -64h8q42 0 96 -36q60 -40 97 -40q162 -102 239 -297q59 -149 59 -327q0 -26 -1 -53q-12 -274 -221 -480q-100 -100 -250 -141q-115 -33 -289 -37 q-147 -4 -295 -6q-102 6 -205 6q-102 0 -207 -6q-14 8 -27.5 16.5t-13.5 22.5q0 6 2 12q23 35 87 35q8 0 22 -2h21q66 0 83 41q29 84 29 188q0 66 -12 138q7 97 7 237q0 93 -3 206t-3 204q0 137 7 225q-37 39 -115 55q-10 0 -35.5 -7t-39.5 -7q-23 0 -39 14q-25 23 -25 47z M541 473q-1 -51 -1 -88q0 -76 3 -100q8 -109 53 -179q111 -8 190 -8q396 0 517 238q90 180 90 399t-90 385q-143 258 -537 258q-72 0 -150 -8q-27 -14 -67 -59z" />
<glyph unicode="E" horiz-adv-x="1476" d="M86 35q0 25 35 33h102q55 6 80 63q31 31 31 80q0 20 -8 76q-7 44 -7 69v6q0 100 8.5 315.5t8.5 323.5q0 180 -17 318q-18 59 -98 59q-12 0 -33 -2h-32q-68 0 -68 58q0 12 2 28q24 9 67 9q29 0 67 -4q32 -4 58 -4q50 0 80 14l140 -15q209 6 420 13q156 4 277 4 q81 0 147 -2q53 -39 73 -140q25 -129 41 -159q-16 -49 -45 -50q-6 0 -10 2q-178 213 -490 248q-236 0 -307 8q-23 -4 -44 -31.5t-40 -51.5q1 -29 1 -66q0 -75 -5 -184t-5 -183q0 -37 1 -65l33 -31q223 0 266 6q143 25 199 129q4 8 10 64q6 37 37 53q27 0 34 -23.5t11 -46.5 l-16 -489q-29 -18 -39 -16q-31 131 -144 237q-93 28 -238 28q-60 0 -128 -5q-47 -82 -47 -191q0 -49 12 -149.5t12 -151.5q0 -31 -2 -57q27 -76 119 -94q84 -6 166 -13h37q207 0 342 41q201 63 293 228q4 0 18 4q12 2 20 0q23 -29 23 -58q0 -12 -6 -24q-25 -41 -41 -107 q-14 -55 -27 -108q-66 -41 -166 -41q-33 0 -101.5 5t-102.5 5l-689 -8l-22 16q-29 0 -88.5 -5t-87.5 -5q-70 0 -113 22q-4 8 -4 15z" />
<glyph unicode="F" horiz-adv-x="1343" d="M80 57q20 18 53 19q14 0 43 -4t41 -4q47 0 66 45l26 59v95q0 202 -6 491q-10 489 -10 588q-18 36 -75 36h-3q-12 0 -37.5 -2t-36.5 -2q-59 0 -59 55q0 9 2 19q39 23 98 23q27 0 76 -5.5t72 -5.5q35 0 59 9q12 8 27 8q8 0 28.5 -6.5t30.5 -6.5h834q51 -35 63 -133 q18 -133 31 -159v-31h-3q-48 -1 -117 73q-71 76 -120 80q-55 47 -159 68q-88 14 -177 31q-27 -8 -75 -8q-12 0 -39 2h-39q-133 0 -174 -70q-16 -211 -17 -504l47 -45l254 4q139 18 205 119q10 43 51 119l27 -13l8 -536q-6 -12 -26 -29q-33 12 -45 62q-12 41 -23 82 q-35 74 -125 106q-82 18 -164 39q-55 -6 -108 -10q-70 -6 -92 -45q-14 -70 -15 -168q0 -59 7.5 -178t7.5 -174q16 -72 100 -72q12 0 36.5 2t37.5 2q55 0 77 -29q2 -8 2 -14q0 -16 -16 -22.5t-33 -10.5q-45 2 -92 2q-57 0 -164.5 -5t-158.5 -5q-109 0 -197 16q-4 2 -4 43z " />
<glyph unicode="G" horiz-adv-x="1501" d="M147 1071q66 170 221.5 293t331.5 141q37 12 76 13q61 0 172 -41t162 -41q74 0 135 57q10 4 19 4q23 0 35 -24.5t22 -47.5q-4 -23 -4 -47q0 -39 14 -98q18 -70 21 -92q-8 -10 -56 -10q-152 129 -168 141q-98 74 -184 98q-119 8 -170 8q-221 0 -319 -114 q-111 -129 -146 -330q-21 -114 -21 -305q0 -39 1 -80q14 -53 41 -162q35 -250 217 -348q135 -74 203 -74q41 0 73 19q20 -6 41 -6q37 0 88 20q43 20 84 41q39 33 74 94q29 51 59 101q-2 11 -2 26q0 24 4 58q8 66 9 90q0 96 -84 118q-20 -8 -43 -8q-29 0 -123 39 q-10 27 31 47h66q176 0 478 -8q0 -2 11 -22q4 -8 4 -15q0 -5 -2 -10q-16 -18 -48 -18q-8 0 -25.5 2t-25.5 2q-45 0 -55 -54q0 -53 -6 -170.5t-6 -177.5q0 -80 8 -141q-14 -20 -31 -21q-14 0 -41.5 20.5t-44 24t-35.5 3.5q-37 0 -84 -25q-78 -41 -80 -41q-133 -35 -258 -35 q-274 0 -469 172q-239 210 -239 567q0 189 69 367z" />
<glyph unicode="H" horiz-adv-x="1796" d="M121 72q25 14 69 14h37q23 -2 35 -2q90 0 105 76q8 219 8 581v584q-31 47 -150 47q-102 2 -102 55q0 14 6 35q31 16 78 17q23 0 69 -5.5t68 -5.5q20 0 35 2q31 -8 90 -8q51 0 123 6q37 3 69 3q90 0 140 -21q25 -16 24 -37q0 -10 -8 -18q-16 -8 -131 -17q-80 -6 -106 -61 q-31 -61 -31 -143q0 -41 11 -130.5t11 -136.5q0 -37 -4 -69l37 -39h750l28 84q-1 24 -1 55.5t1 71.5q4 109 4 133q0 127 -24 200q-25 37 -107 37h-30q-18 -2 -27 -2q-70 0 -70 35q0 25 25 66q82 -23 205 -23q45 0 136 4t136 4q98 0 166 -14q8 -6 8 -55q-25 -23 -63 -23 q-10 0 -31 2h-31q-41 0 -65 -18l-51 -90q-3 -114 -3 -257t3 -317q6 -285 12 -569q20 -45 88 -45q10 0 29 2h28q70 0 76 -55l-31 -21h-620q-17 12 -17 31q0 16 13 37q18 8 49 8q14 0 45 -3t45 -3q72 0 90 57v24q0 63 8 164q8 131 8 191q0 96 -16 174q-25 39 -86 39 q-29 0 -63 -10q-37 -2 -82 -2q-55 0 -170 5t-170 5q-119 0 -203 -16q-31 -74 -31 -197v-64q2 -43 2 -65q0 -63 -10 -109q-8 -14 -8 -34t10 -58.5t12 -54.5q33 -47 103 -47q12 0 40.5 2t41.5 2q33 0 53 -8q8 -8 8 -56q-36 -24 -80 -24h-4q-27 0 -83 10t-85 10q-35 0 -63 -8 l-185 -6h-43q-82 0 -137 6q-24 22 -24 43q0 14 8 25z" />
<glyph unicode="I" horiz-adv-x="811" d="M113 1456q23 29 61 29q16 0 55 -8.5t58 -8.5q49 0 159 9q104 6 162 6q96 0 176 -15l37 -38q-23 -51 -112 -52h-25q-96 0 -113 -63l-16 -98l8 -1051q8 -78 90 -78h35q25 2 39 2q57 0 82 -31q-16 -63 -84 -63q-23 0 -72 10t-69 10q-12 0 -21 -4q-125 -6 -383 -20 q-29 10 -35 16q-20 10 -24 31q16 49 113.5 59.5t119.5 59.5q-1 37 -1 92q0 111 3 295q1 129 1 229t-1 172q-4 223 -22 393q-20 45 -86 45h-33q-23 -2 -33 -2q-69 0 -69 65v9z" />
<glyph unicode="J" horiz-adv-x="966" d="M78 -203q6 27 33.5 47.5t52.5 36.5h7q44 0 113 -45q76 -49 111 -49q43 0 84 49q72 106 74 324v114q0 113 14 183q-4 111 -4 324t4 526q-8 84 -88 84q-16 0 -50 -4.5t-48 -4.5q-70 0 -72 70l29 21q52 2 114 2q93 0 207 -5q154 -4 308 -10q24 -5 24 -29q0 -8 -2 -18 q-25 -16 -63 -16q-12 0 -34 2t-32 2q-66 0 -92 -55q-12 -88 -19.5 -265.5t-19.5 -263.5l23 -72q-4 -375 -7 -403q-14 -229 -81 -375q-82 -182 -263 -276q-86 -45 -163 -45q-59 0 -105 28q-25 20 -37 60q-8 31 -18 63z" />
<glyph unicode="K" horiz-adv-x="1699" d="M68 1403q0 23 24 61h613q31 -4 30 -39q0 -16 -8 -28q-29 -16 -133 -23q-82 -4 -111 -67q6 -45 6 -97q0 -70 -15 -206t-15 -201q0 -57 8 -109q10 -25 39 -24q20 0 29 16q123 100 294 266q229 217 297 279q2 12 13.5 37.5t11.5 40.5q0 23 -25 41q-16 23 -98 24 q-70 4 -70 45q0 14 7 33q18 23 49 23q12 0 34.5 -4.5t34.5 -4.5q25 0 43 17q49 -18 117 -19q35 0 103.5 6.5t103.5 6.5q96 0 158 -41q1 -7 1 -13q0 -30 -24 -47q-29 6 -59 6q-104 0 -228 -98q-96 -82 -194 -164q-51 -63 -156 -151q-113 -94 -157 -146q23 -51 101.5 -121.5 t100.5 -117.5q76 -74 150 -148q90 -92 127 -162q189 -204 360 -204h2q25 0 51 4q25 -13 25 -64q-39 -24 -106 -24h-5q-27 0 -127 12l-403 8q-16 4 -16 20.5t-2 30.5q16 16 41 17q8 0 25.5 -3t25.5 -3q29 0 45 28q-29 84 -131 174q-127 117 -158 162q-33 18 -127 137 q-72 94 -143 95q-12 0 -29 -2q-74 -39 -98 -113q-16 -49 -17 -148q0 -111 -8 -153q8 -18 8 -53v-56q4 -65 63 -65h5q51 -2 102 -2q57 -6 82 -37q-25 -41 -80 -41q-10 0 -55 4q-35 2 -57 0q-29 -4 -64 -4q-31 0 -94 4t-96 4q-90 0 -150 -31q-6 8 -41 21q-27 10 -26 28 q0 6 4 15q6 41 57 41q10 0 29 -2h28q31 0 48 8q51 20 53 82q2 86 10 102q-2 10 -2 35q0 37 4 107v16q0 78 -18 123l16 63q-4 231 -16 697q-6 47 -64 57q-49 4 -101 6t-52 33z" />
<glyph unicode="L" horiz-adv-x="1402" d="M92 41q15 22 67 22h5q66 0 82 7q33 0 53 34q4 8 23 60q8 72 8 168q0 82 -6 217q-8 158 -11 199q10 70 11 157q0 49 -9 201q-4 76 -4 135q0 40 2 72q-10 53 -65 65q-49 2 -97.5 6.5t-48.5 34.5q0 20 17 56q98 -10 243 -11h115q172 0 275 -16q8 -6 8 -21v-26 q-27 -29 -78 -29q-12 0 -34.5 2t-35.5 2q-70 0 -90 -63q-8 -193 -8 -579t-8 -578q2 -23 22 -50q27 -35 33 -45q86 -6 162 -6q485 0 649 310q14 8 23 8q8 0 24 -8v-10q0 -51 -36 -131t-36 -131q0 -7 1 -13q-6 -6 -17 -47q-8 -33 -35 -31q-129 6 -280 6q-111 0 -333 -4 t-339 -4q-113 0 -213 2q-25 6 -39 39z" />
<glyph unicode="M" horiz-adv-x="1925" d="M92 1413q10 57 47 68q62 -21 160 -21q29 0 61 2q72 5 124 5q63 0 98 -7q27 -29 43 -86q12 -49 26 -98q33 -106 118 -328.5t120 -339.5q18 -35 49 -131q25 -86 57 -127q-1 -9 -1 -16q0 -44 38 -62q35 6 49 56q14 61 37 78q8 72 56 192q49 131 59 190q94 240 121 314 q63 180 96 328q51 47 155 47h17q76 -4 122.5 -4t63.5 4q8 -2 62 0q37 2 53 -25q6 -10 6 -22q0 -20 -20 -48q-72 2 -146 2q-84 -6 -92 -86q-14 -152 -14 -442q-2 -309 -10 -450q10 -37 10 -118t8 -116q16 -61 66 -90q14 -4 108 -4q65 -2 100 -35q2 -27 -30 -37 q-49 -14 -56 -18q-74 6 -220 6h-77q-195 0 -296 10q-20 39 -19 47q25 14 123 17q70 2 98 43q18 86 19 223q-1 96 -1 152t1 71q-8 74 -8 164q0 49 6 215q3 91 3 161q0 35 -1 64q-16 25 -39 10q-41 -49 -66.5 -173t-75.5 -173q-12 -68 -114 -323q-41 -182 -115 -326 q-14 -61 -31 -123q-18 -66 -74 -66q-7 0 -14 1q-63 106 -136 335.5t-132 331.5q-2 8 -63 189q-39 115 -76 186q-23 84 -29 100q-23 53 -61 70q0 -815 4 -944q2 -55 49 -104q2 -2 92 -78q33 -4 69 -10t46 -37l-27 -23q-43 1 -89 1q-196 0 -429 -21q-25 6 -30 26.5t-9 40.5 q12 6 145 31q119 78 119 266q0 39 -8 150q-5 64 -5 109q0 22 1 40q23 27 23 62q0 20 -10.5 61t-10.5 61q0 18 6 33v412q-35 37 -72 72q-43 41 -81 41q-18 0 -43 -10.5t-37 -10.5q-41 0 -66 45z" />
<glyph unicode="N" horiz-adv-x="1642" d="M94 25v5q0 37 51 54h13q100 0 166 86q32 80 32 224v9q0 27 -2 140q-1 42 -1 75.5t1 57.5q-7 55 -7 155q0 67 3 154q2 53 2 100q0 128 -16 207q-23 70 -115 82q-102 12 -127 41q0 61 51 70q35 -18 97 -19q25 0 77 4.5t76 4.5q133 0 150 -107q43 -47 129 -194 q74 -125 147 -187q12 -29 54.5 -85t52.5 -91q51 -51 190 -256q113 -162 213 -231l19 12l-9 897q-8 61 -71 98q-55 27 -113 55q-6 -4 -14 -4q-29 0 -45 41q6 18 12 38t27 24h489q14 -4 37 -51q-16 -41 -90 -58q-82 -18 -109 -45q-45 -47 -55 -133q-6 -74 -12 -147l12 -47 v-104q0 -166 4 -394q12 -418 12 -490q-10 -23 -22 -45q-10 -19 -30 -19q-4 0 -7 1q-66 10 -109 63q-20 29 -61 113q-35 76 -68 109q-115 147 -333 452q-211 293 -334 449q-39 0 -47 -41q7 -85 7 -208q0 -82 -3 -181t-3 -181q0 -122 7 -204v-15q0 -122 94 -178 q72 -43 143 -55q24 -17 24 -47q0 -6 -1 -13q-49 -22 -121 -22h-6q-31 0 -91.5 4t-88.5 4q-29 0 -51 -2q-14 4 -35 4q-18 0 -56 -6t-57 -6q-51 0 -82 33z" />
<glyph unicode="O" horiz-adv-x="1570" d="M102 662q0 31 9 59q35 492 323 668q211 129 463 129q135 0 248 -43q180 -47 344 -308q106 -168 106 -413q0 -106 -20 -215q-47 -236 -277 -451q-197 -145 -467 -145q-225 0 -397 106q-219 176 -284 383q-4 31 -27 115q-20 72 -21 115zM340 647q0 -334 192 -504 q119 -106 310 -106q137 0 252 59q254 158 254 586q0 59 -5 149q-6 121 -6 146q-43 84 -43 143q-51 137 -182 211q-117 68 -266 68q-307 0 -440 -279q-66 -289 -66 -473z" />
<glyph unicode="P" horiz-adv-x="1347" d="M70 66q26 30 70 30h3q16 0 46 -4t44 -4q63 0 78 80q-4 51 -4 111q0 92 12.5 273t12.5 273q0 59 -4 111q-6 29 -6 70q0 29 5 94t5 98q0 172 -139 195q-14 0 -40 -11.5t-47 -7.5q-23 14 -22 37q0 14 22 62q353 -9 594 -9q166 0 279 4q280 -71 391 -229q25 -68 25 -143 q0 -135 -72 -240q-128 -194 -448 -194h-3q-74 0 -254 16q-25 -6 -50 -14.5t-40 -32.5l-16 -426q-1 -6 -1 -13q-1 -26 19 -48q24 -28 50 -54q12 -2 30 -2q14 0 49 2t52 2q78 0 86 -57q-26 -40 -83 -40q-10 0 -20 1q-61 7 -160 7q-66 0 -148 -3q-75 -3 -136 -3q-106 0 -168 9 q-23 17 -23 35q0 12 11 25zM537 784l22 -30h279q168 6 264 67q53 86 53 221v8q0 87 -22 173q-47 92 -160 125q-70 18 -207 18q-16 0 -56 6t-61 6q-72 0 -100 -63q-19 -208 -19 -362q0 -95 7 -169z" />
<glyph unicode="Q" horiz-adv-x="1558" d="M102 678q0 117 31 246q47 209 207 368.5t367 210.5q33 0 114 10q74 8 115 9q109 0 240 -74q109 -72 215 -141q61 -53 98 -177q41 -137 78 -184q0 -31 7 -97.5t7 -98.5q0 -53 -14 -88q-4 -197 -102.5 -364t-272.5 -263q-43 -29 -152 -62q-100 -29 -147 -69q-2 -6 -2 -13 q0 -37 45 -38q39 -2 135 -19q86 -14 135 -14q41 0 74 6q53 4 121 43q102 61 110 63q14 -10 15 -28l-21 -60q-190 -211 -368 -211q-43 0 -86 11.5t-160 85.5q-100 63 -162 63q-43 0 -82 -26q-111 -147 -211 -148q-25 0 -49 8q-61 39 -61 103q0 27 14 51q57 49 219 61 q154 12 211 78q-43 59 -182 68q-264 98 -363 307q-123 143 -123 383zM352 686q0 -422 248 -600q109 -51 234 -51q49 0 98 8q20 -4 39 -4q57 0 119 57q88 80 110 92q74 94 103 250q20 140 43 279q-12 119 -25 239q-20 143 -70 228q-61 102 -166.5 164.5t-224.5 64.5 q-55 -6 -108 -12q-59 -6 -105 -27q-262 -109 -289 -553q-6 -74 -6 -135z" />
<glyph unicode="R" horiz-adv-x="1560" d="M86 1450q41 23 94 23q27 0 83 -10.5t85 -10.5q33 0 62 10q63 -4 534 -4q131 -20 236 -86q119 -74 170 -182q14 -51 14 -105q0 -125 -74 -198q-129 -125 -299 -156q-25 -12 -24 -39q0 -16 8 -39q49 -82 160 -235q117 -166 163 -240q35 -59 123 -76q136 -26 146 -30 q5 -16 5 -28q0 -27 -24 -38h-21q-34 0 -89 -4q-82 -6 -119 -6q-133 0 -199 57q-51 137 -170 316q-98 150 -196 297q-53 28 -120 28h-5q-74 0 -113 -37q10 -27 10 -59q0 -27 -10 -81t-10 -79q0 -41 18 -69q6 -15 6 -63q0 -38 -4 -97q-1 -8 -1 -16q0 -83 59 -113l102 -2 q66 0 88 -33q-4 -12 -29 -43q-49 2 -109 2t-132 -2q-176 -6 -223 -6q-92 0 -166 6q-27 20 -21 51q25 18 137 25q84 4 101 78v575l14 21q-14 100 -14 234v34v268q-10 63 -80 76q-60 4 -118 11q-50 6 -49 56q0 9 1 19zM524 768l166 -8q111 6 221 12q127 16 162 111 q39 31 40 110.5t32 110.5q-18 25 -43 102q-20 68 -60 99l-98 59q-25 -8 -61 -8q-33 0 -107 10t-108 10q-121 0 -144 -110v-498z" />
<glyph unicode="S" horiz-adv-x="1148" d="M84 338q19 24 43 24q19 0 41 -16q53 -90 160 -160q16 -12 188 -106q29 -2 80 -19.5t76 -17.5t45 10q201 0 284 142q31 51 31 114q0 82 -47 162q-53 72 -156 119q-90 37 -180 72q-358 63 -497 299q-23 94 -23 176q0 197 137 290q23 -2 51.5 28t47.5 32q72 37 165 37 q109 0 273 -54q43 6 84 15q51 12 78 41q8 2 18 2q59 0 66 -49q-2 -13 -2 -29q0 -41 12 -98q18 -88 18 -121q0 -27 -8 -49q-47 20 -217 149q-129 98 -234 101h-13q-227 0 -318 -136q-20 -102 -21 -129q0 -47 21 -80q88 -96 229 -159q57 -25 262 -90q164 -53 254 -109 q137 -102 137 -319q0 -70 -14 -148q-90 -215 -237 -248q-102 -59 -226 -59q-125 0 -225 59q-10 2 -72 21q-45 12 -73 12q-41 0 -72 -22q-43 -61 -72 -62q-14 0 -26 10q-47 55 -52 174q-6 156 -16 191z" />
<glyph unicode="T" horiz-adv-x="1386" d="M55 1090q12 82 25 163q18 92 51 152q-1 7 -1 14q0 32 24 45q88 8 248 9q115 0 268 -5q77 -2 146 -3q228 0 370 26q27 -12 102.5 -16.5t102.5 -20.5q36 -22 36 -73q0 -11 -2 -23q2 -51 23 -127q29 -105 33 -123q-10 -6 -19 -6q-25 0 -55 39q-25 33 -49 63q-66 45 -129 90 q-74 47 -139 56q-49 32 -110 32q-31 0 -65 -8l-55 -55l8 -305q-20 -23 -20 -41t20 -35q-8 -102 -8 -223q0 -100 6 -279q8 -203 11 -286q16 -61 108 -62h35q25 2 35 2q90 0 90 -72q-79 -22 -189 -22h-10q-43 0 -129 4t-127 4q-92 0 -158 -16h-69q-37 2 -45 39q-2 8 -2 15 q0 28 30 52q7 1 15 1q21 0 52 -4q44 -5 62 -5q66 0 101 47q0 143 8 412.5t8 398.5q0 219 -16 402q-28 28 -73 28h-3q-20 0 -68 -9q-40 -7 -63 -7h-10q-104 -10 -201 -111q-31 -31 -147 -186q-18 -6 -35 3t-21 26z" />
<glyph unicode="U" horiz-adv-x="1726" d="M80 1421q0 12 4 31q24 21 71 21q17 -1 37 -3q33 -5 57 -4q29 0 44 7q33 -7 91 -7q39 0 88 3q47 3 85 3q61 0 96 -8q16 7 36 7q34 0 79 -19q0 -86 -37 -86q-51 8 -84 8q-90 0 -125 -45q-14 -125 -14 -287q0 -96 7 -294.5t7 -298.5q14 -123 76 -222q68 -109 174 -153 q90 -25 182 -25q281 0 418 199q72 150 72 368q0 70 -9.5 209.5t-9.5 206.5q0 74 7 135q-16 16 -19 50q0 47 -2 53q-31 53 -100 73q-57 16 -117 31q-25 8 -25 37q0 16 13 49q20 25 65 25q23 0 78 -12q20 2 109 6q72 4 118 4q127 0 195 -31q1 -8 1 -15q0 -51 -60 -73 q-94 -33 -111 -53q-59 -76 -68 -203q-1 -16 -1 -40q0 -66 8 -196q4 -54 4 -99q0 -76 -11 -126q12 -70 13 -139q0 -121 -43 -260q-45 -150 -297 -277q-150 -39 -285 -39q-305 0 -473 193q-109 125 -109 403v73v71q0 84 -6 141q0 47 6.5 150.5t6.5 156.5q0 131 -29 217 q-23 29 -125 29q-88 2 -88 55z" />
<glyph unicode="V" horiz-adv-x="1613" d="M45 1444q55 16 109 16q53 0 104 -16q132 15 238 15q72 0 133 -7l12 -35q-2 -53 -96 -53t-94 -55q0 -18 8 -43q31 -39 61.5 -139.5t69.5 -143.5q-1 -6 -1 -12q0 -24 19 -53q29 -43 29 -66q31 -88 117 -285q78 -182 112 -288q32 -32 53 -32q3 0 7 1q41 49 47 98 q55 106 129 303q82 219 123 305q0 49 45 126t47 126q10 20 10 43q0 86 -86 109q-8 0 -49 -2q-27 -2 -43 2q-23 4 -41 22q0 63 31 72q39 -2 84 -2q51 0 148 4t142 4q68 0 119 -6q29 -23 29 -49q0 -13 -8 -23q-27 -29 -91.5 -34t-91.5 -43q-121 -92 -153 -310q-29 -14 -32 -59 t-15 -55q-80 -203 -258 -600q-12 -39 -51 -127q-33 -76 -43 -125q-4 -4 -23 -54q-12 -33 -37 -41q-4 -1 -9 -1q-23 -1 -39 19q-19 22 -38 48q-14 16 -37 115q-8 27 -51 112q-35 66 -35 116v5q-57 111 -182 459q-66 96 -123 303q-49 90 -98 182q-62 87 -155 87q-11 0 -23 -1 q-23 10 -23 68z" />
<glyph unicode="W" horiz-adv-x="2244" d="M55 1405q0 18 13 47l32 21l490 -9q37 -10 37 -51q0 -12 -6 -24q-16 -20 -80 -27q-53 -4 -66 -41q20 -109 74 -262q43 -129 88 -258q37 -31 46 -116t44 -114q0 -35 26.5 -87t28.5 -83q12 -39 49 -106h35q68 152 90 268q18 20 29.5 75.5t34.5 78.5q6 61 61 211 q51 139 52 213q0 121 -109 200q-4 2 -70 13q-41 6 -57 35q-4 8 -4 18q0 37 41 57l506 -8q24 -9 24 -35q0 -17 -10 -41q-14 -10 -82 -16q-51 -4 -72 -43q-4 -12 -4 -25q0 -20 23.5 -48.5t28.5 -41.5q35 -133 208 -631q29 -172 107 -280q51 66 92 184q55 160 74 199 q6 80 63.5 214t67.5 208q2 16 19.5 65t17.5 74q0 37 -29 64q-18 27 -73.5 39t-65.5 47q6 25 33 67h426q39 -8 39 -55q-1 -27 -15 -43q-92 -25 -123 -39q-66 -33 -94 -92q-55 -127 -149 -418q-90 -276 -156 -416q-35 -115 -68 -229q-41 -135 -86 -221q-16 -10 -32 -11 q-29 0 -51.5 24t-22.5 54q-47 174 -92 348q-57 197 -129 332q-8 43 -52 146q-37 90 -43 147q-20 23 -28 23q-68 -115 -125 -312q-82 -285 -96 -323l-115 -344q0 -66 -47 -84q-12 -6 -25 -6q-41 0 -82 81q0 4 -45 185q-27 111 -69 178q-51 127 -131 395q-33 88 -108 263 t-105 264q-18 29 -107 45q-76 14 -76 57z" />
<glyph unicode="X" horiz-adv-x="1652" d="M59 1460l23 21q60 3 127 3q90 0 194 -5q297 -10 312 -11l16 -16q4 -10 4 -20q0 -53 -59 -66q-53 10 -72 10q-51 0 -63 -39l8 -39q10 -12 156 -200q96 -123 143 -213q10 -10 59 -21l254 344l23 90q-18 68 -92 68q-16 0 -48 -3t-45 -3q-60 0 -60 64q0 8 1 18q43 33 113 33 q27 0 79 -5.5t74 -5.5q27 0 45 4l33 13l299 -4q37 -14 37 -56q0 -16 -8 -28q-31 -35 -90 -35q-8 0 -29 2h-29q-31 0 -51 -6q-78 -49 -153 -133q-63 -76 -127 -152q0 -29 -39 -57.5t-47 -48.5q-6 -12 -62 -78q-41 -47 -41 -84q0 -18 8 -39q174 -209 516 -651q18 -2 70 -23 q43 -18 70 -18q12 0 26 4q26 -20 26 -42q0 -4 -1 -9q-43 -33 -107 -33q-23 0 -68.5 6t-70.5 6t-47 -6q-18 2 -326 12q-12 8 -8 25q6 31 6 26q18 12 47 13q12 0 38 -3t36 -3q41 0 53 36q-119 174 -374 516q-57 -6 -107 -79q-63 -94 -92 -113q-12 -37 -90 -129 q-68 -80 -68 -131q0 -43 39 -84q12 -10 41 -10q10 0 33.5 2t34.5 2q48 0 48 -40q0 -6 -1 -13l-41 -27h-545q-25 31 -24 51q0 16 16 27q152 8 276 119q78 68 204 242.5t200 242.5q-45 117 -164 260q-100 117 -203 233q-92 115 -94 117q-59 59 -123 74q-18 -8 -39 -8 q-34 0 -76 20q-20 16 -20 39q0 21 16 47z" />
<glyph unicode="Y" horiz-adv-x="1540" d="M43 1378q0 12 4 27q26 35 103 35h8q77 -3 108 -3q15 0 19 1l383 -8q23 -10 22 -35q0 -25 -18 -49q-4 -2 -80 -11q-49 -6 -64 -37q12 -68 70 -161q76 -117 92 -154q20 -25 47 -74q29 -55 49 -80q78 -172 170 -194q205 295 316 604q-10 53 -105 80q-86 25 -86 63 q0 20 13 48q90 16 245 16q108 0 248 -8q-6 -12 3.5 -20.5t17.5 -16.5q-12 -49 -68 -70q-47 -16 -94 -33q-113 -125 -227 -335q-96 -178 -193 -355q-2 -27 -29.5 -67.5t-29.5 -59.5l8 -352q33 -72 125 -72q10 0 61 2q19 2 35 2t29 -2q21 -15 21 -31q0 -12 -13 -24l-25 -20 q-446 0 -651 -25q-12 8 -43 8q-29 20 -29 49q0 10 4 19q23 31 72 31q16 0 50 -4.5t51 -4.5q68 0 88 64q0 45 13 137t13 135q0 109 -57 187q-78 109 -223 350q-141 231 -228 346q-25 33 -133 41q-92 8 -92 61z" />
<glyph unicode="Z" horiz-adv-x="1277" d="M86 27q0 23 14 45q106 117 113 125q59 74 88 143q172 223 498 672q57 80 116 159q63 96 66 177q-113 12 -203 12q-393 0 -588 -234q-18 4 -38 29q25 86 47 170q31 98 102 125q51 -8 170 -8h51q141 0 221 -19q213 28 428 28q39 0 78 -1q8 -10 32 -17.5t28 -21.5 q-131 -166 -375 -506q-20 -53 -85 -133t-85 -127q-43 -66 -148 -190q-96 -115 -141 -193q-8 -25 -64.5 -77t-56.5 -91q0 -16 6 -31h326q199 2 315 46q158 61 240 213q29 6 55 -21l-36 -106q-20 -56 -20 -100q0 -8 1 -15q-27 -8 -32 -47t-35 -39h-1065q-23 6 -23 33z" />
<glyph unicode="[" horiz-adv-x="612" d="M109 1632q2 41 2 82q6 51 45 58q213 -8 336 -29q16 14 40 14q16 0 45 -7t37 -7l21 -21q12 -12 12 -22q0 -6 -2 -12q-29 -37 -83 -40t-103 -6q-80 -2 -105 -53q4 -16 4 -33q0 -37 -15 -106.5t-15 -101.5q0 -45 18 -82q-12 -74 -2 -258q8 -164 -18 -256q14 -115 12 -361 q0 -236 16 -358q31 -39 82 -39q23 0 80 12q49 8 78 6q45 -6 59 -47q6 -53 -59 -78q-33 -2 -96 7q-70 10 -97 10q-45 0 -75 -17q-14 0 -48 -4t-51 -4q-53 0 -71 39q-2 33 -2 74q0 49 5 146.5t5 144.5q0 70 -8 125q-2 119 4 329q8 225 8 322q0 338 -59 573z" />
<glyph unicode="\" horiz-adv-x="808" d="M68 1628q0 86 53 86q74 -35 117 -96q18 -76 80.5 -244t82.5 -254q4 -8 20.5 -29.5t16.5 -31.5q0 -8 -10 -15q51 -162 171 -476t171 -474q70 -119 70 -162q-1 -29 -19 -45q-109 8 -203 193q-57 111 -157 418q-104 319 -172 460q8 18 8 39q0 43 -33 111q-29 51 -55 102 q-141 285 -141 418z" />
<glyph unicode="]" horiz-adv-x="741" d="M115 1696q0 16 16 28.5t33 22.5q49 -14 106 -14q39 0 117 9t121 9q31 0 59 -4q41 -31 41 -92q0 -33 -18 -117q2 -80 2 -174q0 -100 -5 -298t-5 -300q0 -94 4 -176q14 -8 14 -23q0 -8 -7 -26.5t-7 -26.5q8 -82 5 -248t7 -250q-2 -6 -2 -16q0 -8 3 -26.5t3 -28.5 q0 -29 -27.5 -42.5t-62.5 -13.5t-101.5 16.5t-101.5 16.5q-37 0 -69 -12q-63 -25 -93 16q-10 59 29 68q59 -8 184 -8q66 68 66 198q0 29 -3 87.5t-3 88.5q0 35 4 64q0 2 12 72q10 47 10 79q0 61 -30 101q12 113 12 246q0 100 -12 340q-12 215 -10 342q-25 51 -95 51 q-16 0 -54 -4t-56 -4q-55 0 -84 32q-2 8 -2 17z" />
<glyph unicode="_" horiz-adv-x="1325" d="M59 -84q-10 70 344 70q111 0 366 -8.5t368 -8.5q121 0 198 6q18 -7 51 -38q2 -76 -337 -76q-92 0 -121 8q-215 -8 -393 -8q-467 0 -476 55z" />
<glyph unicode="`" horiz-adv-x="567" d="M272 1305q0 35 27 75q39 61 92 62q82 0 223 -180q31 -39 121 -105q70 -51 70 -78q0 -12 -10 -26q-25 -27 -52 -27q-31 0 -98 45q-80 55 -129 72q-131 45 -158 57q-86 43 -86 105z" />
<glyph unicode="a" d="M100 223q0 20 2 41q88 164 293 201q16 4 154 35q92 20 145 49q-2 88 -6 174q-10 96 -72 141q-32 17 -72 17q-36 0 -79 -13q-49 -61 -98 -120q-61 -72 -125 -72q-12 0 -25 2q-47 20 -84 63q-4 14 -4 29q0 66 61 115q18 12 121 69q174 25 250 25q53 0 103 -8l106 -47 q86 -102 86 -273q0 -55 -11 -170.5t-11 -171.5q0 -76 12 -133q67 -67 89 -67h1q16 0 35 12l67 55q8 -16 9 -31q0 -29 -35 -71q-43 -53 -49 -68q-56 -23 -127 -23q-17 0 -35 1q-20 10 -62 65q-33 45 -61 45q-18 0 -39 -12q-111 -100 -268 -100q-92 0 -166 41 q-104 57 -105 200zM324 158q20 -33 63 -60q35 -12 70 -12q111 0 219 127l10 205l-18 26q-199 -25 -297 -102q-48 -65 -48 -162q0 -11 1 -22z" />
<glyph unicode="b" horiz-adv-x="1009" d="M90 1362q0 18 12 43q37 8 136 82q91 67 134 67h1q57 0 90 -81q-4 -47 -33 -150.5t-29 -159.5q0 -29 7 -55q-8 -51 -9 -78q0 -74 47 -98q100 51 222 51q127 0 217 -59q190 -164 190 -506q-23 -145 -112 -262q-96 -125 -232 -158q-57 -14 -113 -14q-145 0 -227 90 q-12 4 -24 4q-27 0 -64 -40q-31 -33 -59 -33q-6 0 -11 1q-2 14 -17 47t-15 49q0 20 16 39q6 90 6 234q0 197 2 235q10 14 11 33q0 14 -6.5 42t-6.5 42q0 27 15 45l-13 37l8 434q-14 25 -83 57q-59 27 -60 62zM375 289q0 -190 178 -215q29 -10 57 -11q74 0 181 78 q96 170 96 357q-1 141 -58 264q-39 82 -137 106q-43 10 -120 10q-27 0 -58 -1q-66 -2 -88 -62q-12 -55 -27 -113q8 -33 9 -79q0 -51 -16.5 -166t-16.5 -168z" />
<glyph unicode="c" horiz-adv-x="835" d="M80 373q4 223 20 291q37 156 170 227q84 78 230 78q123 0 235 -54q96 -57 111 -114q1 -4 1 -9q0 -23 -26 -49q-25 -23 -49 -45q-20 -4 -37 -4q-61 0 -128.5 95.5t-127.5 95.5q-29 0 -63 -15q-184 -109 -185 -401q0 -47 7 -96q109 -293 313 -299q27 -6 51 -6q61 0 137 49 q100 61 127 71q5 -16 5 -31q0 -30 -21 -53q-131 -139 -320 -139q-74 0 -145 25q-123 27 -209 143q-76 106 -96 240z" />
<glyph unicode="d" horiz-adv-x="1093" d="M90 496q0 231 215 401q98 57 221 57q121 0 240 -53l16 19q-10 20 -10 53q0 29 10.5 92t10.5 92q0 98 -105 98h-8q-20 10 -39 23q-25 18 -25 41q0 10 5 20q-4 27 17 41.5t42 26.5q49 6 129 59q74 51 121 52q14 0 26 -5l39 -51q-39 -492 -59 -1118q8 -23 8 -57 q0 -14 -2 -45t-2 -45q0 -74 47 -99l70 -12q37 -12 41 -47q-43 -37 -133 -47q-119 -12 -144 -23l-106 60q-90 -51 -195 -52q-102 0 -188 52q-109 66 -173.5 177t-64.5 236q-4 27 -4 54zM285 457q0 -203 114 -334q98 -70 211 -70q33 0 66 6q6 6 57 35q35 20 41 51q7 15 7 45 q0 20 -3 46t-3 46q0 30 7 46l-8 454q-92 92 -207 92q-68 0 -116 -40q-37 -33 -76 -64q-43 -43 -43 -90q-47 -100 -47 -223z" />
<glyph unicode="e" horiz-adv-x="897" d="M106 430q-1 17 -1 33q0 111 47 217q61 131 176 192q84 94 231 95q94 0 173 -43t114 -119q25 -51 49 -100q29 -59 29 -107q0 -20 -4 -41l-48 -20q-4 0 -276 10q-98 4 -175 4q-51 0 -93 -2q-31 -29 -31 -80q0 -20 8 -76q6 -38 6 -62v-12q113 -238 262 -243q33 -4 64 -4 q152 0 244 110q14 4 29.5 -6t15.5 -22q0 -11 -6 -19q-106 -172 -351 -172q-45 0 -88 6q-152 43 -258 174t-117 287zM332 692q0 -16 4 -33q43 -33 119 -38h123h3q126 0 146 81q-10 14 -20 66q-8 41 -35 57q-78 45 -148 45q-41 0 -73 -16q-37 -35 -74 -72q-45 -45 -45 -90z " />
<glyph unicode="f" horiz-adv-x="753" d="M98 858q25 23 78 23h24.5h24.5q68 0 90 41q0 96 2 192q4 113 33 182q35 92 117 144q100 65 192 65h3q98 0 141 -82q1 -8 1 -16q0 -51 -35 -91q-40 -46 -99 -46q-31 0 -89.5 17.5t-78.5 17.5q-57 0 -72 -76q0 -74 14 -162q12 -72 23 -145q14 -27 43 -34t55 -14 q20 17 59 17q27 0 64 -8q16 -11 16 -33q0 -14 -6 -31q-23 -23 -57 -22q-16 0 -46 5t-42 5q-47 0 -64 -47l-8 -604q2 -20 22.5 -40t39 -33t47.5 -13q8 0 26 2h25q53 0 66 -47q-23 -23 -76 -29q-84 -10 -86 -10q-44 6 -110 6h-34h-143q-68 4 -113 16q-4 8 -4 15q0 20 49 40 q16 -4 31 -4q63 0 94 50q1 30 1 66q0 73 -3 171q-4 188 -4 246q0 96 6 176q-20 39 -69 39q-14 0 -45 -5t-43 -5q-53 0 -60 61z" />
<glyph unicode="g" horiz-adv-x="1161" d="M92 -166q0 61 55 111q10 14 80 49q49 27 52 65q-10 8 -115 56q-12 25 -12 49q0 88 100 143q20 0 37.5 16.5t17.5 32.5q-37 43 -75.5 89.5t-59.5 91.5l4 190l103 137q127 96 296 97q176 0 285 -111q41 2 105.5 46t99.5 52q31 -6 63.5 -13t42.5 -34q0 -53 -2 -63 q-8 -33 -41 -43q-10 -2 -22 -2q-25 0 -70 17t-63 17q-31 0 -51 -32q41 -104 41 -177q0 -68 -33 -120q-117 -186 -465 -187q-47 0 -135 4q-2 -4 -21.5 -24.5t-19.5 -34.5q0 -6 2 -14q68 -37 182 -58q98 -14 197 -30q266 0 356 -170q25 -43 25 -103q0 -84 -45 -137 q-143 -137 -408 -137q-219 0 -405 86q-78 59 -93 98q-8 23 -8 43zM252 -143q0 -18 10 -35q72 -129 273 -129q70 0 301 39q94 36 94 153l-86 52q-53 4 -187 43q-122 36 -188 36h-4q-102 0 -174 -71q-39 -63 -39 -88zM362 633q0 -96 39 -166q69 -93 172 -93q11 0 21 1 q37 2 72 37q26 30 55 61q24 69 24 136v5q0 123 -75 211q-76 41 -150 41q-18 0 -37 -2q-68 -41 -106 -129q-14 -47 -15 -102z" />
<glyph unicode="h" horiz-adv-x="1126" d="M88 1319v37l260 129q5 1 10 1q37 0 50 -40q-31 -221 -31 -672l18 -16q92 51 187 100q117 66 200 66q72 0 140 -43q86 -113 86 -277q0 -53 -11.5 -164.5t-11.5 -171.5q0 -80 14 -145q53 -72 93 -72q10 0 22 4q13 -10 13 -22q0 -8 -5 -17q-73 -26 -173 -26h-7q-37 0 -100 4 q-78 6 -103 6q-8 25 -8 39q8 6 62 18q39 8 45 41q16 90 16 199q0 66 -8 198t-8 203q-27 84 -90 105q-35 12 -68 12q-70 0 -158 -53q-139 -88 -145 -90q6 -43 6 -94q0 -57 -10.5 -168t-10.5 -166q0 -80 15 -146q16 -37 69.5 -43t71.5 -35l-35 -28h-356q-12 10 -22.5 20.5 t-8.5 26.5q35 16 70 37.5t45 58.5q20 288 20 563q0 245 -16 480q-8 10 -16 45q-6 29 -25 41q-5 -1 -9 -1q-45 0 -77 56z" />
<glyph unicode="i" horiz-adv-x="550" d="M119 764q0 51 61 78q51 23 105 45q6 2 57 28q35 16 57 17q12 0 25 -4q6 -60 6 -119q0 -111 -22 -217q16 -47 16 -119q0 -35 -5 -106.5t-5 -106.5q0 -135 69 -203q29 4 56 -22v-37q-115 -18 -209 -18q-113 0 -199 26q-2 41 56.5 50.5t66.5 47.5q8 90 8 254t8 252 q-33 92 -92 123q-9 -1 -17 -1q-39 0 -42 32zM213 1339q0 72 49 125q33 25 80 25q84 0 121 -62q18 -39 18 -73t-18 -64q-20 -33 -64 -47q-35 -10 -69 -20q-86 43 -115 88q-2 14 -2 28z" />
<glyph unicode="j" horiz-adv-x="684" d="M111 -289q0 100 69 125q4 0 37 6q25 4 39 4q43 0 59 -32q6 -1 11 -1q46 0 47 48q0 8 -2 28.5t-2 30.5q0 27 10 39q0 45 7 132t7 132q0 63 -10 119q12 102 12 188q0 100 -16 177q-16 25 -78 47q-49 20 -49 53q0 10 4 24q70 35 139 72q82 39 142 43l8 -51q-6 -102 -6 -248 v-145q2 -98 2 -148q0 -303 -35 -489q-43 -66 -86 -131q-55 -78 -125 -90q-35 -6 -62 -6q-102 0 -122 73zM340 1430q25 79 100 79h2h2q87 0 127 -73q-4 -49 -6 -99q-12 -53 -67 -77q-20 -8 -41 -9q-53 0 -103 56q-24 22 -24 53q0 8 10 70z" />
<glyph unicode="k" horiz-adv-x="1126" d="M76 1303q27 70 112 110l148 70q29 18 49 18q39 0 39 -82q0 -23 -2 -51q-33 -297 -33 -624q0 -139 6 -283q14 -8 29 -8q23 0 56.5 38.5t56.5 40.5q147 57 276 244q-10 20 -43 31q-25 8 -51 16q8 63 65 64q10 0 36 -3t38 -3q27 0 43 10l240 8q22 -6 22 -36q0 -9 -2 -19 q-12 -4 -50 -25.5t-60 -21.5q-12 0 -25 4q-55 -25 -178 -119q-109 -82 -184 -107q-10 -16 -11 -34q0 -31 33 -72q27 -33 53 -68q49 -35 123 -127q80 -102 123 -137q76 -66 164 -71q16 -6 16 -27q0 -16 -8 -29q-69 -22 -162 -22h-8q-43 0 -123 5t-114 5q-29 27 -23 43 q2 0 35 35q20 23 20 39q0 14 -16 26q-33 27 -123 156q-74 104 -154 125q-92 -33 -92 -131q0 -25 11 -92q6 -47 6 -74v-12q2 -39 65.5 -51t63.5 -23q0 -14 -33 -41q-41 0 -124 -9t-126 -9q-70 0 -123 18q-37 27 -14 51q12 18 52 29.5t54 34.5q7 40 7 142v26q0 106 16 168 q-8 246 -23 727q-31 49 -34 55q-23 29 -50 35q-4 -1 -9 -1q-30 0 -60 38z" />
<glyph unicode="l" horiz-adv-x="589" d="M111 1311q0 16 8 37q12 6 157 106q94 61 170 70l21 -31q-23 -250 -23 -590q0 -57 2 -358q1 -110 1 -200.5t-1 -162.5q10 -27 22.5 -55.5t37.5 -40.5q59 0 84 -27q1 -6 1 -12q1 -22 -19 -32q-24 -13 -50 -23q-28 7 -81 7q-44 0 -105 -5q-28 -2 -53 -2q-80 0 -125 20 q-1 5 -1 10q0 38 56 60q63 24 63 72q10 98 11 225q0 102 -10.5 314t-10.5 321q0 88 6 164q-8 51 -84.5 71.5t-76.5 61.5z" />
<glyph unicode="m" horiz-adv-x="1691" d="M80 786q0 12 8 31q4 2 141 88q84 51 148 51q6 -59 35 -170q195 152 374 152q47 0 88 -10q23 -31 48.5 -66t54.5 -49q10 -2 20 -2q52 0 117 43q106 70 131 78q45 16 96 16q100 0 170 -59q66 -70 66 -195q0 -37 -10 -135q-4 -64 -4 -105v-24q12 -35 12 -86q0 -20 -2 -60 t-2 -59q0 -145 117 -174q1 -7 1 -12q0 -36 -32 -47l-344 8q-16 6 -17 29q0 18 9.5 30.5t46.5 16.5t45 30q24 111 24 270v13q0 68 -10 309q-16 82 -78 115q-176 -12 -200 -18q-115 -27 -164 -123q0 -51 -2 -176q0 -119 2 -181q2 -100 16 -170q10 -27 70 -61q51 -29 49 -64 q-68 -26 -150 -26h-6q-37 0 -116.5 7t-122.5 7q-16 6 -17 43q133 31 133 193q0 35 -7 106.5t-7 104.5q0 25 5 70.5t5 68.5q0 135 -65 211q-43 16 -86 16q-70 0 -238 -82q-54 -54 -54 -166q0 -15 1 -30q5 -79 5 -131q0 -62 -7 -84q-8 -16 -8 -37q0 -19 13 -69q11 -43 11 -69 v-8q14 -63 78 -77q39 0 45 -17q-17 -52 -90 -52q-12 0 -25 1q-60 6 -95.5 6t-47.5 -6q-14 8 -39 8q-12 0 -34.5 -2t-30.5 -2q-51 0 -50 47q6 6 58 37q37 20 49 47q0 20 8 59t8 58q0 23 -8 37q14 70 14 149q0 123 -30 250q-12 31 -72 51q-51 20 -51 47z" />
<glyph unicode="n" horiz-adv-x="1132" d="M88 856q47 8 139 64q84 51 138 51l16 -25q2 -8 2 -16q0 -16 -13.5 -51t-13.5 -50q0 -31 37 -45q94 61 187 123q109 66 196 66q66 0 133 -35q96 -121 97 -360q0 -45 -5 -137.5t-4 -135.5q0 -111 19 -184q37 -16 74 -31q43 -20 43 -57q-1 -9 -3 -19l-22 -16q-41 0 -135 -2 q-88 0 -137 2q-74 2 -136 16q-8 10 -8 21q0 25 47 55q92 0 92 68q4 29 5 59q0 39 -10.5 119t-10.5 119q0 59 16 108q-6 72 -14 146q-16 78 -88 112q-35 14 -72 15q-59 0 -135 -33q-66 -31 -129 -62l-20 -34q8 -51 8 -115q0 -45 -5 -135t-5 -133q0 -125 32 -211q8 -27 70 -35 q53 -6 53 -31q0 -12 -8 -33l-18 -16l-383 8q-8 18 -8 33q0 16 8 35q78 14 100 84q12 31 12 92q0 23 -2 49q-3 53 -3 88t3 53q-8 31 -8 127q0 88 -16 129q-27 63 -99 84q-24 28 -24 52q0 14 8 24z" />
<glyph unicode="o" horiz-adv-x="1007" d="M111 440q0 139 86 312q177 206 391 206h2q57 0 115 -16q51 -8 110 -41q51 -33 100 -65q43 -66 86 -134q47 -80 48 -143q0 -29 -9 -59q-2 -10 13.5 -33t15.5 -35q-20 -141 -96 -252q-82 -121 -209 -168q-41 -33 -113 -39h-119q-141 14 -258 127q-111 104 -153 248 q-10 45 -10 92zM309 496q0 -111 33 -281q35 -119 190 -162q12 -6 27 -6q10 0 28.5 4t28.5 4q18 0 33 -14q109 29 182 154l33 161q12 57 13 121q0 164 -66 280.5t-223 116.5q-61 0 -115 -20q-164 -102 -164 -358z" />
<glyph unicode="p" horiz-adv-x="1056" d="M104 780q0 16 9 37q131 94 276 162q20 -2 35 -29q18 -35 33 -43q84 47 192 47q72 0 160 -22q176 -111 260 -336q6 -90 6 -131q0 -139 -53 -229q1 -7 1 -14q0 -55 -56 -105q-90 -80 -99 -94q-72 -47 -163 -48q-115 0 -248 68l-27 -20q-6 -90 -6 -121q0 -133 70 -203 q-4 0 -4 1t73 1q41 0 60 -23q8 -37 -21 -49q-4 -4 -57 -14q-36 8 -97 8q-44 0 -100 -4q-43 -3 -79 -3q-80 0 -128 15q-6 18 -6 31q0 29 67.5 40t71.5 56q-2 66 -2 461q0 279 -16 459q-10 39 -81 53t-71 49zM385 295q0 -6 4 -12q29 -20 35 -64q0 -39 2 -78q20 -61 109 -82 q4 -2 151 -16q53 18 100 76l82 98q18 240 19 262q0 143 -47 246q-20 41 -70 78q-43 27 -84 53q-23 2 -45 2q-141 0 -201 -78q-6 -109 -12 -219q-4 -79 -4 -142q0 -42 2 -77q-2 -14 -21.5 -24.5t-19.5 -22.5z" />
<glyph unicode="q" horiz-adv-x="1007" d="M96 459q0 74 17 147q0 84 65 166q18 25 135 141q94 57 205 58q133 0 238 -80q8 -2 16 -2q31 0 81 51t65 51q25 0 38 -69q-30 -163 -30 -415q0 -71 2 -149q5 -190 5 -324q0 -160 -7 -239q4 -25 10 -51.5t29 -34.5q31 -4 66.5 -9t47.5 -30q-6 -16 -30 -37q-37 4 -80 5 q-39 0 -118 -5.5t-118 -5.5q-80 0 -139 15q-1 5 -1 10q0 31 36 45q12 -4 24 -4q63 0 95 63q18 49 18 131q0 141 -2 141v-3q-20 23 -47 22q-25 0 -76 -33.5t-76 -36.5q-209 6 -346 132q-123 137 -123 350zM285 420q0 -109 49 -201t133 -139q98 -10 123 -10q96 0 145 47 q12 25 19 71q6 58 10 74q-1 30 -1 70t1 88q4 129 4 155q0 166 -33 261q-35 39 -104 47q-59 4 -117 8q-16 -20 -56 -27.5t-55 -17.5q-70 -63 -92 -174q0 -2 -22 -201q-4 -27 -4 -51z" />
<glyph unicode="r" horiz-adv-x="813" d="M90 809q0 10 2 22q31 39 109 74q92 37 123 62q8 4 14 4q45 0 53 -60v1q-2 0 -2 -74q0 -43 31 -45q130 159 323 159h2q25 0 50 -2q69 -46 69 -114q0 -29 -14 -52q-40 -65 -124 -65h-3q-16 0 -35 2q-74 33 -149 33q-49 0 -88 -17q-63 -61 -64 -178q0 -33 8 -115 q5 -56 5 -90q0 -11 -1 -20q2 -14 2 -33q0 -18 -3 -59t-3 -62q0 -84 56 -110q-14 2 59 4q35 0 47 -25q1 -8 1 -15q0 -52 -76 -52h-3q-51 10 -117 10q-31 0 -87 -3t-85 -3q-37 0 -67 4q-20 2 -29 24q-6 23 4 43q39 15 80 31q36 14 36 55q0 6 -1 13q-6 39 -6 84q0 43 7 130 t7 128q0 127 -47 219q-51 35 -55 37q-29 25 -29 55z" />
<glyph unicode="s" horiz-adv-x="743" d="M113 158q0 47 18 80h3q28 0 56 -35q33 -43 56 -49q94 -117 229 -123q43 8 89 20q46 13 70 59q14 27 15 75q0 36 -8 83q-57 63 -195 107q-168 51 -208 76q-98 61 -103 192v21q0 193 139 264q49 24 116 24h5q76 0 123 -32l123 12q29 -12 35 -62q6 -57 29 -75q-4 -8 -5 -21 q0 -10 5.5 -28.5t5.5 -26.5q0 -18 -15 -31q-70 59 -139 119q-79 65 -152 65h-2q-29 0 -59 -8q-53 0 -98 -90q-12 -23 -13 -43q0 -59 89 -119q201 -57 278 -104q150 -90 164 -240q4 -18 4 -35q0 -45 -27 -96q-2 -4 -53 -86q-106 -84 -262 -84q-84 0 -176 25 q-10 -2 -31.5 -16.5t-34.5 -14.5q-12 0 -24 14q-47 104 -47 183z" />
<glyph unicode="t" horiz-adv-x="700" d="M100 854q14 51 98.5 117.5t96.5 122.5q18 16 39 106q14 70 72 72q61 -12 67 -86q-22 -37 -22 -107v-6q-2 -82 -15 -117q27 -53 92 -53q14 0 46 3t47 3q61 0 92 -45q-20 -65 -101 -65h-2q-14 0 -46 2t-48 2q-53 0 -80 -25q2 -39 2 -86q0 -53 -6 -158.5t-6 -156.5 q0 -131 31 -223q20 -31 28 -41q20 -23 39 -23q5 -1 10 -1q30 1 78 19q58 22 82 21q27 0 47 -14q0 -45 -39 -78q-39 -23 -75 -45q-61 -27 -140 -27q-88 0 -145 35q-80 59 -80 184q0 31 8 119q5 51 5 87q0 18 -1 32q-8 30 -8 87q0 41 4 95q3 32 3 60q0 78 -21 122 q-16 25 -53 25q-10 0 -28.5 -2t-27.5 -2q-41 0 -43 47z" />
<glyph unicode="u" horiz-adv-x="1159" d="M115 831q0 12 6 29q39 43 125 72q115 39 139 51q12 2 21 2q38 0 47 -31q-26 -314 -26 -618q0 -59 1 -117q27 -39 53 -76q37 -43 78 -49q102 4 191.5 53.5t132.5 135.5q6 49 6 104q0 51 -7.5 152.5t-7.5 154.5q-14 51 -104 70q-82 16 -82 65q0 12 2 27q63 39 164 72 q86 29 172 55q39 -10 39 -45q0 -14 -8 -49t-8 -49q2 -53 2 -115q0 -72 -9 -293q-4 -109 -4 -192q0 -55 2 -99q12 -25 70 -49q49 -20 49 -49q0 -13 -4 -25q-82 -14 -252 -38q-27 10 -33 86q-4 56 -50 56q-5 0 -9 -1q-117 -82 -152 -101q-78 -41 -154 -41q-11 0 -22 1 q-84 6 -145 55q-74 106 -74 319q0 31 2 92v95q0 127 -22 204q-14 18 -76 39q-53 16 -53 47z" />
<glyph unicode="v" horiz-adv-x="1073" d="M80 887q0 12 4 28q53 8 188 9h21q104 0 166 18q80 -20 76 -55q-2 -27 -56.5 -48.5t-54.5 -52.5q0 -10 6 -24q29 -49 96 -240q55 -152 125 -227h37q82 174 105 225q55 127 84 234q-16 70 -78 86q-8 -2 -16 -2q-30 0 -56 30q-4 10 -4 19q0 20 20.5 31.5t38.5 23.5 q1 -1 42.5 -1t123.5 1q105 0 162 -27q1 -5 1 -11q0 -50 -69 -87q-88 -49 -98 -92q-78 -209 -248 -623q-6 -102 -84 -143q-33 0 -59 33q-18 31 -39 59q-59 176 -268 711q-14 41 -94 63q-72 23 -72 62z" />
<glyph unicode="w" horiz-adv-x="1533" d="M39 928l41 28q31 1 62 1q154 0 292 -25q8 -16 8 -27q0 -16 -36.5 -30.5t-38.5 -40.5q-4 -18 -5 -35q0 -49 23 -111q20 -49 41 -100q55 -158 59 -168q41 -94 103 -152q31 2 47 41q14 33 29 66q4 61 53 184q49 115 49 191q-25 47 -80 86q-49 29 -98 57q-1 7 -1 14 q0 37 38 49h45q120 0 309 -8q18 -39 16 -55q-43 -27 -51 -33q-29 -23 -35 -47q25 -55 88 -254q49 -160 105 -244q-6 -10 -6 -20q0 -29 53 -43q55 80 115 254q0 33 28 78h23q2 -15 2 -31q0 -66 -27 -145q-31 -82 -61 -166q-18 -20 -41 -142q-16 -96 -78 -96q-20 0 -47 8 q-53 66 -92 191q-61 184 -70 200q-2 33 -30.5 83.5t-28.5 78.5q-16 18 -37 19q-27 -41 -56.5 -128t-54.5 -128q1 -4 1 -9q1 -25 -19 -61q-22 -43 -21 -68q-18 -66 -37 -133q-23 -67 -84 -67q-11 0 -24 2l-51 55q-18 92 -88 265t-90 272q-35 86 -72 174q-51 100 -141 106 q-29 49 -29 64zM1198 913q0 20 31 52q37 -8 90 -9q16 0 51 2h51h6q93 0 142 -30q-4 -37 -49 -66q-37 -23 -71 -46t-57.5 -96t-60.5 -95q-16 20 -16 43q0 16 12 48t12 48t-8 31q-6 41 -69.5 69.5t-63.5 48.5z" />
<glyph unicode="x" horiz-adv-x="1103" d="M14 39q0 10 11 20q46 24 97 24q11 0 21 -1q131 74 363 324q2 10 2 20q0 53 -62 109q-88 82 -94 92q-61 57 -123 116q-80 68 -153 74q-25 6 -25 27q0 14 14.5 31.5t55.5 19.5h63q18 2 31 8q17 -7 59 -7q35 0 88 5q14 1 27 1q73 0 107 -38q0 -14 -29 -35.5t-29 -37.5 q0 -12 13 -29q41 -57 84 -117q53 -70 114 -74q12 20 88 93q55 53 54 106q-14 29 -66.5 47.5t-52.5 48.5q0 8 4 19l37 27q29 -6 61 -7q37 0 110.5 10.5t108.5 10.5q66 0 115 -23q14 -20 14 -37q0 -53 -90 -65q-102 -14 -196 -105l-160 -164q82 -195 420 -450q20 -4 44 -7 t34 -24l-11 -28q-115 -18 -219 -19q-127 0 -217 27q-6 27 32 43t38 32q0 10 -6 23l-209 238q-37 0 -72 -43q-45 -55 -59 -64q-8 -18 -44 -62t-36 -69q0 -16 9 -29.5t50 -33.5q31 -14 29 -43l-31 -27q-154 5 -249.5 5t-133.5 -5q-31 31 -31 43z" />
<glyph unicode="y" horiz-adv-x="1116" d="M63 881q0 10 7 22l47 29q37 -12 84 -12q35 0 104.5 9t104.5 9q74 0 129 -31q12 -25 12 -39q0 -20 -45 -33.5t-53 -41.5q6 -98 71 -236q84 -176 99 -225q2 0 26 -27q16 -16 33 -10q53 80 94 217q63 215 68 229q-14 61 -76 84q-12 6 -25.5 11.5t-14.5 17.5t-1 20 q0 53 57 66h336l15 -16q10 -20 10 -37q0 -41 -101 -78q-68 -25 -108 -92q-25 -41 -54.5 -137.5t-54.5 -137.5l-204 -522q-18 -115 -131 -205q-76 -96 -228 -96q-25 0 -49 2q-35 12 -68 25q-39 18 -51 53q-10 16 -10 35q0 31 31 80q36 30 81 30h3q37 0 106.5 -22.5 t100.5 -22.5q70 0 108 82q57 55 57 123q0 59 -53 156q-66 121 -77 149.5t-81 210.5q-49 129 -92 203q-57 100 -182 106q-25 31 -25 52z" />
<glyph unicode="z" horiz-adv-x="919" d="M102 47q0 25 11 49q115 133 262 342q225 322 243 348q4 12 -6 23l-18 16q-26 2 -50 2q-218 0 -345 -159q-47 8 -47 43q0 14 12 52t12 58q0 10 -4 21q18 27 66 76h29q163 0 651 18l28 -47q1 -5 1 -11q0 -46 -48 -81q-45 -31 -88 -62q-100 -115 -236 -299 q-215 -295 -219 -301q-4 -14 25 -43q158 4 254 33q131 39 215 133q27 18 80 18q18 -29 18 -59q0 -33 -27.5 -94.5t-29.5 -93.5q-31 -43 -107 -43q-18 0 -51 3t-45 3q-137 18 -270 18q-131 0 -275 -18q-41 12 -41 55z" />
<glyph unicode="{" horiz-adv-x="487" d="M119 713q-2 20 27.5 20t64.5 30t35 68q0 43 -39 229.5t-39 262.5q0 98 63 158q51 49 103 49q51 0 51 -21q0 -23 -51 -22q-94 0 -94 -111q0 -51 35.5 -239.5t35.5 -245.5q0 -115 -100 -178q100 -63 100 -178q0 -76 -22 -191q-18 -96 -37 -192q-12 -68 -12 -103 q0 -111 94 -110q51 0 51 -23q0 -20 -51 -20t-103 49q-63 59 -63 157q0 78 25 197q20 98 40 199q12 63 13 94q0 41 -35 70.5t-64.5 29.5t-27.5 21z" />
<glyph unicode="|" horiz-adv-x="409" d="M129 1855q0 90 98 91q51 -1 86 -50q-47 -135 -51 -378q-6 -315 -16 -392q8 -137 8 -317q0 -88 -3 -263t-3 -261q0 -221 14 -379q-8 -18 -39 -51q-63 -2 -63 55q0 10 3 36.5t3 39.5q0 27 -10 45q23 27 22 63q0 20 -14 82q-12 53 -4 84q-2 84 -2 184q0 115 6 346.5t6 346.5 q0 291 -31 501q12 23 13 56q0 27 -11.5 82t-11.5 79z" />
<glyph unicode="}" horiz-adv-x="487" d="M219 -84q0 23 51 23q94 0 95 110q0 51 -36 239.5t-36 246.5q0 115 100 178q-100 63 -100 178q0 76 22 190q18 96 39 191q10 70 11 104q0 111 -95 111q-51 0 -51 22q0 20 51 21q53 0 103 -49q63 -59 63 -158q0 -78 -24 -197q-20 -98 -41 -198q-12 -66 -13 -97 q0 -39 36 -68.5t64.5 -29.5t26.5 -20q2 -20 -26.5 -20.5t-64.5 -30t-36 -70.5t39 -227.5t39 -262.5q0 -98 -63 -157q-49 -49 -103 -49q-51 0 -51 20z" />
<glyph unicode="&#xa3;" horiz-adv-x="1071" d="M84 -18q2 47 55 77q76 43 88 58q47 55 92 110q57 70 62 129q47 109 49 119q25 72 19 131q-27 39 -101 39q-16 0 -47 -2t-43 -2q-80 0 -80 64q0 14 2 32q31 16 74 17q20 0 62 -5.5t63 -5.5q66 0 104 45q6 70 37 194t39 185q43 78 59 154q115 139 213 166q12 -2 87 -6 q51 -4 75 -25q25 -76 25 -86q-1 -26 -17 -49q-33 -45 -106 -55q-63 -6 -125 -15q-66 -18 -82 -84q-41 -236 -31 -391q41 -37 105 -37q18 0 61 5.5t66 5.5q20 0 37 -2q37 -27 16 -95l-16 -16q-18 -4 -43 -4q-23 0 -70 4t-68 4q-92 0 -127 -55q6 -25 7 -47q0 -53 -48.5 -137.5 t-50.5 -131.5q-51 -41 -39 -86l48 -45l360 8q59 41 78 41q10 0 20 -4q10 -12 11 -26q0 -20 -27 -59.5t-31 -57.5q-129 -104 -239 -104q-35 0 -70 10q-186 57 -240 133q-41 -8 -118.5 -72.5t-120.5 -64.5q-39 0 -74 39z" />
<glyph unicode="&#xa7;" horiz-adv-x="978" d="M111 973q0 25 4 49q51 147 217 201q4 10 4 20q0 18 -33 33.5t-27 42.5q-113 100 -112 240q0 88 54 174t133 121.5t159 35.5q72 0 137 -26q119 -49 195 -191q25 -113 24 -121q0 -43 -24 -71q-25 -20 -49 -41q-31 -23 -58 -23q-14 0 -28 4q-63 23 -78 103q-6 70 -13 141 q-16 78 -86 102q-139 6 -198 -102q-4 -23 -4 -45q0 -100 102 -203q88 -78 178 -157q186 -186 191 -193q106 -125 106 -240q0 -47 -16 -94q-29 -80 -127 -141q-55 8 -78 -21q10 -53 85 -122.5t81 -129.5q4 -31 4 -57q0 -88 -51 -205q-82 -106 -271 -106q-53 0 -116 8 q-106 37 -183 107q-90 82 -94 182q0 37 23 94q29 45 90 45q37 0 72 -16q61 -29 61 -113q0 -14 -2 -39.5t-2 -38.5q0 -94 86 -114q37 -10 72 -11q119 0 149 82q16 39 8 99q-104 174 -428 430q-78 92 -108 141q-49 86 -49 166zM238 1016q0 -20 8 -41q88 -102 178 -207 q115 -113 227 -113q35 0 72 11q63 29 63 104q0 17 -4 31q-104 135 -112 145q-68 82 -125 123q-113 63 -185 64q-27 0 -55 -9q-68 -41 -67 -108z" />
<glyph unicode="&#xad;" horiz-adv-x="712" d="M129 504q-8 43 10.5 80t57.5 39l217 -13q49 23 127 23q88 0 217 -31q25 -88 -25 -145q-43 -23 -112 -23q-35 0 -102.5 7.5t-96.5 7.5q-23 0 -80 -6.5t-86 -6.5q-98 0 -127 68z" />
<glyph unicode="&#xb0;" horiz-adv-x="499" d="M111 1343q0 70 49 119t119 49t118.5 -49t48.5 -119t-49 -118.5t-118 -48.5q-70 0 -119 49t-49 118zM184 1341q0 -43 30 -72.5t71 -29.5t70.5 29.5t29.5 72.5q0 41 -29.5 71t-70.5 30t-71 -30t-30 -71z" />
<glyph unicode="&#xb4;" horiz-adv-x="567" d="M272 1079q0 27 70 78q90 66 121 105q141 180 223 180q53 -1 92 -62q27 -41 27 -75q0 -61 -86 -105q-27 -12 -158 -57q-49 -16 -129 -72q-68 -45 -98 -45q-27 0 -51 27q-10 14 -11 26z" />
<glyph unicode="&#xb6;" horiz-adv-x="985" d="M90 1430q0 39 6 73q-2 18 -2 35q0 168 223 301q133 49 336 55h355q47 -8 47 -69q0 -21 -8 -76q-20 -18 -119 -25q-80 -6 -94 -67q8 -274 8 -559q0 -283 -8 -561q23 -63 22 -164v-64q-2 -43 -2 -63q0 -61 8 -105q39 -78 8 -178q-10 -23 -34 -31q-16 -4 -45 -2l-43 4 q-37 29 -37 76q0 25 15 80t13 82q10 176 11 381q0 211 -13 567q-16 418 -18 566q-12 35 -86 55q-43 0 -90 -4t-64 -51l-12 -136q8 -133 8 -297q0 -111 -5 -333t-5 -334q0 -338 41 -584q-4 -41 -78 -68q-76 31 -76 134q0 27 8 94q6 59 5 86q27 250 8 749q-23 37 -142 119 q-98 68 -104 150q-37 63 -37 164z" />
<glyph unicode="&#xc6;" horiz-adv-x="2207" d="M51 27q86 39 127 61q70 37 121 80q123 180 356 549q86 123 172 244q96 147 97 270q-92 109 -289 108q-29 0 -64 -2q-45 25 -45 62q0 18 15 33l47 20q219 -8 659 -20l21 12q119 -12 422 -2q268 10 421 -21q23 -33 38.5 -125t37.5 -129q8 -76 -30 -90q-82 76 -166 154 q-100 84 -195 98q-84 25 -205 25q-41 0 -126 -4t-128 -4q-18 -27 -34 -54q-20 -33 -21 -57q0 -23 16 -43q8 -35 9 -74q0 -43 -14.5 -124t-14.5 -117q0 -76 37 -136q213 0 256 9q137 23 194 129q4 27 17 61q20 55 22 61q27 0 39 -18q-4 -57 0 -152q2 -125 2 -153 q0 -166 -33 -268q-25 18 -47 122q-16 86 -174 146q-20 0 -84 6q-55 6 -88 6q-94 0 -143 -43q18 -334 -8 -506q39 -82 94 -106q117 -16 223 -17q414 0 590 238q29 57 76 47q16 -12 14 -47l-2 -47l-88 -242q-102 -8 -262 -4q-264 4 -262 4h-766q-20 29 -21 29q0 8 8 18 q23 16 127 23q84 4 103 67q0 250 22 336q0 23 -11 64t-11 59q0 16 4 29l-21 26l-399 -8q-43 -20 -79 -87.5t-66 -86.5q-10 -45 -90 -149q-76 -96 -76 -148q0 -53 59 -96q12 -14 37 -14h18q14 2 19 2q29 0 33 -33l-39 -39q-66 14 -223 4q-147 -10 -220 12q0 6 -5 22.5 t-3 29.5zM750 735q0 -33 28 -41q190 18 291 -8q39 35 47 107q-14 66 -14 206q0 135 -17 205h-16q-96 -145 -307 -432q-12 -16 -12 -37z" />
<glyph unicode="&#xe0;" d="M100 223q0 20 2 41q88 164 293 201q16 4 154 35q92 20 145 49q-2 88 -6 174q-10 96 -72 141q-59 31 -151 4q-49 -61 -98 -120q-61 -72 -125 -72q-12 0 -25 2q-47 20 -84 63q-4 14 -4 29q0 66 61 115q18 12 121 69q174 25 250 25q53 0 103 -8l106 -47q86 -102 86 -273 q0 -55 -11 -170.5t-11 -171.5q0 -76 12 -133q68 -68 90 -67q16 0 35 12l67 55q8 -16 9 -31q0 -29 -35 -71q-43 -53 -49 -68q-70 -29 -162 -22q-20 10 -62 65q-33 45 -61 45q-18 0 -39 -12q-111 -100 -268 -100q-92 0 -166 41q-104 57 -105 200zM272 1305q0 35 27 75 q39 61 92 62q82 0 223 -180q31 -39 121 -105q70 -51 70 -78q0 -12 -10 -26q-25 -27 -52 -27q-31 0 -98 45q-80 55 -129 72q-131 45 -158 57q-86 43 -86 105zM324 158q20 -33 63 -60q35 -12 70 -12q111 0 219 127l10 205l-18 26q-199 -25 -297 -102q-53 -72 -47 -184z" />
<glyph unicode="&#xe1;" d="M100 223q0 20 2 41q88 164 293 201q16 4 154 35q92 20 145 49q-2 88 -6 174q-10 96 -72 141q-59 31 -151 4q-49 -61 -98 -120q-61 -72 -125 -72q-12 0 -25 2q-47 20 -84 63q-4 14 -4 29q0 66 61 115q18 12 121 69q174 25 250 25q53 0 103 -8l106 -47q86 -102 86 -273 q0 -55 -11 -170.5t-11 -171.5q0 -76 12 -133q68 -68 90 -67q16 0 35 12l67 55q8 -16 9 -31q0 -29 -35 -71q-43 -53 -49 -68q-70 -29 -162 -22q-20 10 -62 65q-33 45 -61 45q-18 0 -39 -12q-111 -100 -268 -100q-92 0 -166 41q-104 57 -105 200zM272 1079q0 27 70 78 q90 66 121 105q141 180 223 180q53 -1 92 -62q27 -41 27 -75q0 -61 -86 -105q-27 -12 -158 -57q-49 -16 -129 -72q-68 -45 -98 -45q-27 0 -51 27q-10 14 -11 26zM324 158q20 -33 63 -60q35 -12 70 -12q111 0 219 127l10 205l-18 26q-199 -25 -297 -102q-53 -72 -47 -184z " />
<glyph unicode="&#xe2;" d="M100 223q0 20 2 41q88 164 293 201q16 4 154 35q92 20 145 49q-2 88 -6 174q-10 96 -72 141q-59 31 -151 4q-49 -61 -98 -120q-61 -72 -125 -72q-12 0 -25 2q-47 20 -84 63q-4 14 -4 29q0 66 61 115q18 12 121 69q174 25 250 25q53 0 103 -8l106 -47q86 -102 86 -273 q0 -55 -11 -170.5t-11 -171.5q0 -76 12 -133q68 -68 90 -67q16 0 35 12l67 55q8 -16 9 -31q0 -29 -35 -71q-43 -53 -49 -68q-70 -29 -162 -22q-20 10 -62 65q-33 45 -61 45q-18 0 -39 -12q-111 -100 -268 -100q-92 0 -166 41q-104 57 -105 200zM324 158q20 -33 63 -60 q35 -12 70 -12q111 0 219 127l10 205l-18 26q-199 -25 -297 -102q-53 -72 -47 -184z" />
<glyph unicode="&#xe3;" d="M100 223q0 20 2 41q88 164 293 201q16 4 154 35q92 20 145 49q-2 88 -6 174q-10 96 -72 141q-59 31 -151 4q-49 -61 -98 -120q-61 -72 -125 -72q-12 0 -25 2q-47 20 -84 63q-4 14 -4 29q0 66 61 115q18 12 121 69q174 25 250 25q53 0 103 -8l106 -47q86 -102 86 -273 q0 -55 -11 -170.5t-11 -171.5q0 -76 12 -133q68 -68 90 -67q16 0 35 12l67 55q8 -16 9 -31q0 -29 -35 -71q-43 -53 -49 -68q-70 -29 -162 -22q-20 10 -62 65q-33 45 -61 45q-18 0 -39 -12q-111 -100 -268 -100q-92 0 -166 41q-104 57 -105 200zM324 158q20 -33 63 -60 q35 -12 70 -12q111 0 219 127l10 205l-18 26q-199 -25 -297 -102q-53 -72 -47 -184z" />
<glyph unicode="&#xe4;" d="M100 223q0 20 2 41q88 164 293 201q16 4 154 35q92 20 145 49q-2 88 -6 174q-10 96 -72 141q-59 31 -151 4q-49 -61 -98 -120q-61 -72 -125 -72q-12 0 -25 2q-47 20 -84 63q-4 14 -4 29q0 66 61 115q18 12 121 69q174 25 250 25q53 0 103 -8l106 -47q86 -102 86 -273 q0 -55 -11 -170.5t-11 -171.5q0 -76 12 -133q68 -68 90 -67q16 0 35 12l67 55q8 -16 9 -31q0 -29 -35 -71q-43 -53 -49 -68q-70 -29 -162 -22q-20 10 -62 65q-33 45 -61 45q-18 0 -39 -12q-111 -100 -268 -100q-92 0 -166 41q-104 57 -105 200zM324 158q20 -33 63 -60 q35 -12 70 -12q111 0 219 127l10 205l-18 26q-199 -25 -297 -102q-53 -72 -47 -184z" />
<glyph unicode="&#xe6;" horiz-adv-x="1425" d="M100 168q0 74 86 152.5t240 119.5q131 33 260 66q18 45 19 94q0 117 -95 234q-20 14 -47 14q-18 0 -49 -7t-41 -7q-47 -70 -94 -138q-66 -76 -143 -67q-23 2 -43 30q-35 45 -35 46q-10 102 125 184q127 59 252 59q174 0 262 -119q39 -6 84 33q57 49 73 56q76 31 156 30 q170 0 299 -129q68 -147 68 -196q0 -47 -25 -88q-51 -8 -115 -9q-59 0 -180 11.5t-178 11.5q-45 0 -84 -6q-47 -25 -47 -60q0 -20 24.5 -67t24.5 -74q0 -10 -2 -20q51 -174 285 -238q18 -6 37 -6q49 0 135 59q80 55 133 45q-12 -88 -152 -174q-137 -39 -207 -39 q-57 0 -108 17q-94 31 -209 153q-39 4 -82 -37q-51 -51 -72 -57q-39 -55 -125 -65q-76 -4 -151 -11q-14 -2 -27 -2q-63 0 -129 49q-55 49 -110 99q-12 27 -13 53zM358 199q27 -86 68 -115q80 -8 98 -8q84 0 131 55q55 41 56 143q-1 31 -9 99q0 68 -96 55q-80 -41 -157 -84 q-84 -59 -91 -145zM887 637q51 -18 145 -19q80 0 160 3q45 -2 53 49q2 41 2 82l-47 47q-29 29 -55 35q-78 23 -133.5 -4t-90 -81.5t-34.5 -111.5z" />
<glyph unicode="&#xe8;" horiz-adv-x="897" d="M106 430q-8 129 46 250q61 131 176 192q84 94 231 95q94 0 173 -43t114 -119q25 -51 49 -100q29 -59 29 -107q0 -20 -4 -41l-48 -20q-4 0 -276 10q-164 6 -268 2q-31 -29 -31 -80q0 -20 8 -76q8 -47 6 -74q113 -238 262 -243q33 -4 64 -4q152 0 244 110q14 4 29.5 -6 t15.5 -22q0 -11 -6 -19q-106 -172 -351 -172q-45 0 -88 6q-152 43 -258 174t-117 287zM272 1305q0 35 27 75q39 61 92 62q82 0 223 -180q31 -39 121 -105q70 -51 70 -78q0 -12 -10 -26q-25 -27 -52 -27q-31 0 -98 45q-80 55 -129 72q-131 45 -158 57q-86 43 -86 105z M332 692q0 -16 4 -33q43 -33 119 -38h123q129 -1 149 81q-10 14 -20 66q-8 41 -35 57q-78 45 -148 45q-41 0 -73 -16q-37 -35 -74 -72q-45 -45 -45 -90z" />
<glyph unicode="&#xe9;" horiz-adv-x="897" d="M106 430q-8 129 46 250q61 131 176 192q84 94 231 95q94 0 173 -43t114 -119q25 -51 49 -100q29 -59 29 -107q0 -20 -4 -41l-48 -20q-4 0 -276 10q-164 6 -268 2q-31 -29 -31 -80q0 -20 8 -76q8 -47 6 -74q113 -238 262 -243q33 -4 64 -4q152 0 244 110q14 4 29.5 -6 t15.5 -22q0 -11 -6 -19q-106 -172 -351 -172q-45 0 -88 6q-152 43 -258 174t-117 287zM272 1079q0 27 70 78q90 66 121 105q141 180 223 180q53 -1 92 -62q27 -41 27 -75q0 -61 -86 -105q-27 -12 -158 -57q-49 -16 -129 -72q-68 -45 -98 -45q-27 0 -51 27q-10 14 -11 26z M332 692q0 -16 4 -33q43 -33 119 -38h123q129 -1 149 81q-10 14 -20 66q-8 41 -35 57q-78 45 -148 45q-41 0 -73 -16q-37 -35 -74 -72q-45 -45 -45 -90z" />
<glyph unicode="&#xea;" horiz-adv-x="897" d="M106 430q-8 129 46 250q61 131 176 192q84 94 231 95q94 0 173 -43t114 -119q25 -51 49 -100q29 -59 29 -107q0 -20 -4 -41l-48 -20q-4 0 -276 10q-164 6 -268 2q-31 -29 -31 -80q0 -20 8 -76q8 -47 6 -74q113 -238 262 -243q33 -4 64 -4q152 0 244 110q14 4 29.5 -6 t15.5 -22q0 -11 -6 -19q-106 -172 -351 -172q-45 0 -88 6q-152 43 -258 174t-117 287zM332 692q0 -16 4 -33q43 -33 119 -38h123q129 -1 149 81q-10 14 -20 66q-8 41 -35 57q-78 45 -148 45q-41 0 -73 -16q-37 -35 -74 -72q-45 -45 -45 -90z" />
<glyph unicode="&#xeb;" horiz-adv-x="897" d="M106 430q-8 129 46 250q61 131 176 192q84 94 231 95q94 0 173 -43t114 -119q25 -51 49 -100q29 -59 29 -107q0 -20 -4 -41l-48 -20q-4 0 -276 10q-164 6 -268 2q-31 -29 -31 -80q0 -20 8 -76q8 -47 6 -74q113 -238 262 -243q33 -4 64 -4q152 0 244 110q14 4 29.5 -6 t15.5 -22q0 -11 -6 -19q-106 -172 -351 -172q-45 0 -88 6q-152 43 -258 174t-117 287zM332 692q0 -16 4 -33q43 -33 119 -38h123q129 -1 149 81q-10 14 -20 66q-8 41 -35 57q-78 45 -148 45q-41 0 -73 -16q-37 -35 -74 -72q-45 -45 -45 -90z" />
<glyph unicode="&#x152;" horiz-adv-x="2201" d="M92 698q0 311 199 525q211 223 643 223q90 0 272.5 -11.5t268.5 -11.5q104 0 186 13q20 16 76 0l362 -4q74 -193 68 -355q-8 -16 -23 -16q-8 0 -24.5 8t-20.5 8q-147 254 -514 254q-92 0 -201 -16q-55 -31 -59 -115v-139v-307q27 -23 68 -23q18 0 58 7t58 7q16 0 29 -4 q170 23 217 174q4 27 9 54.5t38 23.5q29 10 41 -30l-4 -246q25 -35 6.5 -119t16.5 -125q-8 -6 -19 -47q-8 -31 -37 -29q-39 2 -47 45t-12 82q-31 113 -160 131q-113 8 -223 15l-39 -39q14 -74 2 -283q-10 -180 27 -274l69 -47q143 8 287 16q168 14 268 57q133 57 205 183 q12 20 62 20q28 -49 8 -131q2 -31 -25.5 -76t-27.5 -73q0 -16 6 -35q-18 -49 -86 -49q-12 0 -52 2q-31 4 -45 2l-477 8q-14 14 -35 14q-12 0 -39.5 -8t-39.5 -6q-246 0 -490 -2q-309 4 -481 78q-229 102 -305 362q-63 145 -64 309zM322 725q0 -541 313 -668q94 -14 160 -14 q209 0 292 145q49 143 50 355q0 49 -3.5 146t-3.5 147q1 65 3 118q-18 29 -23.5 105t-32.5 104l-67 97q-98 53 -224 53q-129 0 -219 -62q-96 -47 -198 -258q-23 -43 -26 -136t-21 -132z" />
<glyph unicode="&#x153;" horiz-adv-x="1574" d="M104 336q-8 315 138 459q166 135 354 135q117 0 211 -60l92 -88q49 0 111.5 61.5t109.5 61.5q88 14 150 15q186 0 272 -125q53 -80 53 -197q0 -39 -6 -76q-70 -8 -157 -8q-51 0 -211 6q-129 6 -207 2q-14 -23 -15 -53q0 -23 13.5 -78t11.5 -86q68 -166 221 -221 q31 -12 62 -12q57 0 149 65.5t154 61.5q18 -15 18 -68q-12 -43 -71.5 -60.5t-65.5 -54.5q-78 -66 -201 -65q-115 0 -254 57q-12 6 -57 60q-35 39 -64 38q-12 0 -24 -6q-129 -147 -311 -147q-59 0 -119 16q-123 14 -225 131q-88 100 -132 236zM301 403q0 -45 16 -90 q18 -25 26.5 -95.5t41.5 -94.5q113 -90 225 -90q25 0 52 4q55 29 77 43q41 26 64 63q47 104 47 232q0 121 -47 301q-37 74 -106.5 118t-149.5 35q-156 -33 -201 -161q0 -49 -22.5 -134t-22.5 -131zM1034 631q0 -16 10 -33q29 2 105 -2q72 -2 111 0q59 5 100 25q18 88 -8 131 q-41 76 -140 75q-94 0 -137 -71q0 -23 -20.5 -64t-20.5 -61z" />
<glyph unicode="&#x2000;" horiz-adv-x="1128" />
<glyph unicode="&#x2001;" horiz-adv-x="2257" />
<glyph unicode="&#x2002;" horiz-adv-x="1128" />
<glyph unicode="&#x2003;" horiz-adv-x="2257" />
<glyph unicode="&#x2004;" horiz-adv-x="752" />
<glyph unicode="&#x2005;" horiz-adv-x="564" />
<glyph unicode="&#x2006;" horiz-adv-x="376" />
<glyph unicode="&#x2007;" horiz-adv-x="376" />
<glyph unicode="&#x2008;" horiz-adv-x="282" />
<glyph unicode="&#x2009;" horiz-adv-x="451" />
<glyph unicode="&#x200a;" horiz-adv-x="125" />
<glyph unicode="&#x2010;" horiz-adv-x="712" d="M129 504q-8 43 10.5 80t57.5 39l217 -13q49 23 127 23q88 0 217 -31q25 -88 -25 -145q-43 -23 -112 -23q-35 0 -102.5 7.5t-96.5 7.5q-23 0 -80 -6.5t-86 -6.5q-98 0 -127 68z" />
<glyph unicode="&#x2011;" horiz-adv-x="712" d="M129 504q-8 43 10.5 80t57.5 39l217 -13q49 23 127 23q88 0 217 -31q25 -88 -25 -145q-43 -23 -112 -23q-35 0 -102.5 7.5t-96.5 7.5q-23 0 -80 -6.5t-86 -6.5q-98 0 -127 68z" />
<glyph unicode="&#x2012;" horiz-adv-x="712" d="M129 504q-8 43 10.5 80t57.5 39l217 -13q49 23 127 23q88 0 217 -31q25 -88 -25 -145q-43 -23 -112 -23q-35 0 -102.5 7.5t-96.5 7.5q-23 0 -80 -6.5t-86 -6.5q-98 0 -127 68z" />
<glyph unicode="&#x2013;" horiz-adv-x="1300" d="M135 514q0 18 8 35q31 39 90 39q27 0 84.5 -10.5t83.5 -10.5q29 0 50 6h747q29 -57 19 -114q-27 -35 -82 -37q72 4 -88 4q-131 14 -287 14q-92 0 -282.5 -7t-295.5 -7q-47 53 -47 88z" />
<glyph unicode="&#x2014;" horiz-adv-x="2293" d="M100 496q0 20 9 47l47 39h968q563 2 955 16q41 -8 84 -14q46 -12 69 -41q0 -72 -71 -115q-35 -12 -76 -12q-31 0 -96.5 10t-96.5 10q-190 0 -891 8q-559 6 -874 0q-27 14 -27 52z" />
<glyph unicode="&#x2018;" horiz-adv-x="503" d="M123 1237q14 102 98 203q45 57 170 168l51 -9q2 -12 2 -22q0 -49 -67 -100q-78 -57 -92 -99q0 -43 64.5 -132t64.5 -132q0 -55 -78 -98q-16 0 -47 -7.5t-45 -7.5q-25 0 -45 15q-59 23 -66 96q-6 63 -10 125z" />
<glyph unicode="&#x2019;" horiz-adv-x="530" d="M123 1047q10 33 80 110q61 68 61 121q0 18 -6 37q-31 25 -61 49q-39 31 -54 66q-6 94 47 161q47 37 103 37q114 0 153 -115q4 -27 5 -53q0 -162 -166 -358q-23 -6 -59 -44t-58 -38q-20 0 -45 27z" />
<glyph unicode="&#x201c;" d="M123 1206q0 84 70 185q59 82 120 161q82 86 158 78q14 -29 14 -51q0 -37 -74.5 -89t-70.5 -112q43 -55 86 -108q51 -68 51 -127q0 -29 -10 -58q-76 -70 -160 -69q-31 0 -59 10q-33 20 -65.5 43t-45.5 53q-14 43 -14 84zM578 1186q0 164 165 358q23 6 60 47q35 35 55 35 t45 -27q-10 -33 -80 -110q-61 -68 -61 -121q0 -16 6 -35q31 -25 61 -51q41 -31 54 -63q8 -96 -47 -162q-45 -37 -101 -37q-115 0 -153 113q-4 27 -4 53z" />
<glyph unicode="&#x201d;" horiz-adv-x="978" d="M123 1047q10 33 80 110q61 68 61 121q0 18 -6 37q-31 25 -61 49q-39 31 -54 66q-6 94 47 161q47 37 103 37q114 0 153 -115q4 -27 5 -53q0 -162 -166 -358q-23 -6 -59 -44t-58 -38q-20 0 -45 27zM541 1067q0 37 75.5 90t69.5 111q-43 55 -86 108q-49 70 -49 129 q0 27 10 58q76 68 160 67q29 0 59 -8q31 -23 65 -45t44 -53q14 -41 14 -82q0 -86 -67 -187q-61 -82 -121 -161q-82 -86 -158 -76q-16 27 -16 49z" />
<glyph unicode="&#x2022;" horiz-adv-x="4730" d="M-100 1706q27 66 53 131q37 76 102 92q23 16 70 41q-4 -211 76 -307l41 -35l8 6q-20 119 -92 346l4 15q94 63 289 188q49 -33 124 -41q23 -2 134 -4q4 -29 -2 -76q-6 -59 -7 -77q0 -29 7 -54q-4 -8 -21 -8h-20q-10 -4 -9 -20q4 -113 31 -344q4 -8 12 -9q6 0 18.5 9.5 t16.5 11.5q8 16 25 18q4 -32 4 -102q-115 -238 -447 -225q-117 6 -221 67q-113 68 -159 172zM389 1544l2 -8q51 -27 119 -27q41 0 88 11l8 10q-14 119 -43 360q8 35 -28 35q-12 0 -21 -6l23 -285q-20 -25 -70 -47q-59 -31 -78 -43zM731 356q0 8 8.5 21.5t22.5 9.5 q8 47 6 129q-4 94 0 129q6 82 12 162q6 94 27 156q12 41 51 41q18 0 25 -13q29 -51 57 -100q31 -59 41 -113q4 -33 4 -71q0 -31 -4 -89.5t-4 -87.5q0 -39 6 -71q70 12 125 12q174 0 264 -117q0 -10 4 -26q51 -61 51 -115q0 -49 -45 -49q-14 0 -44.5 13t-45.5 13 q-29 0 -37 -18q-2 -6 0 -37q2 -27 -10 -29q-111 -16 -102 -16q-25 0 -56.5 12.5t-54.5 12.5q-49 0 -99 -47.5t-83 -47.5q-18 0 -35 13q-53 45 -70 145q-6 90 -14 178zM774 1892q0 35 14 58q41 2 41 20q0 -2 -4 80q-4 47 13 68q102 27 301 98l16 -16q-4 -111 14 -224 q6 -10 27 -9t27 -7l6 -148q-6 -10 -32 -10t-28 -22q6 -25 7 -64v-30.5v-30.5q0 -104 59 -133l-102 -242l-23 -2q-147 80 -250 115q-14 12 -10 32q6 33 6 35q-10 57 -12 160q-2 115 -6 158q-14 16 -52 14q-12 119 -12 100zM1290 2218l10 14q61 -4 160 6q121 12 158 15 q6 -59 0 -178q-4 -119 2 -174l6 -9q41 63 125 191q90 -58 283 -156q-37 -264 -23 -481q-37 -61 -76 -123q-51 -68 -116 -78q-139 -51 -322 -102q-10 8 -10 20q51 29 100 58q57 37 82 86q27 80 27 100q0 25 -10 45q-55 -43 -156 -170q-49 23 -115 70q-53 39 -106 80 q6 86 6 188q0 111 -10 299q-12 227 -15 299zM1376 911q0 88 58 123q8 4 16 4q25 0 47.5 -32.5t30.5 -65.5q25 -117 47 -233q31 -135 82 -222q29 -41 55 -82q31 -49 31 -86q0 -27 -17.5 -52t-60.5 -27q8 0 -76 2q-10 0 -15 17t-7 19q-63 86 -68 93q-35 55 -41 106 q-8 12 -20 35q-43 86 -43 219q0 27 -9.5 89.5t-9.5 92.5zM1618 1782q0 -158 16 -197q6 -2 19.5 -11t21.5 -9q7 0 11 6q-4 20 2 102q2 63 -19 96q-6 0 -19.5 8.5t-19.5 8.5t-12 -4zM1722 918q0 41 21 73q2 4 16 4t21 -4q41 -37 80 -125q43 -94 73 -127q33 51 119 146 q8 20 31 53q27 27 46 91.5t48 86.5q12 10 37 10q27 -2 31 -22.5t4 -40.5q0 -37 -15 -86q-23 -70 -24 -84q-6 -23 -2 -86q2 -55 -8 -82q-18 -47 -48 -160q-27 -102 -53 -155q-47 -98 -69 -95q-66 14 -123 107q-70 113 -109 137q12 23 12 47q0 29 -22 78q-29 57 -33 80 q-33 143 -33 154zM2079 1878q0 14 12 25l111 196q43 -20 112 -71q78 -57 109 -76q-14 -51 -19 -137q-2 -72 -6 -144q16 -14 34.5 -28.5t33.5 -14.5q6 0 10 2q-2 29 0 82q4 70 4 86q0 86 -33 133l183 158l12 -4l154 -154q-23 -121 -29 -327q31 -23 31 -52q0 -23 -17 -41 l-74 -159q-74 41 -221 121q-2 20 -16 57q-37 -29 -76 -84q-35 -45 -67 -90q-92 70 -238 143q16 45 20 103q4 39 0 108q-4 78 -2 109q-2 6 -16 30q-12 18 -12 29zM2331 461q0 33 2 67q-2 135 26 215q0 18 2 52q12 57 25 114q16 66 41 109q14 23 35 22q14 0 20 -14 q16 -37 10 -102q-6 -74 0 -103q6 0 144 -28q86 -18 145 -19q31 0 62 4q4 -4 2 -14q-10 -8 -11 -12q6 -12 5 -15q-23 -29 -37 -26q-86 6 -109 4t-35 -40t-26 -36q-127 2 -146 72q-2 4 -8 2q-4 -2 -6 -6q-20 -76 6 -109q10 -12 35 -23q37 -14 43 -16q27 -14 78 -24 q72 -12 84 -17q-8 -10 2 -14q6 2 10 12q6 -4 4 -16.5t4 -14.5q2 0 15 25q2 -2 -5 -18q0 -2 5 -3q12 2 21 -7t13 -9q20 0 64 12q-8 8 -4 17q6 -14 12 -10q12 8 23.5 34.5t19.5 30.5q35 18 53 18q21 0 29 -20q6 -16 -39 -66q4 -20 -4 -47q-8 2 -19 -4q-2 -14 11 -16l16 8 q-37 -23 -6 -57q-8 0 -14 -4q0 -4 10 -12.5t8 -14.5q-14 -31 -51 -39q-4 0 -66 -6q-70 -6 -209 -14q-29 0 -85 -14.5t-82 -14.5q-27 0 -46.5 9t-29.5 56q-12 55 -28.5 78t-18.5 64zM2497 1063q0 43 57 43q39 0 65 -27q2 -2 2 -4l2 2q-2 8 5 19q-2 -6 3 -14.5t7 -10.5 q10 4 10 12q6 -12 10 -16q6 -6 17 2q-4 -20 2 -22q4 2 10 12q2 -8 10 -17q6 2 10 11q4 -10 13 -11q6 2 8 7q2 -6 6 -9q8 -4 31 7l-4 8l5 -5t7 -6q6 2 8 9q0 -6 6 -13q10 0 29 15q-4 -8 10 -8q12 6 10 22q-6 4 -2 12q-2 -6 5 -14q12 -2 20 8t16 19q2 -4 4 -9q8 0 10.5 8.5 t4.5 8.5q41 10 70.5 -11.5t29.5 -37.5q0 -11 -10 -21q-20 -14 -41 -43q-16 -20 -31 -43q-45 -55 -131 -55q-63 0 -151 31q-23 6 -47.5 13t-30.5 30q-2 4 8 12t-2 16q-10 0 -27 8q-35 31 -34 62zM2693 1085q4 0 2 -6q-4 0 -2 6zM2749 1068q-5 -1 1 3q4 -2 -1 -3zM2767 1069 q0 2 4 2l2 -2q-4 -2 -6 0zM2802 1071l2 -6q-2 0 -2 6zM2900 1442q16 156 20 401q2 201 5 402q145 -6 319 12l6 -6l-39 -637l41 -43l-104 -279q-80 51 -248 150zM2984 270q0 59 57 60q31 0 80 -11q57 -10 68 -24q8 12 24 12q16 -2 33 -4q6 2 12 12q6 -12 17 -10q27 4 37 4 q-4 -2 -9 -4q2 -6 15 -12q8 2 14 18q49 -18 59 -6q10 10 -14 10l23 11q2 -10 -7.5 -21.5t-9.5 -15.5q0 -6 14.5 -9.5t43.5 -5.5q8 10 32 19q-6 8 -6 18q0 8 7.5 23.5t7.5 21.5q0 10 -19 15q-27 6 -51 -27q-8 6 -18 6q-8 0 -22.5 -8t-23.5 -8q-10 0 -20 8q20 2 49 18 q2 4 -9 8.5t-11 10.5q-14 -4 -13 -12q-20 23 -20 26q0 2 5 7.5t48 25.5q31 14 41 33q6 12 6 26q0 33 -33 64q-18 29 -71 74q-16 -2 -41 6q-49 53 -133 170q-8 12 -13 43q-18 131 191 182q23 6 125 2q80 -4 108 25q57 51 111 45q20 -2 33.5 -27t7.5 -33q-27 -43 -113 -65 l-143 -35q-12 -4 -66 -59q-2 -4 -2 -9q0 -4 5.5 -14t5.5 -16t-7 -15q-4 -2 21 -10q-4 0 -8 -4q0 -10 14 -12q-8 0 -8 -4q0 -2 3 -6.5t3 -6.5t-4 -2q-8 2 -25 4q-31 -2 -2 -16q6 2 15 0q2 0 10 -2q-2 -4 -2 -6l-8 8q-10 2 -17 -4q8 -63 80 -137q25 -27 37 -27q-2 -18 4 -23 q123 -68 123 -124q0 -43 -36 -80t-124 -176q-14 -23 -59 -27q-31 -4 -115 -23q-72 -14 -115 -14q-61 0 -122 39q-70 43 -70 100zM3092 342q0 8 11.5 21.5t13.5 20.5t12 3q0 -6 6.5 -9t88.5 -13q16 2 47 4q-18 -6 -47 -4q-92 -6 -127 -35q-4 6 -5 12zM3281 1438 q25 152 35 387q6 199 14 397l10 12q59 -8 158 -6q121 2 160 0q0 -59 -14.5 -177t-12.5 -173l6 -10q45 59 140 180q86 -63 268 -178q-57 -260 -62 -477q-43 -57 -86 -117q-57 -63 -123 -68q-143 -39 -329 -75q-8 10 -8 22q53 25 104 49q59 31 88 78q35 82 35 107q0 18 -6 36 q-57 -39 -170 -155q-47 27 -107 78q-51 45 -100 90zM3404 852q2 10 8 -4l2 -2q-12 2 -10 6zM3414 838h2q6 -5 0 -7q-2 0 -2 7zM3414 905q4 -6 6 -6q0 6 -4 6l4 -2zM3418 872q2 0 4 -6q-6 2 -4 6q0 4 4 9q4 -5 2 -7q-2 0 -6 -2zM3529 8q0 4 2 9.5t14 5.5q6 -1 2 -13 q0 -6 -18 -2zM3574 76q6 14 14 4q-2 -6 -10 -10q-4 2 -4 6zM3596 133l2 10q20 -8 41 4l-8 15q35 18 33 45q25 -10 33 6q-2 4 -11 8l4 12q8 2 18.5 -6t14.5 -8q6 0 11 4q6 6 -3.5 25.5t-3.5 19.5q10 0 13 -14v-21q2 -10 8 -14q8 -2 16 2q0 16 2 19q12 6 19 6q29 0 24 -49 q8 4 8 10q6 -2 18.5 -7t4.5 -12q-10 -8 -10 -12q4 -14 10 -14q2 0 16 8q10 6 19 0q12 -6 4 -12q-35 -25 -35 -27q0 -6 4 -12q23 20 33 2q4 -10 -6 -12t-23 0q-4 -2 -8 -11q4 -18 27 -18q33 -2 41 -7.5t2 -13.5q-8 -6 -17 -6q-6 0 -24.5 10.5t-30.5 8.5t-14 -9q0 -18 26 -22 q-2 -2 2 -14q-2 -4 -8 -9l-18 9q-10 6 -21 0q4 -2 0 -27l-12 4q6 8 -2 12q-23 14 -35 -4q2 -8 -2 -26q-10 -12 -18 0q-4 6 -2 18v19q-2 6 -15 6q-8 -2 -13 -17.5t-11 -15.5q-14 0 -15 12q0 4 8.5 10.5t8.5 10.5q2 18 -31 24q-10 2 -23.5 -19.5t-29.5 -21.5l-10 8 q4 12 24.5 22.5t22.5 18.5q8 16 -25 39q-4 2 8.5 11.5t12.5 19.5q-2 10 -13 8q-2 0 -20 -6q-12 -6 -21 0zM3617 1563q6 -2 20.5 -12.5t22.5 -10.5q4 0 10 4q-4 27 4 72q8 53 8 72q0 31 -14 55q-6 2 -19.5 11t-19.5 9q-4 0 -10 -4q-14 -158 -2 -196zM3772 381q66 147 93 246 q6 2 12 10q27 68 41 166q8 84 16 170q39 18 49 82q12 80 26.5 100.5t41.5 -0.5q16 -10 18 -32.5t2 -41.5q6 -35 13 -69q4 -41 -8 -70q-10 4 -15 -4q-14 -33 -12 -49q0 2 0 -152q0 -61 -16 -82q4 16 -3 21q-20 -31 -36 -125q0 -31 -15 -90q-12 -29 -23.5 -95.5t-29.5 -99.5 q-14 -8 -29 -41q-10 8 -20 29.5t-21.5 28t-40.5 18.5q2 6 5 10q0 4 -33 29q-23 18 -15 41zM4063 1438q31 59 37 155q6 82 10 164q0 6 -10 26.5t-10 31.5q0 14 14 26l129 187q41 -25 105 -82q72 -66 102 -86q-20 -51 -33 -136q-10 -72 -18 -143q16 -16 36.5 -34.5t37.5 -12.5 q0 31 10 100.5t10 104.5q0 57 -22 98l196 139l12 -6l138 -168q-33 -115 -58 -321q27 -25 27 -51q0 -23 -21 -44l-90 -151q-70 47 -209 141q0 20 -10 58q-41 -25 -84 -76q-37 -41 -76 -84q-86 78 -223 164z" />
<glyph unicode="&#x202f;" horiz-adv-x="451" />
<glyph unicode="&#x205f;" horiz-adv-x="564" />
<glyph unicode="&#xe000;" horiz-adv-x="921" d="M0 0v922h922v-922h-922z" />
</font>
</defs>
</svg>
