<?xml version="1.0" standalone="no"?>
<!DOCTYPE svg PUBLIC "-//W3C//DTD SVG 1.1//EN" "http://www.w3.org/Graphics/SVG/1.1/DTD/svg11.dtd" >
<svg xmlns="http://www.w3.org/2000/svg">
<metadata></metadata>
<defs>
<font id="vonnesregular" horiz-adv-x="1931" >
<font-face units-per-em="2048" ascent="1638" descent="-410" />
<missing-glyph horiz-adv-x="684" />
<glyph horiz-adv-x="2048" />
<glyph horiz-adv-x="2048" />
<glyph unicode="&#xd;" horiz-adv-x="684" />
<glyph unicode=" "  horiz-adv-x="684" />
<glyph unicode="&#x09;" horiz-adv-x="684" />
<glyph unicode="&#xa0;" horiz-adv-x="684" />
<glyph unicode="!" horiz-adv-x="716" d="M121 1597h483l-65 -1116h-359zM127 -20v434h473v-434h-473z" />
<glyph unicode="&#x22;" horiz-adv-x="1138" d="M49 1602h490l-66 -553h-369zM602 1602h488l-66 -553h-367z" />
<glyph unicode="#" horiz-adv-x="1357" d="M27 461l39 264h340l16 119h-334l43 282h332l67 471h156l-65 -471h208l68 471h160l-68 -471h322l-43 -282h-318l-16 -119h311l-41 -264h-309l-68 -481h-157l65 481h-209l-67 -481h-160l70 481h-342zM563 725h209l19 119h-211z" />
<glyph unicode="$" horiz-adv-x="1527" d="M15 466.5q-1 20.5 3 45.5l471 51q0 -43 5.5 -80t21.5 -66.5t47 -50t82 -30.5v319q-150 35 -260.5 74t-184 94.5t-109.5 131t-36 182.5q0 111 44 193.5t122 138t186.5 86t237.5 38.5v60h186v-60q131 -8 231.5 -38.5t173.5 -80t120 -116t71 -141.5q4 -14 7.5 -44t7.5 -65 l-467 -53q-10 29 -17.5 53.5t-17.5 46.5q-27 57 -109 82v-260q172 -31 294 -74t199 -101.5t111.5 -137t34.5 -179.5q0 -102 -32.5 -189t-107.5 -153.5t-196.5 -107.5t-302.5 -49v-107h-186v111q-272 18 -438 125.5t-191 314.5q0 16 -1 36.5zM494 1139q0 -18 5 -35t20.5 -31 t46 -26.5t79.5 -24.5v225q-90 -10 -120.5 -38.5t-30.5 -69.5zM831 326q98 10 137.5 47t39.5 90t-39 88t-138 57v-282z" />
<glyph unicode="%" horiz-adv-x="2668" d="M45 1085q0 264 145.5 388t423.5 124q276 0 424 -121.5t148 -390.5q0 -254 -149 -383t-423 -129q-293 0 -431 129t-138 383zM449 1085q0 -133 46 -180t119 -47q76 0 122 48t46 179t-46 179.5t-122 48.5q-78 0 -121.5 -48t-43.5 -180zM723 -23l934 1618h278l-934 -1618 h-278zM1485 485q0 264 145.5 388t423.5 124q274 0 423 -122.5t149 -389.5q0 -256 -149 -385t-423 -129q-293 0 -431 130t-138 384zM1888 485q0 -66 12.5 -109.5t34 -70t52 -37t67.5 -10.5q74 0 121 50t47 177q0 131 -46 179.5t-122 48.5q-78 0 -122 -48.5t-44 -179.5z" />
<glyph unicode="&#x26;" horiz-adv-x="1818" d="M59 463q0 98 29 175t82 138.5t128 110.5t165 90q-35 59 -55.5 126.5t-20.5 129.5q0 106 52.5 179t134 117t180 62.5t188.5 18.5t181 -20.5t164 -65.5t118 -116t45 -171q0 -74 -28.5 -134.5t-76 -109.5t-108.5 -86t-129 -63q35 -53 76 -104.5t82 -100.5q23 20 53.5 54 t63 74t61.5 82t49 81l256 -230q-23 -45 -55.5 -94t-69.5 -95t-72.5 -86t-64.5 -69q18 -23 61 -64.5t96.5 -84.5t114 -77t115.5 -42l-553 -113q-18 2 -43 14.5t-51.5 31t-50 37t-39.5 32.5q-78 -57 -197 -90t-283 -33q-141 0 -251.5 36t-187.5 100.5t-118 156.5t-41 203z M537 502q0 -88 60 -136.5t157 -48.5q82 0 153 41q-20 23 -54 64t-69 88q-39 47 -73.5 93t-53.5 77q-121 -63 -120 -178zM864 1212q0 -27 12.5 -58.5t32.5 -63.5q78 29 104.5 60.5t26.5 72.5q0 35 -21.5 54t-62.5 19t-66.5 -22.5t-25.5 -61.5z" />
<glyph unicode="'" horiz-adv-x="575" d="M43 1602h487l-63 -553h-367z" />
<glyph unicode="(" horiz-adv-x="870" d="M63 623q0 244 67 424t165 301.5t209.5 189.5t200.5 88l63 -391q-39 -16 -86 -63.5t-87 -124t-66.5 -183t-26.5 -241.5q0 -139 29.5 -251t71.5 -193t90 -131t85 -64l-65 -396q-115 27 -229.5 111t-209 217t-153 312.5t-58.5 394.5z" />
<glyph unicode=")" horiz-adv-x="870" d="M92 -14q39 14 87 64t89 131t70 191.5t29 248.5q0 137 -28 243.5t-68 183t-87 124t-84 63.5l66 391q104 -20 217 -97t207 -206t154.5 -306t60.5 -396q0 -240 -64.5 -421.5t-162 -308.5t-211 -201.5t-211.5 -101.5z" />
<glyph unicode="*" horiz-adv-x="1196" d="M82 983l227 115l-225 110l158 277l215 -142l-17 254h320l-17 -249l209 139l160 -277l-229 -112l231 -117l-162 -274l-209 139l17 -254h-320l17 256l-215 -141z" />
<glyph unicode="+" horiz-adv-x="1021" d="M33 504v309h319v344h314v-344h321v-309h-321v-344h-314v344h-319z" />
<glyph unicode="," horiz-adv-x="747" d="M133 -20v440h483v-432q0 -57 -30.5 -108.5t-80.5 -91.5t-114.5 -65.5t-132.5 -33.5l-111 137q88 27 121 70t37 84h-172z" />
<glyph unicode="-" horiz-adv-x="1107" d="M125 567v373h858v-373h-858z" />
<glyph unicode="." horiz-adv-x="747" d="M131 -20v440h485v-440h-485z" />
<glyph unicode="/" horiz-adv-x="886" d="M-127 -389l668 1984h372l-665 -1984h-375z" />
<glyph unicode="0" horiz-adv-x="1726" d="M74 774q0 231 54 390t156.5 257.5t248 141.5t327.5 43q205 0 351.5 -53.5t240.5 -158t137 -259t43 -359.5q0 -197 -43 -347t-136 -252.5t-240.5 -155t-356.5 -52.5q-182 0 -327.5 47t-247 145.5t-154.5 251t-53 361.5zM590 805q0 -127 17.5 -215t51 -143.5t83 -80 t114.5 -24.5q70 0 119 24.5t79.5 79t45 141.5t14.5 210q0 131 -15.5 218t-46 140t-78 75.5t-110.5 22.5q-68 0 -119 -21.5t-85.5 -73.5t-52 -138t-17.5 -215z" />
<glyph unicode="1" horiz-adv-x="1034" d="M51 979v336q154 31 269.5 104.5t168.5 177.5h373v-1617h-502v1097q-29 -18 -65.5 -33.5t-78.5 -27.5t-84 -21.5t-81 -15.5z" />
<glyph unicode="2" horiz-adv-x="1738" d="M74 -20q2 180 50 315t134 235.5t206 172t261 126.5q119 45 188.5 79t104.5 65t45 60.5t10 70.5q0 74 -47 104.5t-141 30.5q-106 0 -162.5 -32.5t-73.5 -119.5q-2 -20 -2 -42.5v-61.5l-555 -37q-4 33 -5 64.5t3 62.5q20 158 92 261.5t177.5 165t237.5 86t275 24.5 q160 0 300.5 -30t243 -91.5t161.5 -155.5t59 -221q0 -113 -26.5 -202t-96 -157.5t-187.5 -121.5t-300 -96q-145 -53 -217 -92.5t-102 -80.5h915v-382h-1548z" />
<glyph unicode="3" horiz-adv-x="1685" d="M51 479q0 27 2 53.5t6 59.5l535 -19q0 -35 -3 -53t-1 -33q2 -45 15 -75.5t43 -49t76 -25.5t116 -7q57 0 97 8t64.5 28.5t35 57.5t10.5 92q0 92 -54.5 129t-156.5 37h-383v340h331q70 0 114 7t68.5 22.5t34 40t9.5 59.5q0 45 -38 68.5t-145 23.5q-96 0 -149 -23.5 t-60 -76.5q-2 -8 -1 -22.5t6 -37.5l-537 -12q-14 111 15.5 193t87 142t138.5 99t169 61.5t177 32t165 9.5q123 0 252 -21.5t234.5 -73t172 -135.5t66.5 -209q0 -123 -41 -196.5t-127 -110.5q98 -41 152.5 -130t54.5 -234q0 -147 -60.5 -249t-166 -164t-252 -89t-318.5 -27 q-209 0 -352.5 37t-231.5 104.5t-128 161t-42 207.5z" />
<glyph unicode="4" horiz-adv-x="1753" d="M68 264v377l708 956h662l2 -929h223v-400h-221v-288h-506v284h-868zM614 668h320v415v19l-6 -8q-6 -6 -8 -15z" />
<glyph unicode="5" horiz-adv-x="1695" d="M53 539l510 24q12 -119 72.5 -180t193.5 -61t187.5 55t54.5 184q0 123 -55 174t-195 51q-57 0 -95 -8t-62.5 -24.5t-39 -40t-26.5 -51.5l-487 20l69 915h1381l-88 -360h-906l-14 -172q92 41 183 58.5t206 17.5q139 0 263 -30t217.5 -97.5t147.5 -174t54 -259.5 q0 -162 -51 -278t-149.5 -189.5t-241 -108.5t-326.5 -35q-172 0 -312.5 24.5t-242.5 79t-163.5 140.5t-76.5 209q-4 25 -4 52.5t-4 64.5z" />
<glyph unicode="6" horiz-adv-x="1679" d="M69 783q1 69 1 112q2 186 67.5 320.5t176 221.5t258 128t313.5 41q154 0 273.5 -33t203.5 -88t134 -129t67 -156q6 -20 9 -43.5t7 -52.5l-500 -27q-6 16 -13 31.5t-17 32.5q-20 59 -61.5 87.5t-127.5 28.5q-111 0 -176.5 -63.5t-85.5 -216.5q72 41 171 60.5t200 19.5 q143 0 262 -28t204 -88t132 -156.5t47 -235.5q0 -160 -60.5 -269.5t-163 -179t-239.5 -100.5t-293 -31q-176 0 -319.5 44t-246 130t-160.5 214t-62 298q-2 59 -1 128zM596 518q0 -109 61.5 -152.5t171.5 -43.5q129 0 182.5 46t53.5 152q0 109 -55.5 151t-180.5 42t-179 -43 t-54 -152z" />
<glyph unicode="7" horiz-adv-x="1556" d="M4 1214v383h1544v-159q-14 -98 -42.5 -187.5t-84 -184.5t-143.5 -202.5t-219 -242.5q-45 -66 -84 -131.5t-68.5 -141.5t-48 -166t-20.5 -202h-631q0 178 49 323.5t130 273.5t186.5 242.5t220.5 229.5q49 49 88 90t63 75h-940z" />
<glyph unicode="8" horiz-adv-x="1642" d="M53 496q0 299 205 387q-72 41 -124 115.5t-52 172.5q0 117 59.5 200t160.5 136.5t237.5 78t289.5 24.5q127 0 255 -20.5t231.5 -72t169 -138.5t65.5 -218q0 -104 -45 -173.5t-116 -106.5q86 -39 142 -131.5t56 -243.5q0 -150 -67.5 -252t-176 -165.5t-248 -92.5 t-282.5 -29t-279.5 29t-243 91.5t-172 162.5t-65.5 246zM598 504q0 -98 49 -136t174 -38q68 0 112 9t70.5 29.5t38 54.5t11.5 81q0 100 -50.5 137t-183.5 37q-66 0 -107.5 -8t-67.5 -28.5t-36 -53.5t-10 -84zM612 1137q0 -70 43 -104t164 -34q119 0 160 34t41 106t-41 102.5 t-160 30.5q-63 0 -103 -7.5t-63.5 -23.5t-32 -41.5t-8.5 -62.5z" />
<glyph unicode="9" horiz-adv-x="1710" d="M68 1036q0 160 59 269.5t161.5 176t240 96.5t290.5 30q158 0 298 -33t245.5 -111t171 -204.5t76.5 -315.5q0 -20 1 -52t1 -68v-71.5v-62.5q0 -205 -63.5 -343t-171 -222t-253 -120t-307.5 -36q-324 0 -495.5 114t-206.5 306q-6 20 -8.5 43t-4.5 45l508 21q4 -12 6 -28.5 t9 -29.5q23 -70 70.5 -96.5t140.5 -26.5q117 0 176 62.5t75 224.5q-80 -41 -169 -60.5t-197 -19.5q-139 0 -258 28t-207 89t-138 158.5t-50 236.5zM618 1057q0 -109 57.5 -152t155.5 -43q109 0 165.5 43t56.5 152t-56.5 152.5t-167.5 43.5q-115 0 -163 -45t-48 -151z" />
<glyph unicode=":" horiz-adv-x="745" d="M135 -20v440h475v-440h-475zM135 717v440h475v-440h-475z" />
<glyph unicode=";" horiz-adv-x="745" d="M135 -20v440h479v-428q0 -55 -28.5 -107.5t-77.5 -93.5t-114.5 -67.5t-139.5 -32.5l-109 137q80 18 116 64.5t44 87.5h-170zM135 717v440h479v-440h-479z" />
<glyph unicode="&#x3c;" horiz-adv-x="825" d="M78 563v271l651 503v-469l-233 -174l229 -168v-465z" />
<glyph unicode="=" horiz-adv-x="1019" d="M119 203v370h782v-370h-782zM119 678v371h782v-371h-782z" />
<glyph unicode="&#x3e;" horiz-adv-x="817" d="M92 862v471l653 -504v-270l-649 -502v463l230 170z" />
<glyph unicode="?" horiz-adv-x="1558" d="M61 1049q0 33 1 65.5t4 42.5q14 123 71.5 212t148.5 147.5t215 86t271 27.5q160 0 289 -27.5t219 -85t138 -142.5t48 -201q0 -90 -21.5 -155t-63.5 -112t-103 -83.5t-141 -71.5q-43 -27 -72 -47.5t-46.5 -39t-26.5 -38t-11 -43.5q0 -4 -1 -15.5t-2 -27t-1 -30.5v-26h-434 v32t1 39t1 35.5v22.5q6 106 70.5 200.5t197.5 172.5q55 31 88 55.5t51.5 49t24.5 52t6 66.5q0 43 -37 73t-141 30q-92 0 -161 -43t-81 -137q-2 -10 -2 -42v-67zM530 -20v434h474v-434h-474z" />
<glyph unicode="@" horiz-adv-x="1665" d="M43 786q0 201 56.5 354.5t159.5 258t249.5 158t325.5 53.5q180 0 328.5 -45t256 -135.5t167 -226.5t59.5 -320q0 -123 -29 -214t-80 -151.5t-124 -90.5t-161 -30q-98 0 -157.5 29t-87.5 84q-49 -47 -119 -75.5t-182 -28.5q-152 0 -240 66.5t-88 195.5q0 78 32.5 129 t85 82.5t116 48t124.5 22.5q74 8 122 16.5t97 22.5q-2 14 -8 25.5t-21.5 18.5t-42 11.5t-71.5 4.5q-55 0 -104.5 -19.5t-77.5 -54.5q-10 -10 -16.5 -24.5t-10.5 -26.5l-180 151q12 14 15 16.5t3 4.5l6 6q2 4 4.5 7t6.5 7q53 70 155.5 112t251.5 42q199 0 297.5 -80 t98.5 -201v-315q0 -18 12 -30.5t37 -12.5q59 0 85.5 52t26.5 173q0 145 -43 248.5t-119.5 170t-185 97.5t-239.5 31t-236.5 -40t-180.5 -117t-115 -189.5t-40 -257.5q0 -160 44 -276.5t121 -194.5t182.5 -116t228.5 -38q102 0 181 15.5t140.5 40t107.5 58.5t81 70l129 -163 q-53 -55 -116 -98.5t-139.5 -72t-171 -43t-210.5 -14.5q-176 0 -321.5 53.5t-252 157t-165 256t-58.5 352.5zM705 696q0 -27 25.5 -42t70.5 -15q113 0 143 59q2 10 4 34t2 42q-20 -2 -40.5 -4t-43.5 -6q-57 -4 -89 -10t-48 -14.5t-20 -19.5t-4 -24z" />
<glyph unicode="A" horiz-adv-x="1708" d="M-25 -20l603 1617h557l598 -1617h-519l-102 294h-516l-98 -294h-523zM721 627h268l-108 336q-2 16 -10.5 40.5t-14.5 40.5l-2 13l-4 -10q-4 -18 -12.5 -42t-10.5 -42z" />
<glyph unicode="B" horiz-adv-x="1792" d="M131 -20v1617h995q94 0 190.5 -17t173.5 -61t126 -122t49 -199q0 -100 -37 -185t-115 -132q100 -47 163 -139.5t63 -245.5q0 -100 -29 -193.5t-99.5 -165t-190.5 -114.5t-304 -43h-985zM629 352h381q123 0 167 37t44 127q0 88 -47.5 118t-165.5 30h-379v-312zM629 1010 h354q88 0 122 33.5t34 86.5q0 55 -33 79t-129 24h-348v-223z" />
<glyph unicode="C" horiz-adv-x="1710" d="M74 805q0 217 57 371.5t162.5 252t255 142.5t334.5 45q180 0 315 -38t230.5 -112.5t152.5 -185.5t82 -256l-547 -51q-14 72 -33.5 121t-48 79.5t-68.5 45t-94 14.5q-70 0 -121 -21.5t-84.5 -74t-51 -137.5t-17.5 -212q0 -131 19.5 -217t55.5 -138t86 -73.5t109 -21.5 q55 0 96.5 11t72 42t51 84t32.5 137l535 -53q-27 -147 -82 -260t-147.5 -187.5t-226.5 -112.5t-318 -38q-385 2 -596 209t-211 635z" />
<glyph unicode="D" horiz-adv-x="1808" d="M131 -20v1617h832q176 0 318 -38.5t241.5 -133t154 -255t54.5 -402.5q0 -197 -39 -344.5t-132.5 -245.5t-248 -148t-385.5 -50h-795zM641 354h248q68 0 125 16.5t99 62.5t65.5 130t23.5 219q0 143 -26.5 231.5t-69.5 136.5t-96.5 63.5t-106.5 15.5h-262v-875z" />
<glyph unicode="E" horiz-adv-x="1560" d="M131 -20v1617h1391l-113 -374h-782v-224h733v-364h-733v-275h819l133 -380h-1448z" />
<glyph unicode="F" horiz-adv-x="1505" d="M131 -20v1617h1407l-121 -374h-776v-217h727v-377h-727v-649h-510z" />
<glyph unicode="G" horiz-adv-x="1775" d="M74 807q0 205 60.5 356.5t167 252t251.5 150.5t315 50q156 0 284 -30t226.5 -95.5t167 -171t105.5 -256.5l-553 -51q-29 102 -80 166.5t-152 64.5q-280 0 -280 -454q0 -234 70.5 -350.5t240.5 -116.5q78 0 159 28.5t122 81.5v182h-281l4 340h770v-700 q-55 -59 -134 -111.5t-177 -93.5t-214 -64.5t-243 -23.5q-410 0 -619.5 209t-209.5 637z" />
<glyph unicode="H" horiz-adv-x="1808" d="M131 -20v1617h510v-561h526v561h510v-1617h-510v671h-526v-671h-510z" />
<glyph unicode="I" horiz-adv-x="772" d="M131 -20v1617h510v-1617h-510z" />
<glyph unicode="J" horiz-adv-x="1540" d="M18 608l512 86q-4 -35 -4 -72.5v-54.5q20 -133 68.5 -181t136.5 -48q109 0 150 66.5t41 213.5v979h520v-958q0 -678 -731 -678q-332 0 -512.5 154.5t-180.5 492.5z" />
<glyph unicode="K" horiz-adv-x="1812" d="M131 -20v1617h510v-518l16 27l562 491h630l-624 -565l635 -1052h-609l-424 725l-186 -150v-575h-510z" />
<glyph unicode="L" horiz-adv-x="1513" d="M131 -20v1617h510v-1232h758l129 -385h-1397z" />
<glyph unicode="M" horiz-adv-x="2205" d="M131 -20v1617h610l328 -763l3 -14q3 -15 8 -37.5t10.5 -49t11.5 -51.5q6 25 11 51.5t10 49t8.5 37t3.5 16.5l327 761h613v-1617h-490v768l2 40q-12 -35 -12 -43l-275 -765h-389l-280 768q0 4 -10 34l2 -34v-768h-492z" />
<glyph unicode="N" horiz-adv-x="1824" d="M131 -20v1617h524l500 -739q0 -4 15.5 -29.5t31.5 -54.5l-4 107v716h498v-1617h-522l-502 776q0 4 -13.5 24.5t-27.5 42.5l-6 11v-78v-776h-494z" />
<glyph unicode="O" horiz-adv-x="1806" d="M74 803q0 215 58 369.5t167 253t262.5 144.5t341.5 46q186 0 340 -44t263.5 -141.5t169 -252t59.5 -375.5q0 -213 -59.5 -372t-168 -263.5t-262.5 -155.5t-342 -51t-341.5 48t-262.5 150.5t-167 262.5t-58 381zM592 797q0 -131 20.5 -219.5t60.5 -141.5t98 -75.5 t132 -22.5t131.5 23.5t97 77t61 141.5t21.5 217q0 127 -22.5 211t-64.5 134t-99 70.5t-125 20.5q-70 0 -127 -20.5t-98 -70.5t-63.5 -134t-22.5 -211z" />
<glyph unicode="P" horiz-adv-x="1714" d="M131 -20v1617h979q137 0 243.5 -25.5t180.5 -85t111.5 -155.5t37.5 -235q0 -135 -34.5 -231.5t-102 -159t-165 -91t-222.5 -28.5h-518v-606h-510zM639 948h354q92 0 126 30t34 103q0 78 -33 112t-123 34h-358v-279z" />
<glyph unicode="Q" horiz-adv-x="1753" d="M70 803q0 231 64.5 387t175 251t257 135t310.5 40q190 0 339.5 -46t253 -146.5t157.5 -258t54 -381.5q0 -211 -56 -366.5t-165 -243.5q18 -20 62.5 -53t94.5 -67t96 -62.5t71 -38.5l-334 -252q-6 2 -32.5 19.5t-64.5 43t-82 57.5t-85 63.5t-74 59t-49 46.5 q-84 -23 -184 -23q-385 2 -597 209t-212 627zM590 799q0 -246 65.5 -354.5t218.5 -108.5q53 0 106.5 13t95.5 60.5t67.5 139.5t25.5 252q0 236 -70 335t-222 99q-76 0 -130.5 -23.5t-89 -75t-51 -135t-16.5 -202.5z" />
<glyph unicode="R" horiz-adv-x="1767" d="M131 -20v1617h1043q123 0 221 -32.5t167.5 -96t106.5 -153.5t37 -203q0 -166 -73.5 -272.5t-235.5 -149.5l323 -710h-549l-299 669h-233v-669h-508zM637 1008h369q96 0 127.5 29.5t31.5 78.5q0 57 -31.5 84t-134.5 27h-362v-219z" />
<glyph unicode="S" horiz-adv-x="1697" d="M35 451.5v50.5l612 61q4 -25 5 -52.5t10 -51.5q20 -57 78.5 -95t174.5 -38q117 0 170.5 37.5t53.5 95.5q0 37 -8.5 63.5t-37 47t-82 38t-141.5 33.5q-76 14 -165 26.5t-177 31t-170 48t-145 80t-101 124t-38 182.5q0 125 52 216t149.5 150.5t238.5 88t320 28.5 q119 0 238.5 -18.5t223 -67.5t180 -134t111.5 -216q2 -6 3 -16.5t5 -35.5l-561 -61q0 6 -3 21.5t-6 33t-7 32.5t-8 20q-23 35 -69 58t-128 23q-109 0 -150.5 -28.5t-41.5 -69.5q0 -23 8 -41t35.5 -34.5t83 -32t151.5 -27.5q43 -6 85 -14.5t79 -12.5q154 -23 270.5 -60.5 t196.5 -95t120 -137t40 -184.5q0 -135 -45.5 -238.5t-143.5 -172t-254 -104.5t-375 -36q-393 0 -592.5 113t-240.5 336q-4 16 -4 35.5z" />
<glyph unicode="T" horiz-adv-x="1501" d="M12 1221v376h1477v-376h-488v-1244h-509v1244h-480z" />
<glyph unicode="U" horiz-adv-x="1728" d="M106 643v954h502v-944q0 -160 56.5 -231.5t193.5 -71.5q131 0 184.5 69.5t53.5 244.5v933h501v-979q0 -147 -37.5 -268t-124.5 -206t-228.5 -132t-346.5 -47q-213 0 -356.5 45t-232.5 131t-127 212t-38 290z" />
<glyph unicode="V" horiz-adv-x="1624" d="M-25 1597h535l291 -837q0 -2 3 -17.5t9 -37t12 -48t13 -51.5l8 37q10 43 19 78t9 39l265 837h512l-535 -1617h-577z" />
<glyph unicode="W" horiz-adv-x="2351" d="M-23 1597h519q55 -207 113.5 -417.5t111.5 -421.5l6 -25l6 21l17 61q4 12 6 20.5t2 12.5l198 749h445l215 -761q4 -16 12 -43t12 -43l7 -17l4 15q55 215 108 422.5t109 426.5h504l-453 -1617h-485l-215 714q-4 23 -11.5 45.5t-15.5 44.5l-4 17q-8 -25 -17.5 -52.5 t-13.5 -54.5l-219 -717l-481 3z" />
<glyph unicode="X" horiz-adv-x="1646" d="M-29 -20l568 819l-529 798h596l203 -321q0 -4 5 -15.5t12.5 -23.5t13.5 -24.5t10 -18.5q2 6 9 18.5t13.5 24.5t11.5 23.5t5 15.5l221 321h545l-541 -772l555 -845h-600l-219 366l-4 8t-6 11l-19 36l-10 23l-10 -21l-21 -34q-4 -6 -5 -10.5t-3 -8.5l-242 -370h-559z" />
<glyph unicode="Y" horiz-adv-x="1656" d="M-31 1597h586l244 -501q4 -12 14 -33t16 -35q4 -8 13 -29l12 29l18 45q4 6 6.5 10t2.5 9l239 505h570l-598 -1091v-526h-525v532z" />
<glyph unicode="Z" horiz-adv-x="1591" d="M39 -23v312l827 932h-794v376h1478v-333l-790 -899h778v-388h-1499z" />
<glyph unicode="[" horiz-adv-x="868" d="M63 -389v1986h740v-372h-305v-1245h303v-369h-738z" />
<glyph unicode="\" horiz-adv-x="886" d="M-25 1595h373l666 -1984h-375z" />
<glyph unicode="]" horiz-adv-x="868" d="M57 -20h305v1245h-305v372h738v-1986h-738v369z" />
<glyph unicode="^" horiz-adv-x="1087" d="M41 1022l264 575h475l264 -575h-430l-71 213l-74 -213h-428z" />
<glyph unicode="_" horiz-adv-x="923" d="M-20 -51h964v-328h-964v328z" />
<glyph unicode="`" horiz-adv-x="827" d="M131 1559h383l166 -390h-324z" />
<glyph unicode="a" horiz-adv-x="1413" d="M39 330q0 94 39 159.5t106.5 108.5t161.5 67.5t205 39.5q82 10 136 16t86 10t44 11.5t12 21.5t-5 26.5t-21.5 22.5t-48 16.5t-86.5 6.5q-98 0 -166 -33t-115 -98l-266 172q84 123 223 189.5t354 66.5q133 0 237.5 -27t175.5 -83t107.5 -146.5t36.5 -217.5v-284 q0 -66 14.5 -82.5t35.5 -20.5q10 -4 32.5 -4t48.5 4v-272q-53 -14 -125.5 -22.5t-140.5 -8.5q-98 0 -156.5 35t-89.5 86q-76 -59 -179 -91t-218 -32q-94 0 -175 19.5t-139.5 62.5t-91 112.5t-32.5 168.5zM487 346q0 -47 29 -66.5t88 -19.5q90 0 139.5 25.5t71.5 66.5 q4 6 7 22.5t5 36t4.5 38t2.5 28.5q-49 -10 -102.5 -12t-90.5 -8q-86 -12 -120 -41t-34 -70z" />
<glyph unicode="b" horiz-adv-x="1411" d="M119 -20v1617h432v-553q53 41 127 65t168 24q115 0 208 -33t159.5 -103.5t102.5 -182.5t36 -267q0 -158 -41 -267.5t-111 -179t-164 -100.5t-198 -31q-78 0 -160 19.5t-143 62.5v-71h-416zM547 553q0 -49 3 -102.5t19.5 -96.5t54.5 -70.5t107 -27.5q88 0 137.5 67.5 t49.5 227.5q0 88 -14.5 145.5t-39 89t-58.5 44t-73 12.5q-68 0 -105.5 -27t-56 -68.5t-21.5 -93t-3 -100.5z" />
<glyph unicode="c" horiz-adv-x="1351" d="M59 551q0 307 164 444.5t465 137.5q115 0 218.5 -23t186.5 -75t140 -138t80 -211l-439 -37q-23 117 -66.5 155t-115.5 38q-43 0 -78.5 -13.5t-61.5 -47t-40 -90t-14 -142.5q0 -84 14 -138.5t41 -88t63.5 -47t79.5 -13.5q72 0 119 49t64 178l438 -36q-27 -258 -186 -371 t-435 -113q-326 0 -481.5 139.5t-155.5 442.5z" />
<glyph unicode="d" horiz-adv-x="1417" d="M61 553q0 162 42 272.5t111 178t160 96t189 28.5q84 0 162 -21.5t139 -62.5v553h432v-1617h-426v75q-51 -35 -129.5 -59.5t-173.5 -24.5q-117 0 -210 34t-159.5 105.5t-101.5 181t-35 261.5zM498 549q0 -88 13 -144.5t37.5 -90t58.5 -47t77 -13.5q68 0 105.5 27.5 t54 70.5t19.5 95.5t3 101.5q0 41 -1 71.5t-3 55.5q-8 86 -53 127t-123 41q-92 0 -140 -65.5t-48 -229.5z" />
<glyph unicode="e" horiz-adv-x="1341" d="M59 553q0 158 47.5 268.5t131.5 179t199.5 100.5t250.5 32q143 0 258 -40t194 -123q78 -83 118 -211q38 -122 38 -287v-17h-807q16 -119 64.5 -163t132.5 -44q74 0 111 35.5t51 117.5l438 -43q-23 -88 -67.5 -159.5t-117.5 -122.5t-175.5 -79t-239.5 -28 q-317 0 -472 142.5t-155 441.5zM502 711h362q-18 82 -60 114.5t-112 32.5q-82 0 -127 -38t-63 -109z" />
<glyph unicode="f" horiz-adv-x="829" d="M29 795v323h157v131q0 156 100.5 252t293.5 96h247v-329h-114q-94 0 -95 -74v-76h211v-323h-211v-815h-436v815h-153z" />
<glyph unicode="g" horiz-adv-x="1411" d="M57 551q0 172 46.5 283.5t120 177t168.5 91t194 25.5q98 0 164.5 -23.5t113.5 -60.5v78h428v-952q0 -115 -22.5 -217.5t-90 -180t-190 -122.5t-321.5 -45q-221 0 -375 54t-219 181l182 203q45 -74 138 -116t239 -42q111 0 166 41t67 121q4 6 8 29q-45 -41 -119.5 -66.5 t-181.5 -25.5q-115 0 -210 32.5t-162.5 101t-105.5 176t-38 257.5zM494 551q0 -86 15 -141.5t40.5 -87t60.5 -44t72 -12.5q63 0 99 26.5t53.5 67.5t21.5 92.5t4 98.5v40.5t-2 33.5q-10 127 -58 174t-118 47q-92 0 -140 -65.5t-48 -229.5z" />
<glyph unicode="h" horiz-adv-x="1441" d="M119 -20v1617h434v-575q59 53 144 82t196 29q227 0 329.5 -111t102.5 -334v-708h-432v661q0 170 -152 170q-80 0 -133 -46t-55 -128v-59v-89.5v-106.5v-114v-288h-434z" />
<glyph unicode="i" horiz-adv-x="675" d="M117 1202v367h446v-367h-446zM121 -20v1142h432v-1142h-432z" />
<glyph unicode="j" horiz-adv-x="677" d="M-8 -74h82q29 0 41 15.5t12 64.5v1116h434v-1212q0 -154 -88 -226.5t-254 -72.5q-61 0 -125.5 2t-101.5 16v297zM121 1202v367h448v-367h-448z" />
<glyph unicode="k" horiz-adv-x="1378" d="M119 -20v1617h434v-751l307 276h559l-403 -360l418 -782h-488l-270 501l-123 -98v-403h-434z" />
<glyph unicode="l" horiz-adv-x="669" d="M119 -20v1617h434v-1617h-434z" />
<glyph unicode="m" horiz-adv-x="2181" d="M119 -20v1142h434v-102q63 51 146 80.5t200 29.5q104 0 188 -34.5t138 -106.5q70 68 165 104.5t246 36.5q98 0 177 -24.5t134.5 -79.5t85 -142t29.5 -210v-694h-432v657q0 84 -30.5 129t-116.5 45q-47 0 -81 -15.5t-57.5 -39t-36 -53t-12.5 -56.5v-667h-409v657 q0 82 -34 128t-116 46q-47 0 -80.5 -15.5t-57.5 -38t-35 -51t-11 -55.5v-671h-434z" />
<glyph unicode="n" horiz-adv-x="1441" d="M119 -20v1142h434v-102q66 53 148.5 83t193.5 30q225 0 327.5 -110t102.5 -335v-708h-432v661q0 92 -39 131t-111 39q-78 0 -132 -45t-58 -129q0 -20 -1 -59t-1 -89.5v-106.5v-114q0 -133 2 -288h-434z" />
<glyph unicode="o" horiz-adv-x="1386" d="M59 551q0 293 156 437.5t479 144.5q633 0 633 -582q0 -293 -162 -437.5t-473 -144.5q-322 0 -477.5 144.5t-155.5 437.5zM496 551q0 -86 15 -142.5t41 -88t61.5 -45t78.5 -13.5t80 13.5t63.5 46t42 89t15.5 140.5q0 86 -15.5 142.5t-41 89t-62.5 46t-80 13.5t-79.5 -13.5 t-63.5 -47t-41 -89t-14 -141.5z" />
<glyph unicode="p" horiz-adv-x="1413" d="M119 -389v1511h430v-80q53 41 128 64.5t171 23.5q115 0 208 -32.5t158.5 -102t101.5 -181.5t36 -267q0 -158 -40 -267.5t-107.5 -178t-159 -99.5t-193.5 -31q-82 0 -161 17.5t-138 58.5v-436h-434zM547 553q0 -49 2 -100.5t19.5 -93.5t54 -68.5t106.5 -26.5 q94 0 141.5 64.5t47.5 222.5q0 88 -13.5 145.5t-37 89t-57.5 44t-75 12.5q-70 0 -107.5 -27t-56 -67.5t-21.5 -93t-3 -101.5z" />
<glyph unicode="q" horiz-adv-x="1415" d="M61 553q0 158 40 268.5t107.5 179t159 99t193.5 30.5t174 -21.5t131 -66.5v80h428v-1511h-430v446q-53 -41 -130 -64.5t-169 -23.5q-115 0 -208 33t-158.5 103.5t-101.5 181t-36 266.5zM498 545q0 -88 14 -145.5t38.5 -90.5t59.5 -46t76 -13q66 0 102.5 27.5t54 70.5 t20.5 95.5t3 99.5q0 74 -6 123q-10 94 -56 135t-118 41q-94 0 -141 -67.5t-47 -229.5z" />
<glyph unicode="r" horiz-adv-x="1009" d="M119 -20v1142h434v-116q68 66 159 94t216 28h53v-376q-33 10 -82 19t-76 9q-66 0 -111.5 -14t-76.5 -39t-50.5 -58.5t-31.5 -72.5v-616h-434z" />
<glyph unicode="s" horiz-adv-x="1228" d="M0 332l369 106q0 -2 1 -9t3 -17t4 -27q35 -74 98.5 -101.5t134.5 -27.5q88 0 116 18.5t28 53.5q0 18 -4.5 33.5t-19.5 26.5t-45 20.5t-81 19.5q-80 14 -178 28.5t-185 49.5t-146.5 98.5t-59.5 175.5q0 76 41 140.5t116.5 111.5t183 74t240.5 27q111 0 198 -17.5 t153.5 -50.5t116 -78t83.5 -102q4 -4 5.5 -7.5t3.5 -5.5l4 -6q0 -2 2 -5t16 -21l-379 -123q-4 10 -7 18t-5 19q-33 53 -77 73.5t-118 20.5q-82 0 -103.5 -19.5t-21.5 -44.5q0 -12 5.5 -22t27 -19.5t64.5 -18.5t116 -19q47 -6 100.5 -16.5t94.5 -18.5q150 -31 237 -107 t87 -227q0 -102 -49.5 -173t-131.5 -114t-188.5 -62.5t-220.5 -19.5q-256 0 -409.5 74t-207.5 227l2 -4q-8 14 -10 32.5t-4 35.5z" />
<glyph unicode="t" horiz-adv-x="860" d="M4 795v323h166v236l436 129v-365h191v-323h-191v-404q0 -53 14.5 -71.5t45.5 -18.5h120v-319q-25 -4 -59.5 -6.5t-71.5 -4.5t-71.5 -3t-55.5 -1q-190 0 -274 94.5t-84 294.5v439h-166z" />
<glyph unicode="u" horiz-adv-x="1435" d="M104 412v710h435v-667q0 -92 36.5 -131t112.5 -39q80 0 134.5 47t56.5 127v372v291h434v-1142h-434v94q-59 -47 -145.5 -76t-196.5 -29q-227 0 -330 109.5t-103 333.5z" />
<glyph unicode="v" horiz-adv-x="1296" d="M-31 1122h465l199 -544q0 -4 2 -12.5t6 -18.5l18 -68l7 -26q23 88 46 166.5t49.5 158.5t55.5 164t60 180h448l-442 -1142h-463z" />
<glyph unicode="w" horiz-adv-x="2007" d="M-29 1122h461l150 -516q0 -4 9 -35.5t19 -68.5l6 -29l9 29q10 35 18 66.5t8 35.5l162 518h418l160 -518q0 -4 8 -34.5t18 -67.5l6 -25l9 27q10 35 18 66.5t8 35.5l154 516h422l-404 -1142h-436l-172 540q0 2 -3 10.5t-6 17.5t-5 13l-4 12l-4 -8q-3 -8 -7 -17t-7 -17.5 t-3 -10.5l-172 -540h-440z" />
<glyph unicode="x" horiz-adv-x="1372" d="M-35 -20l441 595l-412 547h512l123 -186q4 -8 8 -12l16 -29q4 -4 6.5 -8t4.5 -8q4 8 19 29.5t17 25.5l125 188h510l-391 -549l461 -593h-531l-157 223q-4 8 -8 14l-15 29l-4 10l-6 -10q-4 -8 -12 -22.5t-10 -22.5l-152 -221h-545z" />
<glyph unicode="y" horiz-adv-x="1294" d="M-25 1122h463l215 -592q0 -4 1 -11t3 -17l11 -41q6 27 11 47t5 24l195 590h442q-113 -283 -203 -518q-39 -100 -76.5 -201.5t-69.5 -188.5t-54.5 -152.5t-30.5 -96.5q-39 -92 -86 -158.5t-109.5 -111.5t-141.5 -66.5t-181 -21.5q-63 0 -110.5 4t-84.5 12t-67.5 21.5 t-57.5 29.5l82 318q49 -41 104.5 -54.5t98.5 -13.5q29 0 56.5 16.5t43.5 55.5z" />
<glyph unicode="z" horiz-adv-x="1257" d="M43 -20v262l520 555h-504v325h1121v-270l-545 -551h571v-321h-1163z" />
<glyph unicode="{" horiz-adv-x="919" d="M35 457v358q74 0 118 7t65.5 21.5t27.5 37t6 53.5v229q0 137 35 222t107.5 132.5t185 63.5t268.5 16v-360q-47 0 -82 -7t-58.5 -24.5t-36 -50.5t-12.5 -84v-235q0 -61 -23.5 -114.5t-82.5 -82.5q59 -27 80.5 -75t21.5 -95v-276q0 -78 11.5 -122t35 -67.5t60.5 -30 t86 -6.5v-356q-160 0 -273.5 20.5t-184.5 64.5t-103.5 113.5t-32.5 167.5v332q0 37 -9 64.5t-33 46t-67 28t-110 9.5z" />
<glyph unicode="|" horiz-adv-x="686" d="M150 -389v1995h387v-1995h-387z" />
<glyph unicode="}" horiz-adv-x="919" d="M66 -33q49 0 85.5 6.5t60.5 30t35 67.5t11 122v274q0 47 20.5 96t81.5 76q-59 29 -81.5 82t-22.5 115v235q0 51 -12.5 84t-36 50.5t-59 24.5t-82.5 7v360q156 0 268 -16t184 -63.5t106.5 -132.5t34.5 -222v-229q0 -31 6.5 -53.5t29 -37t65.5 -21.5t117 -7v-360 q-68 0 -111 -9.5t-66.5 -28t-33 -45t-9.5 -63.5v-329q0 -98 -32.5 -169t-103 -115t-183.5 -64.5t-272 -20.5v356z" />
<glyph unicode="~" horiz-adv-x="1247" d="M63 748q4 45 29 92t68 87t103.5 65.5t135.5 25.5q68 0 117 -12.5t107 -40.5q49 -25 96 -41.5t80 -16.5q61 2 94 33t41 66l246 -113q-4 -61 -36 -110.5t-78 -84t-101.5 -54t-104.5 -19.5q-43 0 -72.5 2t-56 8t-54.5 17.5t-63 27.5q-57 27 -96 39t-84 12q-53 0 -86 -31.5 t-37 -64.5z" />
<glyph horiz-adv-x="1591" d="M39 -23v312l827 932h-794v376h1478v-333l-790 -899h778v-388h-1499zM362 1985h318l88 -121l88 121h318l-283 -373h-248z" />
<glyph horiz-adv-x="1257" d="M43 -20v262l520 555h-504v325h1121v-270l-545 -551h571v-321h-1163zM188 1507h318l88 -121l88 121h317l-282 -372h-248z" />
<glyph unicode="&#xa1;" horiz-adv-x="716" d="M117 -395l67 1116h357l59 -1116h-483zM123 788v435h471v-435h-471z" />
<glyph unicode="&#xa2;" horiz-adv-x="1359" d="M86 684q0 270 130 404.5t374 156.5v139h194v-139q92 -8 174 -35.5t146.5 -80t110 -129t63.5 -183.5l-420 -39q-10 84 -33.5 121t-54.5 51v-532q37 16 60.5 63t33.5 146l420 -35q-23 -231 -150.5 -342t-349.5 -127v-154h-194v156q-256 23 -380 158t-124 401zM506 684 q0 -119 26.5 -177t67.5 -81v522q-41 -23 -67.5 -82t-26.5 -182z" />
<glyph unicode="&#xa3;" horiz-adv-x="1560" d="M23 -20v327q133 18 218 40t133 49.5t66.5 59t18.5 70.5q0 23 -8.5 50.5t-24.5 52.5h-360v200h110q-66 57 -102.5 132t-36.5 198q0 129 59.5 218t160.5 145.5t235.5 81t285.5 24.5q145 0 270.5 -29.5t219.5 -95t154.5 -169t78.5 -251.5q4 -25 1 -52t-3 -52l-520 18 q23 127 -31.5 196t-197.5 69q-111 0 -165.5 -32t-54.5 -108q0 -41 25 -77.5t59.5 -68.5t74.5 -59.5t69 -52.5h524v-252h-397q0 -76 -51 -139q-39 -76 -132 -129q78 6 174.5 10t195.5 6t197.5 2h180.5l109 -382h-1536z" />
<glyph unicode="&#xa4;" d="M4 424q0 76 23.5 146.5t64.5 124t96.5 85t118.5 31.5t119.5 -31.5t96.5 -85t63.5 -124t23.5 -146.5q0 -78 -23.5 -147.5t-63.5 -122t-96.5 -83t-119.5 -30.5t-118.5 30.5t-96.5 83t-64.5 122t-23.5 147.5zM344 1036q0 78 23.5 148.5t63.5 124t94.5 85t115.5 31.5 q63 0 118.5 -31.5t95.5 -85t63.5 -124t23.5 -148.5t-23.5 -146.5t-63.5 -120.5t-95.5 -83t-118.5 -31q-61 0 -115.5 31t-94.5 83t-63.5 120.5t-23.5 146.5zM670 424q0 78 22.5 147.5t63.5 123t95 85t120 31.5q61 0 115.5 -31.5t94.5 -85t63.5 -123t23.5 -147.5t-23.5 -147.5 t-63.5 -122t-94.5 -82t-115.5 -29.5q-66 0 -120 29.5t-95 82t-63.5 122t-22.5 147.5zM997 1034q0 78 23.5 148.5t63.5 124t94.5 85t115.5 31.5q63 0 118.5 -31.5t95.5 -85t63.5 -124t23.5 -148.5t-23.5 -146.5t-63.5 -119.5t-95.5 -82t-118.5 -31q-61 0 -115.5 31t-94.5 82 t-63.5 119.5t-23.5 146.5zM1321 424q0 78 23.5 147.5t63.5 123t95.5 85t120.5 31.5q63 0 119.5 -31.5t96.5 -85t63.5 -123t23.5 -147.5t-23.5 -147.5t-63.5 -122t-96.5 -82t-119.5 -29.5q-66 0 -121 29.5t-95 82t-63.5 122t-23.5 147.5z" />
<glyph unicode="&#xa5;" horiz-adv-x="1628" d="M6 1597h572q53 -104 100 -202q41 -84 81.5 -172.5t63.5 -147.5q23 59 65 147.5t83 172.5q47 98 98 202h553l-588 -1009v-19l-20 21h440v-234h-420v-20h420v-234h-407v-122h-469v122h-404v234h418v20h-418v234h418v4z" />
<glyph unicode="&#xa6;" d="M4 424q0 76 23.5 146.5t64.5 124t96.5 85t118.5 31.5t119.5 -31.5t96.5 -85t63.5 -124t23.5 -146.5q0 -78 -23.5 -147.5t-63.5 -122t-96.5 -83t-119.5 -30.5t-118.5 30.5t-96.5 83t-64.5 122t-23.5 147.5zM344 1036q0 78 23.5 148.5t63.5 124t94.5 85t115.5 31.5 q63 0 118.5 -31.5t95.5 -85t63.5 -124t23.5 -148.5t-23.5 -146.5t-63.5 -120.5t-95.5 -83t-118.5 -31q-61 0 -115.5 31t-94.5 83t-63.5 120.5t-23.5 146.5zM670 424q0 78 22.5 147.5t63.5 123t95 85t120 31.5q61 0 115.5 -31.5t94.5 -85t63.5 -123t23.5 -147.5t-23.5 -147.5 t-63.5 -122t-94.5 -82t-115.5 -29.5q-66 0 -120 29.5t-95 82t-63.5 122t-22.5 147.5zM997 1034q0 78 23.5 148.5t63.5 124t94.5 85t115.5 31.5q63 0 118.5 -31.5t95.5 -85t63.5 -124t23.5 -148.5t-23.5 -146.5t-63.5 -119.5t-95.5 -82t-118.5 -31q-61 0 -115.5 31t-94.5 82 t-63.5 119.5t-23.5 146.5zM1321 424q0 78 23.5 147.5t63.5 123t95.5 85t120.5 31.5q63 0 119.5 -31.5t96.5 -85t63.5 -123t23.5 -147.5t-23.5 -147.5t-63.5 -122t-96.5 -82t-119.5 -29.5q-66 0 -121 29.5t-95 82t-63.5 122t-23.5 147.5z" />
<glyph unicode="&#xa7;" horiz-adv-x="1239" d="M27 283l356 112q2 -14 3 -29.5t5 -29.5q33 -72 95.5 -102.5t127.5 -30.5q88 0 113 21.5t25 56.5q0 18 -5.5 35.5t-21.5 30.5t-46 24.5t-81 21.5q-49 10 -80 16.5t-72 14.5q-74 12 -146.5 30.5t-129.5 50.5t-92 84t-35 136q0 51 17.5 90t46 69.5t67.5 51t80 35.5 q-74 47 -112 115.5t-38 170.5q0 82 40 147.5t110 111t166 69t209 23.5q203 0 322.5 -64.5t183.5 -185.5q6 -12 6 -25q2 -4 4 -12t12 -29l-350 -121q0 25 -1 33t-1 15l-2 8l-2 4q-29 55 -68 75.5t-104 20.5q-74 0 -93.5 -18.5t-19.5 -46.5q0 -16 4 -32t23.5 -30t62.5 -27.5 t121 -27.5q37 -6 64.5 -12.5t56.5 -10.5q70 -10 130 -29.5t104 -54t69 -86t25 -123.5q0 -88 -48.5 -149.5t-138.5 -95.5q121 -47 165 -125t44 -176q0 -109 -46 -181.5t-124 -116.5t-180.5 -63.5t-214.5 -19.5q-492 0 -596 313v-2q-4 14 -6 34.5t-4 35.5zM473 776 q0 -27 34 -48t122 -34q76 4 104.5 27.5t28.5 54.5q0 27 -35 47.5t-121 30.5q-80 -4 -106.5 -26.5t-26.5 -51.5z" />
<glyph unicode="&#xa8;" horiz-adv-x="851" d="M18 1176v342h351v-342h-351zM479 1176v342h350v-342h-350z" />
<glyph unicode="&#xa9;" horiz-adv-x="1546" d="M33 811q0 170 53 319.5t150.5 261t233.5 176t302 64.5t303 -64.5t234.5 -176t152 -261t54.5 -319.5q0 -162 -53.5 -309.5t-151 -261t-234.5 -181t-305 -67.5q-166 0 -302 66.5t-233.5 178t-150.5 260t-53 314.5zM236 811q0 -125 37.5 -237.5t108.5 -196.5t170 -134 t220 -50t220.5 50t170 136t109.5 197.5t39 234.5q0 135 -39 250t-110.5 197.5t-171 129t-218.5 46.5t-217 -47.5t-169 -130t-110.5 -196.5t-39.5 -249zM336 811q0 242 112.5 368t323.5 126q168 0 282.5 -89.5t147.5 -302.5l-317 -39q-16 96 -42 129t-65 33q-23 0 -43 -9 t-35.5 -34.5t-23.5 -70.5t-8 -115q0 -68 9 -111t24.5 -66.5t35 -32.5t41.5 -9q18 0 35.5 6t31 26.5t24 57.5t16.5 98l317 -39q-10 -111 -46 -189.5t-92 -129.5t-131 -76t-163 -25q-203 0 -318.5 125t-115.5 369z" />
<glyph unicode="&#xaa;" horiz-adv-x="1230" d="M43 819q0 80 33 140.5t90 103.5t137 71.5t174 45.5q115 20 164 31.5t55 39.5q-4 29 -29.5 49.5t-95.5 20.5q-72 0 -129 -39t-104 -102l-227 176q74 117 187.5 181.5t299.5 64.5q233 0 352 -100.5t119 -323.5v-324q0 -47 7 -63.5t26 -22.5q4 -2 24.5 0t51.5 12v-252 q-43 -27 -99.5 -38t-115.5 -11q-86 0 -143.5 32t-84.5 83q-55 -53 -140 -82t-179 -29q-170 0 -271.5 80t-101.5 256zM74 248v223h1077v-223h-1077zM432 838q0 -43 27.5 -61.5t75.5 -18.5q61 0 100 24.5t51 59.5q4 14 9 63t7 94q-23 -12 -43 -18q-29 -10 -67.5 -20.5 t-73.5 -24.5t-60.5 -38t-25.5 -60z" />
<glyph unicode="&#xab;" horiz-adv-x="1351" d="M31 545v264l674 532v-413l-281 -240l281 -231v-437zM668 518v316l639 507v-413l-281 -240l281 -231v-437z" />
<glyph unicode="&#xac;" d="M4 424q0 76 23.5 146.5t64.5 124t96.5 85t118.5 31.5t119.5 -31.5t96.5 -85t63.5 -124t23.5 -146.5q0 -78 -23.5 -147.5t-63.5 -122t-96.5 -83t-119.5 -30.5t-118.5 30.5t-96.5 83t-64.5 122t-23.5 147.5zM344 1036q0 78 23.5 148.5t63.5 124t94.5 85t115.5 31.5 q63 0 118.5 -31.5t95.5 -85t63.5 -124t23.5 -148.5t-23.5 -146.5t-63.5 -120.5t-95.5 -83t-118.5 -31q-61 0 -115.5 31t-94.5 83t-63.5 120.5t-23.5 146.5zM670 424q0 78 22.5 147.5t63.5 123t95 85t120 31.5q61 0 115.5 -31.5t94.5 -85t63.5 -123t23.5 -147.5t-23.5 -147.5 t-63.5 -122t-94.5 -82t-115.5 -29.5q-66 0 -120 29.5t-95 82t-63.5 122t-22.5 147.5zM997 1034q0 78 23.5 148.5t63.5 124t94.5 85t115.5 31.5q63 0 118.5 -31.5t95.5 -85t63.5 -124t23.5 -148.5t-23.5 -146.5t-63.5 -119.5t-95.5 -82t-118.5 -31q-61 0 -115.5 31t-94.5 82 t-63.5 119.5t-23.5 146.5zM1321 424q0 78 23.5 147.5t63.5 123t95.5 85t120.5 31.5q63 0 119.5 -31.5t96.5 -85t63.5 -123t23.5 -147.5t-23.5 -147.5t-63.5 -122t-96.5 -82t-119.5 -29.5q-66 0 -121 29.5t-95 82t-63.5 122t-23.5 147.5z" />
<glyph unicode="&#xad;" horiz-adv-x="1107" d="M125 567v373h858v-373h-858z" />
<glyph unicode="&#xae;" horiz-adv-x="1546" d="M33 811q0 170 53 319.5t150.5 261t233.5 176t302 64.5t303 -64.5t234.5 -176t152 -261t54.5 -319.5q0 -162 -53.5 -309.5t-151 -261t-234.5 -181t-305 -67.5q-166 0 -302 66.5t-233.5 178t-150.5 260t-53 314.5zM236 811q0 -125 37.5 -237.5t108.5 -196.5t170 -134 t220 -50t220.5 50t170 136t109.5 197.5t39 234.5q0 135 -39 250t-110.5 197.5t-171 129t-218.5 46.5t-217 -47.5t-169 -130t-110.5 -196.5t-39.5 -249zM381 393v864h547q61 0 114.5 -16t93.5 -48t63.5 -81t23.5 -117q0 -98 -44 -155.5t-128 -79.5l176 -367h-328l-164 342 h-43v-342h-311zM692 944h123q47 0 62.5 13.5t15.5 35.5q0 20 -13.5 32.5t-66.5 12.5h-121v-94z" />
<glyph unicode="&#xaf;" horiz-adv-x="851" d="M59 1186v274h727v-274h-727z" />
<glyph unicode="&#xb0;" horiz-adv-x="937" d="M51 1225q0 86 34 161.5t90 132t132 89t162 32.5t162 -32.5t132 -89t90 -132t34 -161.5t-34 -163t-90 -133.5t-132 -89t-162 -32.5t-162 32.5t-132 89t-90 133.5t-34 163zM328 1225q0 -59 41 -101.5t100 -42.5q57 0 99 42t42 102q0 59 -41 100t-100 41t-100 -41t-41 -100z " />
<glyph unicode="&#xb1;" d="M4 424q0 76 23.5 146.5t64.5 124t96.5 85t118.5 31.5t119.5 -31.5t96.5 -85t63.5 -124t23.5 -146.5q0 -78 -23.5 -147.5t-63.5 -122t-96.5 -83t-119.5 -30.5t-118.5 30.5t-96.5 83t-64.5 122t-23.5 147.5zM344 1036q0 78 23.5 148.5t63.5 124t94.5 85t115.5 31.5 q63 0 118.5 -31.5t95.5 -85t63.5 -124t23.5 -148.5t-23.5 -146.5t-63.5 -120.5t-95.5 -83t-118.5 -31q-61 0 -115.5 31t-94.5 83t-63.5 120.5t-23.5 146.5zM670 424q0 78 22.5 147.5t63.5 123t95 85t120 31.5q61 0 115.5 -31.5t94.5 -85t63.5 -123t23.5 -147.5t-23.5 -147.5 t-63.5 -122t-94.5 -82t-115.5 -29.5q-66 0 -120 29.5t-95 82t-63.5 122t-22.5 147.5zM997 1034q0 78 23.5 148.5t63.5 124t94.5 85t115.5 31.5q63 0 118.5 -31.5t95.5 -85t63.5 -124t23.5 -148.5t-23.5 -146.5t-63.5 -119.5t-95.5 -82t-118.5 -31q-61 0 -115.5 31t-94.5 82 t-63.5 119.5t-23.5 146.5zM1321 424q0 78 23.5 147.5t63.5 123t95.5 85t120.5 31.5q63 0 119.5 -31.5t96.5 -85t63.5 -123t23.5 -147.5t-23.5 -147.5t-63.5 -122t-96.5 -82t-119.5 -29.5q-66 0 -121 29.5t-95 82t-63.5 122t-23.5 147.5z" />
<glyph unicode="&#xb2;" d="M4 424q0 76 23.5 146.5t64.5 124t96.5 85t118.5 31.5t119.5 -31.5t96.5 -85t63.5 -124t23.5 -146.5q0 -78 -23.5 -147.5t-63.5 -122t-96.5 -83t-119.5 -30.5t-118.5 30.5t-96.5 83t-64.5 122t-23.5 147.5zM344 1036q0 78 23.5 148.5t63.5 124t94.5 85t115.5 31.5 q63 0 118.5 -31.5t95.5 -85t63.5 -124t23.5 -148.5t-23.5 -146.5t-63.5 -120.5t-95.5 -83t-118.5 -31q-61 0 -115.5 31t-94.5 83t-63.5 120.5t-23.5 146.5zM670 424q0 78 22.5 147.5t63.5 123t95 85t120 31.5q61 0 115.5 -31.5t94.5 -85t63.5 -123t23.5 -147.5t-23.5 -147.5 t-63.5 -122t-94.5 -82t-115.5 -29.5q-66 0 -120 29.5t-95 82t-63.5 122t-22.5 147.5zM997 1034q0 78 23.5 148.5t63.5 124t94.5 85t115.5 31.5q63 0 118.5 -31.5t95.5 -85t63.5 -124t23.5 -148.5t-23.5 -146.5t-63.5 -119.5t-95.5 -82t-118.5 -31q-61 0 -115.5 31t-94.5 82 t-63.5 119.5t-23.5 146.5zM1321 424q0 78 23.5 147.5t63.5 123t95.5 85t120.5 31.5q63 0 119.5 -31.5t96.5 -85t63.5 -123t23.5 -147.5t-23.5 -147.5t-63.5 -122t-96.5 -82t-119.5 -29.5q-66 0 -121 29.5t-95 82t-63.5 122t-23.5 147.5z" />
<glyph unicode="&#xb3;" d="M4 424q0 76 23.5 146.5t64.5 124t96.5 85t118.5 31.5t119.5 -31.5t96.5 -85t63.5 -124t23.5 -146.5q0 -78 -23.5 -147.5t-63.5 -122t-96.5 -83t-119.5 -30.5t-118.5 30.5t-96.5 83t-64.5 122t-23.5 147.5zM344 1036q0 78 23.5 148.5t63.5 124t94.5 85t115.5 31.5 q63 0 118.5 -31.5t95.5 -85t63.5 -124t23.5 -148.5t-23.5 -146.5t-63.5 -120.5t-95.5 -83t-118.5 -31q-61 0 -115.5 31t-94.5 83t-63.5 120.5t-23.5 146.5zM670 424q0 78 22.5 147.5t63.5 123t95 85t120 31.5q61 0 115.5 -31.5t94.5 -85t63.5 -123t23.5 -147.5t-23.5 -147.5 t-63.5 -122t-94.5 -82t-115.5 -29.5q-66 0 -120 29.5t-95 82t-63.5 122t-22.5 147.5zM997 1034q0 78 23.5 148.5t63.5 124t94.5 85t115.5 31.5q63 0 118.5 -31.5t95.5 -85t63.5 -124t23.5 -148.5t-23.5 -146.5t-63.5 -119.5t-95.5 -82t-118.5 -31q-61 0 -115.5 31t-94.5 82 t-63.5 119.5t-23.5 146.5zM1321 424q0 78 23.5 147.5t63.5 123t95.5 85t120.5 31.5q63 0 119.5 -31.5t96.5 -85t63.5 -123t23.5 -147.5t-23.5 -147.5t-63.5 -122t-96.5 -82t-119.5 -29.5q-66 0 -121 29.5t-95 82t-63.5 122t-23.5 147.5z" />
<glyph unicode="&#xb4;" horiz-adv-x="851" d="M156 1159l180 375h385l-242 -375h-323z" />
<glyph unicode="&#xb5;" d="M4 424q0 76 23.5 146.5t64.5 124t96.5 85t118.5 31.5t119.5 -31.5t96.5 -85t63.5 -124t23.5 -146.5q0 -78 -23.5 -147.5t-63.5 -122t-96.5 -83t-119.5 -30.5t-118.5 30.5t-96.5 83t-64.5 122t-23.5 147.5zM344 1036q0 78 23.5 148.5t63.5 124t94.5 85t115.5 31.5 q63 0 118.5 -31.5t95.5 -85t63.5 -124t23.5 -148.5t-23.5 -146.5t-63.5 -120.5t-95.5 -83t-118.5 -31q-61 0 -115.5 31t-94.5 83t-63.5 120.5t-23.5 146.5zM670 424q0 78 22.5 147.5t63.5 123t95 85t120 31.5q61 0 115.5 -31.5t94.5 -85t63.5 -123t23.5 -147.5t-23.5 -147.5 t-63.5 -122t-94.5 -82t-115.5 -29.5q-66 0 -120 29.5t-95 82t-63.5 122t-22.5 147.5zM997 1034q0 78 23.5 148.5t63.5 124t94.5 85t115.5 31.5q63 0 118.5 -31.5t95.5 -85t63.5 -124t23.5 -148.5t-23.5 -146.5t-63.5 -119.5t-95.5 -82t-118.5 -31q-61 0 -115.5 31t-94.5 82 t-63.5 119.5t-23.5 146.5zM1321 424q0 78 23.5 147.5t63.5 123t95.5 85t120.5 31.5q63 0 119.5 -31.5t96.5 -85t63.5 -123t23.5 -147.5t-23.5 -147.5t-63.5 -122t-96.5 -82t-119.5 -29.5q-66 0 -121 29.5t-95 82t-63.5 122t-23.5 147.5z" />
<glyph unicode="&#xb6;" horiz-adv-x="1316" d="M20 1110q0 104 40 193.5t112 155t171 102t218 36.5h719v-374h-84l2 -1243h-285v1243h-297q-27 0 -53 -9.5t-47.5 -28t-35 -46t-13.5 -64.5q0 -72 32.5 -103.5t84.5 -37.5v237h256v-1191h-279v638q-262 6 -401.5 137.5t-139.5 354.5z" />
<glyph unicode="&#xb7;" horiz-adv-x="813" d="M129 582v473h557v-473h-557z" />
<glyph unicode="&#xb8;" horiz-adv-x="851" d="M123 -360l90 194q82 -53 164 -53q25 0 37 2t12 16q0 20 -24.5 23.5t-79.5 3.5v268h178v-112q35 -4 69.5 -15.5t62 -34t44 -55.5t16.5 -78q0 -59 -22.5 -100t-62.5 -68.5t-93.5 -40t-116.5 -12.5q-92 0 -160.5 19.5t-113.5 42.5z" />
<glyph unicode="&#xb9;" d="M4 424q0 76 23.5 146.5t64.5 124t96.5 85t118.5 31.5t119.5 -31.5t96.5 -85t63.5 -124t23.5 -146.5q0 -78 -23.5 -147.5t-63.5 -122t-96.5 -83t-119.5 -30.5t-118.5 30.5t-96.5 83t-64.5 122t-23.5 147.5zM344 1036q0 78 23.5 148.5t63.5 124t94.5 85t115.5 31.5 q63 0 118.5 -31.5t95.5 -85t63.5 -124t23.5 -148.5t-23.5 -146.5t-63.5 -120.5t-95.5 -83t-118.5 -31q-61 0 -115.5 31t-94.5 83t-63.5 120.5t-23.5 146.5zM670 424q0 78 22.5 147.5t63.5 123t95 85t120 31.5q61 0 115.5 -31.5t94.5 -85t63.5 -123t23.5 -147.5t-23.5 -147.5 t-63.5 -122t-94.5 -82t-115.5 -29.5q-66 0 -120 29.5t-95 82t-63.5 122t-22.5 147.5zM997 1034q0 78 23.5 148.5t63.5 124t94.5 85t115.5 31.5q63 0 118.5 -31.5t95.5 -85t63.5 -124t23.5 -148.5t-23.5 -146.5t-63.5 -119.5t-95.5 -82t-118.5 -31q-61 0 -115.5 31t-94.5 82 t-63.5 119.5t-23.5 146.5zM1321 424q0 78 23.5 147.5t63.5 123t95.5 85t120.5 31.5q63 0 119.5 -31.5t96.5 -85t63.5 -123t23.5 -147.5t-23.5 -147.5t-63.5 -122t-96.5 -82t-119.5 -29.5q-66 0 -121 29.5t-95 82t-63.5 122t-23.5 147.5z" />
<glyph unicode="&#xba;" horiz-adv-x="1261" d="M35 1040q0 119 35.5 221.5t109.5 178.5t185.5 119t263.5 43q154 0 266.5 -40t184 -113t106.5 -176.5t35 -232.5q0 -121 -33 -223t-104.5 -177t-184 -118t-272.5 -43q-164 0 -276.5 43t-182.5 119t-101.5 178.5t-31.5 220.5zM102 246v223h1067v-223h-1067zM465 1040 q0 -82 13.5 -134t36 -82.5t51 -42t61.5 -11.5t62.5 11.5t52 41t34.5 81.5t12 136t-12 137.5t-33.5 83t-51 41t-62.5 11.5q-35 0 -66 -12.5t-52.5 -43t-33.5 -83t-12 -134.5z" />
<glyph unicode="&#xbb;" horiz-adv-x="1351" d="M45 25v413l283 240l-283 233v437l639 -502v-316zM647 25v413l281 240l-281 233v437l672 -527v-264z" />
<glyph unicode="&#xbc;" d="M4 424q0 76 23.5 146.5t64.5 124t96.5 85t118.5 31.5t119.5 -31.5t96.5 -85t63.5 -124t23.5 -146.5q0 -78 -23.5 -147.5t-63.5 -122t-96.5 -83t-119.5 -30.5t-118.5 30.5t-96.5 83t-64.5 122t-23.5 147.5zM344 1036q0 78 23.5 148.5t63.5 124t94.5 85t115.5 31.5 q63 0 118.5 -31.5t95.5 -85t63.5 -124t23.5 -148.5t-23.5 -146.5t-63.5 -120.5t-95.5 -83t-118.5 -31q-61 0 -115.5 31t-94.5 83t-63.5 120.5t-23.5 146.5zM670 424q0 78 22.5 147.5t63.5 123t95 85t120 31.5q61 0 115.5 -31.5t94.5 -85t63.5 -123t23.5 -147.5t-23.5 -147.5 t-63.5 -122t-94.5 -82t-115.5 -29.5q-66 0 -120 29.5t-95 82t-63.5 122t-22.5 147.5zM997 1034q0 78 23.5 148.5t63.5 124t94.5 85t115.5 31.5q63 0 118.5 -31.5t95.5 -85t63.5 -124t23.5 -148.5t-23.5 -146.5t-63.5 -119.5t-95.5 -82t-118.5 -31q-61 0 -115.5 31t-94.5 82 t-63.5 119.5t-23.5 146.5zM1321 424q0 78 23.5 147.5t63.5 123t95.5 85t120.5 31.5q63 0 119.5 -31.5t96.5 -85t63.5 -123t23.5 -147.5t-23.5 -147.5t-63.5 -122t-96.5 -82t-119.5 -29.5q-66 0 -121 29.5t-95 82t-63.5 122t-23.5 147.5z" />
<glyph unicode="&#xbd;" d="M4 424q0 76 23.5 146.5t64.5 124t96.5 85t118.5 31.5t119.5 -31.5t96.5 -85t63.5 -124t23.5 -146.5q0 -78 -23.5 -147.5t-63.5 -122t-96.5 -83t-119.5 -30.5t-118.5 30.5t-96.5 83t-64.5 122t-23.5 147.5zM344 1036q0 78 23.5 148.5t63.5 124t94.5 85t115.5 31.5 q63 0 118.5 -31.5t95.5 -85t63.5 -124t23.5 -148.5t-23.5 -146.5t-63.5 -120.5t-95.5 -83t-118.5 -31q-61 0 -115.5 31t-94.5 83t-63.5 120.5t-23.5 146.5zM670 424q0 78 22.5 147.5t63.5 123t95 85t120 31.5q61 0 115.5 -31.5t94.5 -85t63.5 -123t23.5 -147.5t-23.5 -147.5 t-63.5 -122t-94.5 -82t-115.5 -29.5q-66 0 -120 29.5t-95 82t-63.5 122t-22.5 147.5zM997 1034q0 78 23.5 148.5t63.5 124t94.5 85t115.5 31.5q63 0 118.5 -31.5t95.5 -85t63.5 -124t23.5 -148.5t-23.5 -146.5t-63.5 -119.5t-95.5 -82t-118.5 -31q-61 0 -115.5 31t-94.5 82 t-63.5 119.5t-23.5 146.5zM1321 424q0 78 23.5 147.5t63.5 123t95.5 85t120.5 31.5q63 0 119.5 -31.5t96.5 -85t63.5 -123t23.5 -147.5t-23.5 -147.5t-63.5 -122t-96.5 -82t-119.5 -29.5q-66 0 -121 29.5t-95 82t-63.5 122t-23.5 147.5z" />
<glyph unicode="&#xbe;" d="M4 424q0 76 23.5 146.5t64.5 124t96.5 85t118.5 31.5t119.5 -31.5t96.5 -85t63.5 -124t23.5 -146.5q0 -78 -23.5 -147.5t-63.5 -122t-96.5 -83t-119.5 -30.5t-118.5 30.5t-96.5 83t-64.5 122t-23.5 147.5zM344 1036q0 78 23.5 148.5t63.5 124t94.5 85t115.5 31.5 q63 0 118.5 -31.5t95.5 -85t63.5 -124t23.5 -148.5t-23.5 -146.5t-63.5 -120.5t-95.5 -83t-118.5 -31q-61 0 -115.5 31t-94.5 83t-63.5 120.5t-23.5 146.5zM670 424q0 78 22.5 147.5t63.5 123t95 85t120 31.5q61 0 115.5 -31.5t94.5 -85t63.5 -123t23.5 -147.5t-23.5 -147.5 t-63.5 -122t-94.5 -82t-115.5 -29.5q-66 0 -120 29.5t-95 82t-63.5 122t-22.5 147.5zM997 1034q0 78 23.5 148.5t63.5 124t94.5 85t115.5 31.5q63 0 118.5 -31.5t95.5 -85t63.5 -124t23.5 -148.5t-23.5 -146.5t-63.5 -119.5t-95.5 -82t-118.5 -31q-61 0 -115.5 31t-94.5 82 t-63.5 119.5t-23.5 146.5zM1321 424q0 78 23.5 147.5t63.5 123t95.5 85t120.5 31.5q63 0 119.5 -31.5t96.5 -85t63.5 -123t23.5 -147.5t-23.5 -147.5t-63.5 -122t-96.5 -82t-119.5 -29.5q-66 0 -121 29.5t-95 82t-63.5 122t-23.5 147.5z" />
<glyph unicode="&#xbf;" horiz-adv-x="1558" d="M109 27q0 92 20.5 157.5t62 112.5t103 83t143.5 69q41 25 70 44t47 38.5t27.5 40t13.5 46.5q0 2 1 14.5t1 28v32v26.5h432v-131q-4 -59 -18.5 -111.5t-45 -97.5t-80.5 -85t-126 -77q-47 -25 -80 -46t-52.5 -45t-27.5 -52.5t-8 -65.5q0 -53 41 -87t143 -34q100 0 160.5 42 t75.5 141q0 10 1 40.5t1 65.5l499 -24q0 -31 -2 -63t-2 -42q-16 -123 -75.5 -213t-155.5 -148.5t-223 -87t-277 -28.5q-324 0 -496.5 111.5t-172.5 345.5zM573 788v435h474v-435h-474z" />
<glyph unicode="&#xc0;" horiz-adv-x="1708" d="M-25 -20l603 1617h557l598 -1617h-519l-102 294h-516l-98 -294h-523zM438 2012h383l166 -390h-324zM721 627h268l-108 336q-2 16 -10.5 40.5t-14.5 40.5l-2 13l-4 -10q-4 -18 -12.5 -42t-10.5 -42z" />
<glyph unicode="&#xc1;" horiz-adv-x="1708" d="M-25 -20l603 1617h557l598 -1617h-519l-102 294h-516l-98 -294h-523zM623 1605l180 375h385l-242 -375h-323zM721 627h268l-108 336q-2 16 -10.5 40.5t-14.5 40.5l-2 13l-4 -10q-4 -18 -12.5 -42t-10.5 -42z" />
<glyph unicode="&#xc2;" horiz-adv-x="1708" d="M-25 -20l603 1617h557l598 -1617h-519l-102 294h-516l-98 -294h-523zM417 1610l283 373h246l282 -373h-317l-88 117l-88 -117h-318zM721 627h268l-108 336q-2 16 -10.5 40.5t-14.5 40.5l-2 13l-4 -10q-4 -18 -12.5 -42t-10.5 -42z" />
<glyph unicode="&#xc3;" horiz-adv-x="1708" d="M-25 -20l603 1617h557l598 -1617h-519l-102 294h-516l-98 -294h-523zM418 1603q-10 162 53.5 251t177.5 89q33 0 57.5 -4t46 -12t43 -18.5t48.5 -24.5q16 -10 34.5 -20.5t39.5 -10.5q12 0 24 15.5t17 66.5h239q10 -162 -53 -250t-180 -88q-33 0 -56.5 4t-45 11.5 t-44 18.5t-49.5 24q-16 10 -32.5 20t-39.5 10q-14 0 -26 -15t-17 -67h-237zM721 627h268l-108 336q-2 16 -10.5 40.5t-14.5 40.5l-2 13l-4 -10q-4 -18 -12.5 -42t-10.5 -42z" />
<glyph unicode="&#xc4;" horiz-adv-x="1708" d="M-25 -20l603 1617h557l598 -1617h-519l-102 294h-516l-98 -294h-523zM419 1610v342h351v-342h-351zM721 627h268l-108 336q-2 16 -10.5 40.5t-14.5 40.5l-2 13l-4 -10q-4 -18 -12.5 -42t-10.5 -42zM880 1610v342h350v-342h-350z" />
<glyph unicode="&#xc5;" horiz-adv-x="1708" d="M-25 -20l603 1617h557l598 -1617h-519l-102 294h-516l-98 -294h-523zM565 1749q0 55 21 104q20 49 57 86t86 58q49 20 105 20q55 0 104 -20t86 -58q37 -37 57 -86t21 -104q0 -55 -22 -103t-57 -85q-36 -37 -85 -58q-49 -20 -104 -20t-105 20q-49 20 -85 58q-36 37 -57 85 q-22 48 -22 103zM721 627h268l-108 336q-2 16 -10.5 40.5t-14.5 40.5l-2 13l-4 -10q-4 -18 -12.5 -42t-10.5 -42zM766 1749q0 -29 19 -48t49 -20q29 0 47 20q18 19 18 48t-18 49q-18 21 -47 21t-49 -21q-19 -20 -19 -49z" />
<glyph unicode="&#xc6;" horiz-adv-x="2394" d="M-92 -20l995 1617h1456l-116 -374h-719v-224h669v-364h-671v-275h759l134 -380h-1350v311h-442l-174 -311h-541zM829 643h236v483q-16 -41 -33.5 -81.5t-30.5 -59.5q-16 -23 -39.5 -68t-48 -97t-48 -100t-36.5 -77z" />
<glyph unicode="&#xc7;" horiz-adv-x="1710" d="M74 805q0 217 57 371.5t162.5 252t255 142.5t334.5 45q180 0 315 -38t230.5 -112.5t152.5 -185.5t82 -256l-547 -51q-14 72 -33.5 121t-48 79.5t-68.5 45t-94 14.5q-70 0 -121 -21.5t-84.5 -74t-51 -137.5t-17.5 -212q0 -131 19.5 -217t55.5 -138t86 -73.5t109 -21.5 q55 0 96.5 11t72 42t51 84t32.5 137l535 -53q-27 -147 -82 -260t-147.5 -187.5t-226.5 -112.5t-318 -38q-385 2 -596 209t-211 635zM543 -370l90 194q82 -53 164 -53q25 0 37 2t12 16q0 20 -24.5 23.5t-79.5 3.5v268h178v-112q35 -4 69.5 -15.5t62 -34t44 -55.5t16.5 -78 q0 -59 -22.5 -100t-62.5 -68.5t-93.5 -40t-116.5 -12.5q-92 0 -160.5 19.5t-113.5 42.5z" />
<glyph unicode="&#xc8;" horiz-adv-x="1560" d="M131 -20v1617h1391l-113 -374h-782v-224h733v-364h-733v-275h819l133 -380h-1448zM477 2010h383l166 -390h-324z" />
<glyph unicode="&#xc9;" horiz-adv-x="1560" d="M131 -20v1617h1391l-113 -374h-782v-224h733v-364h-733v-275h819l133 -380h-1448zM598 1614l180 375h385l-242 -375h-323z" />
<glyph unicode="&#xca;" horiz-adv-x="1560" d="M131 -20v1617h1391l-113 -374h-782v-224h733v-364h-733v-275h819l133 -380h-1448zM397 1607l283 373h246l282 -373h-317l-88 117l-88 -117h-318z" />
<glyph unicode="&#xcb;" horiz-adv-x="1560" d="M131 -20v1617h1391l-113 -374h-782v-224h733v-364h-733v-275h819l133 -380h-1448zM393 1606v342h351v-342h-351zM854 1606v342h350v-342h-350z" />
<glyph unicode="&#xcc;" horiz-adv-x="770" d="M96 2009h383l166 -389h-323zM131 -20v1617h510v-1617h-510z" />
<glyph unicode="&#xcd;" horiz-adv-x="770" d="M131 -20v1617h510v-1617h-510zM174 1610l180 375h385l-241 -375h-324z" />
<glyph unicode="&#xce;" horiz-adv-x="770" d="M90 1608l283 372h245l283 -372h-317l-88 116l-88 -116h-318zM131 -20v1617h510v-1617h-510z" />
<glyph unicode="&#xcf;" horiz-adv-x="770" d="M111 1610v342h350v-342h-350zM131 -20v1617h510v-1617h-510zM571 1610v342h351v-342h-351z" />
<glyph unicode="&#xd0;" horiz-adv-x="1808" d="M31 623v350h125v624h755q186 0 338 -44t259.5 -140t165 -249.5t57.5 -372.5q0 -391 -197 -601t-610 -210h-768v643h-125zM668 354h221q57 0 112.5 16.5t100.5 62.5t72.5 130t27.5 217q0 139 -24.5 226.5t-66.5 136.5t-96 67.5t-112 18.5h-235v-256h198v-350h-198v-269z " />
<glyph unicode="&#xd1;" horiz-adv-x="1822" d="M131 -20v1617h524l500 -739q0 -4 15.5 -29.5t31.5 -54.5l-4 107v716h498v-1617h-522l-502 776q0 4 -13.5 24.5t-27.5 42.5l-6 11v-78v-776h-494zM547 1599q-10 162 53.5 251t177.5 89q33 0 57.5 -4t46 -12t43 -18.5t48.5 -24.5q16 -10 34.5 -20.5t39.5 -10.5 q12 0 24 15.5t16 66.5h240q10 -162 -53 -250t-180 -88q-33 0 -56.5 4.5t-45 11.5t-44 18t-49.5 24q-16 10 -32.5 20t-39.5 10q-14 0 -26.5 -15t-16.5 -67h-237z" />
<glyph unicode="&#xd2;" horiz-adv-x="1806" d="M74 803q0 215 58 369.5t167 253t262.5 144.5t341.5 46q186 0 340 -44t263.5 -141.5t169 -252t59.5 -375.5q0 -213 -59.5 -372t-168 -263.5t-262.5 -155.5t-342 -51t-341.5 48t-262.5 150.5t-167 262.5t-58 381zM496 2010h383l166 -390h-324zM592 797q0 -131 20.5 -219.5 t60.5 -141.5t98 -75.5t132 -22.5t131.5 23.5t97 77t61 141.5t21.5 217q0 127 -22.5 211t-64.5 134t-99 70.5t-125 20.5q-70 0 -127 -20.5t-98 -70.5t-63.5 -134t-22.5 -211z" />
<glyph unicode="&#xd3;" horiz-adv-x="1806" d="M74 803q0 215 58 369.5t167 253t262.5 144.5t341.5 46q186 0 340 -44t263.5 -141.5t169 -252t59.5 -375.5q0 -213 -59.5 -372t-168 -263.5t-262.5 -155.5t-342 -51t-341.5 48t-262.5 150.5t-167 262.5t-58 381zM592 797q0 -131 20.5 -219.5t60.5 -141.5t98 -75.5 t132 -22.5t131.5 23.5t97 77t61 141.5t21.5 217q0 127 -22.5 211t-64.5 134t-99 70.5t-125 20.5q-70 0 -127 -20.5t-98 -70.5t-63.5 -134t-22.5 -211zM705 1610l180 375h385l-242 -375h-323z" />
<glyph unicode="&#xd4;" horiz-adv-x="1806" d="M74 803q0 215 58 369.5t167 253t262.5 144.5t341.5 46q186 0 340 -44t263.5 -141.5t169 -252t59.5 -375.5q0 -213 -59.5 -372t-168 -263.5t-262.5 -155.5t-342 -51t-341.5 48t-262.5 150.5t-167 262.5t-58 381zM475 1610l283 373h246l282 -373h-317l-88 117l-88 -117 h-318zM592 797q0 -131 20.5 -219.5t60.5 -141.5t98 -75.5t132 -22.5t131.5 23.5t97 77t61 141.5t21.5 217q0 127 -22.5 211t-64.5 134t-99 70.5t-125 20.5q-70 0 -127 -20.5t-98 -70.5t-63.5 -134t-22.5 -211z" />
<glyph unicode="&#xd5;" horiz-adv-x="1806" d="M74 803q0 215 58 369.5t167 253t262.5 144.5t341.5 46q186 0 340 -44t263.5 -141.5t169 -252t59.5 -375.5q0 -213 -59.5 -372t-168 -263.5t-262.5 -155.5t-342 -51t-341.5 48t-262.5 150.5t-167 262.5t-58 381zM506 1599q-10 162 53.5 251t177.5 89q33 0 57.5 -4t46 -12 t43 -18.5t48.5 -24.5q16 -10 34.5 -20.5t39.5 -10.5q12 0 24 15.5t17 66.5h239q10 -162 -53 -250t-180 -88q-33 0 -56.5 4t-45 11.5t-44 18.5t-49.5 24q-16 10 -32.5 20t-39.5 10q-14 0 -26 -15t-17 -67h-237zM592 797q0 -131 20.5 -219.5t60.5 -141.5t98 -75.5t132 -22.5 t131.5 23.5t97 77t61 141.5t21.5 217q0 127 -22.5 211t-64.5 134t-99 70.5t-125 20.5q-70 0 -127 -20.5t-98 -70.5t-63.5 -134t-22.5 -211z" />
<glyph unicode="&#xd6;" horiz-adv-x="1806" d="M74 803q0 215 58 369.5t167 253t262.5 144.5t341.5 46q186 0 340 -44t263.5 -141.5t169 -252t59.5 -375.5q0 -213 -59.5 -372t-168 -263.5t-262.5 -155.5t-342 -51t-341.5 48t-262.5 150.5t-167 262.5t-58 381zM479 1606v342h351v-342h-351zM592 797q0 -131 20.5 -219.5 t60.5 -141.5t98 -75.5t132 -22.5t131.5 23.5t97 77t61 141.5t21.5 217q0 127 -22.5 211t-64.5 134t-99 70.5t-125 20.5q-70 0 -127 -20.5t-98 -70.5t-63.5 -134t-22.5 -211zM940 1606v342h350v-342h-350z" />
<glyph unicode="&#xd7;" d="M4 424q0 76 23.5 146.5t64.5 124t96.5 85t118.5 31.5t119.5 -31.5t96.5 -85t63.5 -124t23.5 -146.5q0 -78 -23.5 -147.5t-63.5 -122t-96.5 -83t-119.5 -30.5t-118.5 30.5t-96.5 83t-64.5 122t-23.5 147.5zM344 1036q0 78 23.5 148.5t63.5 124t94.5 85t115.5 31.5 q63 0 118.5 -31.5t95.5 -85t63.5 -124t23.5 -148.5t-23.5 -146.5t-63.5 -120.5t-95.5 -83t-118.5 -31q-61 0 -115.5 31t-94.5 83t-63.5 120.5t-23.5 146.5zM670 424q0 78 22.5 147.5t63.5 123t95 85t120 31.5q61 0 115.5 -31.5t94.5 -85t63.5 -123t23.5 -147.5t-23.5 -147.5 t-63.5 -122t-94.5 -82t-115.5 -29.5q-66 0 -120 29.5t-95 82t-63.5 122t-22.5 147.5zM997 1034q0 78 23.5 148.5t63.5 124t94.5 85t115.5 31.5q63 0 118.5 -31.5t95.5 -85t63.5 -124t23.5 -148.5t-23.5 -146.5t-63.5 -119.5t-95.5 -82t-118.5 -31q-61 0 -115.5 31t-94.5 82 t-63.5 119.5t-23.5 146.5zM1321 424q0 78 23.5 147.5t63.5 123t95.5 85t120.5 31.5q63 0 119.5 -31.5t96.5 -85t63.5 -123t23.5 -147.5t-23.5 -147.5t-63.5 -122t-96.5 -82t-119.5 -29.5q-66 0 -121 29.5t-95 82t-63.5 122t-23.5 147.5z" />
<glyph unicode="&#xd8;" horiz-adv-x="1806" d="M74 803q0 215 58 369.5t167 253t262.5 144.5t341.5 46q119 0 213 -21q4 8 8 18.5t9 20.5q4 10 8 23h293l-66 -137q174 -90 270.5 -266.5t96.5 -450.5q0 -213 -59.5 -371t-168 -262t-262.5 -156.5t-342 -52.5q-59 0 -115.5 5t-109.5 16q-6 -14 -15.5 -34t-19.5 -38 q-10 -23 -22 -43h-291l98 199q-170 92 -262 274t-92 463zM578 795q0 -78 15 -147.5t46 -121.5l317 701q-10 16 -23.5 21t-29.5 5q-76 0 -136 -21.5t-102 -73.5t-64.5 -140t-22.5 -223zM829 334q16 -8 35 -13.5t39 -5.5q80 0 141.5 23.5t102.5 80t61.5 148.5t20.5 230 q0 74 -19.5 138t-54.5 112z" />
<glyph unicode="&#xd9;" horiz-adv-x="1728" d="M106 643v954h502v-944q0 -160 56.5 -231.5t193.5 -71.5q131 0 184.5 69.5t53.5 244.5v933h501v-979q0 -147 -37.5 -268t-124.5 -206t-228.5 -132t-346.5 -47q-213 0 -356.5 45t-232.5 131t-127 212t-38 290zM479 2010h383l166 -390h-324z" />
<glyph unicode="&#xda;" horiz-adv-x="1728" d="M106 643v954h502v-944q0 -160 56.5 -231.5t193.5 -71.5q131 0 184.5 69.5t53.5 244.5v933h501v-979q0 -147 -37.5 -268t-124.5 -206t-228.5 -132t-346.5 -47q-213 0 -356.5 45t-232.5 131t-127 212t-38 290zM621 1610l180 375h385l-242 -375h-323z" />
<glyph unicode="&#xdb;" horiz-adv-x="1728" d="M106 643v954h502v-944q0 -160 56.5 -231.5t193.5 -71.5q131 0 184.5 69.5t53.5 244.5v933h501v-979q0 -147 -37.5 -268t-124.5 -206t-228.5 -132t-346.5 -47q-213 0 -356.5 45t-232.5 131t-127 212t-38 290zM430 1610l283 373h246l282 -373h-317l-88 117l-88 -117h-318z " />
<glyph unicode="&#xdc;" horiz-adv-x="1728" d="M106 643v954h502v-944q0 -160 56.5 -231.5t193.5 -71.5q131 0 184.5 69.5t53.5 244.5v933h501v-979q0 -147 -37.5 -268t-124.5 -206t-228.5 -132t-346.5 -47q-213 0 -356.5 45t-232.5 131t-127 212t-38 290zM421 1606v342h351v-342h-351zM882 1606v342h350v-342h-350z " />
<glyph unicode="&#xdd;" horiz-adv-x="1656" d="M-31 1597h586l244 -501q4 -12 14 -33t16 -35q4 -8 13 -29l12 29l18 45q4 6 6.5 10t2.5 9l239 505h570l-598 -1091v-526h-525v532zM615 1608l180 375h385l-242 -375h-323z" />
<glyph unicode="&#xde;" horiz-adv-x="1714" d="M131 -20v1617h510v-227h469q137 0 243.5 -25.5t180.5 -84t111.5 -154.5t37.5 -236q0 -135 -34.5 -232t-102 -159.5t-165 -91.5t-222.5 -29h-518v-378h-510zM639 721h354q92 0 126 30.5t34 106.5t-33 109.5t-123 33.5h-358v-280z" />
<glyph unicode="&#xdf;" horiz-adv-x="1871" d="M29 795v323h157v74q0 205 161 305t470 100q274 0 417.5 -99t143.5 -279q0 -55 -14 -113.5t-39 -109t-59.5 -85t-77.5 -43.5q-43 -8 -69.5 -15t-41 -16.5t-19.5 -19.5t-5 -24q0 -41 43 -53.5t133 -26.5q86 -16 186.5 -30.5t185.5 -50.5t142 -104.5t57 -191.5 q0 -102 -45 -173t-123 -114t-184.5 -62.5t-230.5 -19.5q-256 0 -394.5 73t-191.5 222l2 -6q-6 12 -8 32.5t-4 35.5l342 104q0 -2 1 -8t3 -17q2 -10 6 -22q33 -72 90 -98.5t129 -26.5q88 0 115.5 18.5t27.5 53.5q0 18 -5 32.5t-21.5 25.5t-45 20.5t-77.5 19.5 q-82 16 -180.5 35.5t-183.5 59.5t-142 108.5t-57 183.5q0 80 27.5 128t67.5 74.5t88 42t88 31t67.5 40t27.5 71.5q0 16 -7 32.5t-27.5 29t-54.5 19.5t-87 7q-61 0 -101 -13t-63.5 -38t-33 -57.5t-9.5 -71.5v-1128h-424v815h-153z" />
<glyph unicode="&#xe0;" horiz-adv-x="1411" d="M39 330q0 94 39 159.5t106.5 108.5t161.5 67.5t205 39.5q82 10 136 16t86 10t44 11.5t12 21.5t-5 26.5t-21.5 22.5t-48 16.5t-86.5 6.5q-98 0 -166 -33t-115 -98l-266 172q84 123 223 189.5t354 66.5q133 0 237.5 -27t175.5 -83t107.5 -146.5t36.5 -217.5v-284 q0 -66 14.5 -82.5t35.5 -20.5q10 -4 32.5 -4t48.5 4v-272q-53 -14 -125.5 -22.5t-140.5 -8.5q-98 0 -156.5 35t-89.5 86q-76 -59 -179 -91t-218 -32q-94 0 -175 19.5t-139.5 62.5t-91 112.5t-32.5 168.5zM291 1532h383l166 -389h-324zM487 346q0 -47 29 -66.5t88 -19.5 q90 0 139.5 25.5t71.5 66.5q4 6 7 22.5t5 36t4.5 38t2.5 28.5q-49 -10 -102.5 -12t-90.5 -8q-86 -12 -120 -41t-34 -70z" />
<glyph unicode="&#xe1;" horiz-adv-x="1411" d="M39 330q0 94 39 159.5t106.5 108.5t161.5 67.5t205 39.5q82 10 136 16t86 10t44 11.5t12 21.5t-5 26.5t-21.5 22.5t-48 16.5t-86.5 6.5q-98 0 -166 -33t-115 -98l-266 172q84 123 223 189.5t354 66.5q133 0 237.5 -27t175.5 -83t107.5 -146.5t36.5 -217.5v-284 q0 -66 14.5 -82.5t35.5 -20.5q10 -4 32.5 -4t48.5 4v-272q-53 -14 -125.5 -22.5t-140.5 -8.5q-98 0 -156.5 35t-89.5 86q-76 -59 -179 -91t-218 -32q-94 0 -175 19.5t-139.5 62.5t-91 112.5t-32.5 168.5zM475 1133l180 374h385l-241 -374h-324zM487 346q0 -47 29 -66.5 t88 -19.5q90 0 139.5 25.5t71.5 66.5q4 6 7 22.5t5 36t4.5 38t2.5 28.5q-49 -10 -102.5 -12t-90.5 -8q-86 -12 -120 -41t-34 -70z" />
<glyph unicode="&#xe2;" horiz-adv-x="1411" d="M39 330q0 94 39 159.5t106.5 108.5t161.5 67.5t205 39.5q82 10 136 16t86 10t44 11.5t12 21.5t-5 26.5t-21.5 22.5t-48 16.5t-86.5 6.5q-98 0 -166 -33t-115 -98l-266 172q84 123 223 189.5t354 66.5q133 0 237.5 -27t175.5 -83t107.5 -146.5t36.5 -217.5v-284 q0 -66 14.5 -82.5t35.5 -20.5q10 -4 32.5 -4t48.5 4v-272q-53 -14 -125.5 -22.5t-140.5 -8.5q-98 0 -156.5 35t-89.5 86q-76 -59 -179 -91t-218 -32q-94 0 -175 19.5t-139.5 62.5t-91 112.5t-32.5 168.5zM260 1133l283 372h245l283 -372h-317l-88 116l-88 -116h-318z M487 346q0 -47 29 -66.5t88 -19.5q90 0 139.5 25.5t71.5 66.5q4 6 7 22.5t5 36t4.5 38t2.5 28.5q-49 -10 -102.5 -12t-90.5 -8q-86 -12 -120 -41t-34 -70z" />
<glyph unicode="&#xe3;" horiz-adv-x="1411" d="M39 330q0 94 39 159.5t106.5 108.5t161.5 67.5t205 39.5q82 10 136 16t86 10t44 11.5t12 21.5t-5 26.5t-21.5 22.5t-48 16.5t-86.5 6.5q-98 0 -166 -33t-115 -98l-266 172q84 123 223 189.5t354 66.5q133 0 237.5 -27t175.5 -83t107.5 -146.5t36.5 -217.5v-284 q0 -66 14.5 -82.5t35.5 -20.5q10 -4 32.5 -4t48.5 4v-272q-53 -14 -125.5 -22.5t-140.5 -8.5q-98 0 -156.5 35t-89.5 86q-76 -59 -179 -91t-218 -32q-94 0 -175 19.5t-139.5 62.5t-91 112.5t-32.5 168.5zM264 1133q-10 162 53.5 251t178.5 89q33 0 57.5 -4.5t46 -12.5 t43 -18.5t47.5 -24.5q16 -10 34.5 -20.5t39.5 -10.5q12 0 24.5 15.5t16.5 66.5h239q10 -162 -53 -250t-180 -88q-33 0 -56.5 4.5t-45 11.5t-44 18t-49.5 24q-16 10 -32.5 20t-38.5 10q-14 0 -26.5 -15t-16.5 -66h-238zM487 346q0 -47 29 -66.5t88 -19.5q90 0 139.5 25.5 t71.5 66.5q4 6 7 22.5t5 36t4.5 38t2.5 28.5q-49 -10 -102.5 -12t-90.5 -8q-86 -12 -120 -41t-34 -70z" />
<glyph unicode="&#xe4;" horiz-adv-x="1411" d="M39 330q0 94 39 159.5t106.5 108.5t161.5 67.5t205 39.5q82 10 136 16t86 10t44 11.5t12 21.5t-5 26.5t-21.5 22.5t-48 16.5t-86.5 6.5q-98 0 -166 -33t-115 -98l-266 172q84 123 223 189.5t354 66.5q133 0 237.5 -27t175.5 -83t107.5 -146.5t36.5 -217.5v-284 q0 -66 14.5 -82.5t35.5 -20.5q10 -4 32.5 -4t48.5 4v-272q-53 -14 -125.5 -22.5t-140.5 -8.5q-98 0 -156.5 35t-89.5 86q-76 -59 -179 -91t-218 -32q-94 0 -175 19.5t-139.5 62.5t-91 112.5t-32.5 168.5zM268 1135v342h350v-342h-350zM487 346q0 -47 29 -66.5t88 -19.5 q90 0 139.5 25.5t71.5 66.5q4 6 7 22.5t5 36t4.5 38t2.5 28.5q-49 -10 -102.5 -12t-90.5 -8q-86 -12 -120 -41t-34 -70zM729 1135v342h350v-342h-350z" />
<glyph unicode="&#xe5;" horiz-adv-x="1413" d="M39 330q0 94 39 159.5t106.5 108.5t161.5 67.5t205 39.5q82 10 136 16t86 10t44 11.5t12 21.5t-5 26.5t-21.5 22.5t-48 16.5t-86.5 6.5q-98 0 -166 -33t-115 -98l-266 172q84 123 223 189.5t354 66.5q133 0 237.5 -27t175.5 -83t107.5 -146.5t36.5 -217.5v-284 q0 -66 14.5 -82.5t35.5 -20.5q10 -4 32.5 -4t48.5 4v-272q-53 -14 -125.5 -22.5t-140.5 -8.5q-98 0 -156.5 35t-89.5 86q-76 -59 -179 -91t-218 -32q-94 0 -175 19.5t-139.5 62.5t-91 112.5t-32.5 168.5zM420 1384q0 55 20 105q20 49 58 86q37 37 86 57t104 21q55 0 105 -21 q49 -20 86 -57t57 -86t20 -105q0 -55 -21 -103q-22 -48 -57 -85q-36 -37 -85 -57q-50 -21 -105 -21t-104 21q-49 20 -85 57t-58 85t-21 103zM487 346q0 -47 29 -66.5t88 -19.5q90 0 139.5 25.5t71.5 66.5q4 6 7 22.5t5 36t4.5 38t2.5 28.5q-49 -10 -102.5 -12t-90.5 -8 q-86 -12 -120 -41t-34 -70zM621 1384q0 -29 19 -48t48 -19t47 19t19 48q0 29 -19 50q-18 20 -47 20t-48 -20t-19 -50z" />
<glyph unicode="&#xe6;" horiz-adv-x="2058" d="M39 315q0 92 33.5 154.5t90 105.5t129.5 68t149.5 41t153.5 26.5t140 24.5q35 8 61.5 14.5t39.5 14.5q-4 31 -34 51.5t-132 20.5q-188 0 -283 -131l-266 172q84 123 223 189.5t354 66.5q133 0 219.5 -35t126.5 -76q47 41 138.5 76t230.5 35q143 0 257 -40t191.5 -124 t118.5 -212t39 -302h-805q14 -119 61.5 -163t125.5 -44q92 0 126 38t52 124l434 -43q-25 -90 -70 -164t-117.5 -126t-175 -80t-241.5 -28q-109 0 -184.5 15.5t-128 40t-85 54.5t-53.5 58q-72 -76 -188.5 -123t-314.5 -47q-92 0 -169 20.5t-131.5 63.5t-85 108.5t-30.5 155.5 zM481 346q0 -92 133 -92q72 0 132.5 25.5t84.5 78.5q4 23 4.5 57t4.5 62q-33 -6 -80 -10t-98 -6q-104 -12 -142.5 -41t-38.5 -74zM1225 711h360q-18 80 -59 113.5t-111 33.5q-78 0 -125 -38t-65 -109z" />
<glyph unicode="&#xe7;" horiz-adv-x="1351" d="M59 551q0 307 164 444.5t465 137.5q115 0 218.5 -23t186.5 -75t140 -138t80 -211l-439 -37q-23 117 -66.5 155t-115.5 38q-43 0 -78.5 -13.5t-61.5 -47t-40 -90t-14 -142.5q0 -84 14 -138.5t41 -88t63.5 -47t79.5 -13.5q72 0 119 49t64 178l438 -36q-27 -258 -186 -371 t-435 -113q-326 0 -481.5 139.5t-155.5 442.5zM365 -364l90 194q82 -53 164 -53q25 0 37 2t12 16q0 20 -24.5 23.5t-79.5 3.5v268h178v-112q35 -4 69.5 -15.5t62 -34t44 -55.5t16.5 -78q0 -59 -22.5 -100t-62.5 -68.5t-93.5 -40t-116.5 -12.5q-92 0 -160.5 19.5t-113.5 42.5 z" />
<glyph unicode="&#xe8;" horiz-adv-x="1341" d="M59 553q0 158 47.5 268.5t131.5 179t199.5 100.5t250.5 32q143 0 258 -40t194 -123t118.5 -211t37.5 -304h-807q16 -119 64.5 -163t132.5 -44q74 0 111 35.5t51 117.5l438 -43q-23 -88 -67.5 -159.5t-117.5 -122.5t-175.5 -79t-239.5 -28q-317 0 -472 142.5t-155 441.5z M274 1536h383l166 -390h-324zM502 711h362q-18 82 -60 114.5t-112 32.5q-82 0 -127 -38t-63 -109z" />
<glyph unicode="&#xe9;" horiz-adv-x="1341" d="M59 553q0 158 47.5 268.5t131.5 179t199.5 100.5t250.5 32q143 0 258 -40t194 -123t118.5 -211t37.5 -304h-807q16 -119 64.5 -163t132.5 -44q74 0 111 35.5t51 117.5l438 -43q-23 -88 -67.5 -159.5t-117.5 -122.5t-175.5 -79t-239.5 -28q-317 0 -472 142.5t-155 441.5z M490 1136l180 375h385l-242 -375h-323zM502 711h362q-18 82 -60 114.5t-112 32.5q-82 0 -127 -38t-63 -109z" />
<glyph unicode="&#xea;" horiz-adv-x="1341" d="M59 553q0 158 47.5 268.5t131.5 179t199.5 100.5t250.5 32q143 0 258 -40t194 -123t118.5 -211t37.5 -304h-807q16 -119 64.5 -163t132.5 -44q74 0 111 35.5t51 117.5l438 -43q-23 -88 -67.5 -159.5t-117.5 -122.5t-175.5 -79t-239.5 -28q-317 0 -472 142.5t-155 441.5z M256 1134l283 373h246l282 -373h-317l-88 117l-88 -117h-318zM502 711h362q-18 82 -60 114.5t-112 32.5q-82 0 -127 -38t-63 -109z" />
<glyph unicode="&#xeb;" horiz-adv-x="1341" d="M59 553q0 158 47.5 268.5t131.5 179t199.5 100.5t250.5 32q143 0 258 -40t194 -123t118.5 -211t37.5 -304h-807q16 -119 64.5 -163t132.5 -44q74 0 111 35.5t51 117.5l438 -43q-23 -88 -67.5 -159.5t-117.5 -122.5t-175.5 -79t-239.5 -28q-317 0 -472 142.5t-155 441.5z M254 1137v342h351v-342h-351zM502 711h362q-18 82 -60 114.5t-112 32.5q-82 0 -127 -38t-63 -109zM715 1137v342h350v-342h-350z" />
<glyph unicode="&#xec;" horiz-adv-x="675" d="M88 1536h383l166 -390h-324zM121 -20v1142h432v-1142h-432z" />
<glyph unicode="&#xed;" horiz-adv-x="675" d="M121 -20v1142h432v-1142h-432zM136 1136l180 375h385l-242 -375h-323z" />
<glyph unicode="&#xee;" horiz-adv-x="675" d="M79 1134l283 373h246l282 -373h-317l-88 117l-88 -117h-318zM121 -20v1142h432v-1142h-432z" />
<glyph unicode="&#xef;" horiz-adv-x="675" d="M100 1137v342h351v-342h-351zM121 -20v1142h432v-1142h-432zM561 1137v342h350v-342h-350z" />
<glyph unicode="&#xf0;" horiz-adv-x="1679" d="M53 537q0 139 47 234t132 153.5t204 84t262 25.5q100 0 206 -21.5t179 -62.5q-16 100 -51 164l-203 -86v184l76 37q-35 20 -96 21q-74 0 -105.5 -24.5t-46.5 -55.5q-12 -10 -30.5 -30.5t-24.5 -51.5l-510 -18q4 35 10.5 69.5t12.5 52.5q18 80 69.5 151t136.5 125 t204.5 86t273.5 32t290 -41t240 -119l264 117v-199l-133 -53q55 -76 85 -155t42 -160t12 -166t-2 -173q-4 -170 -62 -299t-160.5 -215t-247 -130t-318.5 -44q-154 0 -292 32t-240.5 100.5t-163 176t-60.5 259.5zM602 506q0 -98 52.5 -141t183.5 -43q113 0 173 42t60 142 q0 98 -52 141t-181 43q-125 0 -180.5 -41t-55.5 -143z" />
<glyph unicode="&#xf1;" horiz-adv-x="1439" d="M119 -20v1142h434v-102q66 53 148.5 83t193.5 30q225 0 327.5 -110t102.5 -335v-708h-432v661q0 92 -39 131t-111 39q-78 0 -132 -45t-58 -129q0 -20 -1 -59t-1 -89.5v-106.5v-114q0 -133 2 -288h-434zM332 1139q-10 162 53.5 251t177.5 89q33 0 57.5 -4.5t46 -12.5 t43 -18t48.5 -25q16 -10 34.5 -20t38.5 -10q12 0 24.5 15t16.5 66h240q10 -162 -53 -249.5t-180 -87.5q-33 0 -56.5 4t-45 11t-44 18.5t-49.5 23.5q-16 10 -32.5 20.5t-39.5 10.5q-14 0 -26.5 -15.5t-16.5 -66.5h-237z" />
<glyph unicode="&#xf2;" horiz-adv-x="1386" d="M59 551q0 293 156 437.5t479 144.5q633 0 633 -582q0 -293 -162 -437.5t-473 -144.5q-322 0 -477.5 144.5t-155.5 437.5zM301 1536h383l166 -390h-324zM496 551q0 -86 15 -142.5t41 -88t61.5 -45t78.5 -13.5t80 13.5t63.5 46t42 89t15.5 140.5q0 86 -15.5 142.5t-41 89 t-62.5 46t-80 13.5t-79.5 -13.5t-63.5 -47t-41 -89t-14 -141.5z" />
<glyph unicode="&#xf3;" horiz-adv-x="1386" d="M59 551q0 293 156 437.5t479 144.5q633 0 633 -582q0 -293 -162 -437.5t-473 -144.5q-322 0 -477.5 144.5t-155.5 437.5zM496 551q0 -86 15 -142.5t41 -88t61.5 -45t78.5 -13.5t80 13.5t63.5 46t42 89t15.5 140.5q0 86 -15.5 142.5t-41 89t-62.5 46t-80 13.5t-79.5 -13.5 t-63.5 -47t-41 -89t-14 -141.5zM498 1136l180 375h385l-242 -375h-323z" />
<glyph unicode="&#xf4;" horiz-adv-x="1386" d="M59 551q0 293 156 437.5t479 144.5q633 0 633 -582q0 -293 -162 -437.5t-473 -144.5q-322 0 -477.5 144.5t-155.5 437.5zM264 1134l283 373h246l282 -373h-317l-88 117l-88 -117h-318zM496 551q0 -86 15 -142.5t41 -88t61.5 -45t78.5 -13.5t80 13.5t63.5 46t42 89 t15.5 140.5q0 86 -15.5 142.5t-41 89t-62.5 46t-80 13.5t-79.5 -13.5t-63.5 -47t-41 -89t-14 -141.5z" />
<glyph unicode="&#xf5;" horiz-adv-x="1386" d="M59 551q0 293 156 437.5t479 144.5q633 0 633 -582q0 -293 -162 -437.5t-473 -144.5q-322 0 -477.5 144.5t-155.5 437.5zM275 1136q-10 162 53.5 251t177.5 89q33 0 57.5 -4t46 -12t43 -18.5t48.5 -24.5q16 -10 34.5 -20.5t39.5 -10.5q12 0 24 15.5t17 66.5h239 q10 -162 -53 -250t-180 -88q-33 0 -56.5 4t-45 11.5t-44 18.5t-49.5 24q-16 10 -32.5 20t-39.5 10q-14 0 -26 -15t-17 -67h-237zM496 551q0 -86 15 -142.5t41 -88t61.5 -45t78.5 -13.5t80 13.5t63.5 46t42 89t15.5 140.5q0 86 -15.5 142.5t-41 89t-62.5 46t-80 13.5 t-79.5 -13.5t-63.5 -47t-41 -89t-14 -141.5z" />
<glyph unicode="&#xf6;" horiz-adv-x="1386" d="M59 551q0 293 156 437.5t479 144.5q633 0 633 -582q0 -293 -162 -437.5t-473 -144.5q-322 0 -477.5 144.5t-155.5 437.5zM266 1137v342h351v-342h-351zM496 551q0 -86 15 -142.5t41 -88t61.5 -45t78.5 -13.5t80 13.5t63.5 46t42 89t15.5 140.5q0 86 -15.5 142.5t-41 89 t-62.5 46t-80 13.5t-79.5 -13.5t-63.5 -47t-41 -89t-14 -141.5zM727 1137v342h350v-342h-350z" />
<glyph unicode="&#xf7;" d="M4 424q0 76 23.5 146.5t64.5 124t96.5 85t118.5 31.5t119.5 -31.5t96.5 -85t63.5 -124t23.5 -146.5q0 -78 -23.5 -147.5t-63.5 -122t-96.5 -83t-119.5 -30.5t-118.5 30.5t-96.5 83t-64.5 122t-23.5 147.5zM344 1036q0 78 23.5 148.5t63.5 124t94.5 85t115.5 31.5 q63 0 118.5 -31.5t95.5 -85t63.5 -124t23.5 -148.5t-23.5 -146.5t-63.5 -120.5t-95.5 -83t-118.5 -31q-61 0 -115.5 31t-94.5 83t-63.5 120.5t-23.5 146.5zM670 424q0 78 22.5 147.5t63.5 123t95 85t120 31.5q61 0 115.5 -31.5t94.5 -85t63.5 -123t23.5 -147.5t-23.5 -147.5 t-63.5 -122t-94.5 -82t-115.5 -29.5q-66 0 -120 29.5t-95 82t-63.5 122t-22.5 147.5zM997 1034q0 78 23.5 148.5t63.5 124t94.5 85t115.5 31.5q63 0 118.5 -31.5t95.5 -85t63.5 -124t23.5 -148.5t-23.5 -146.5t-63.5 -119.5t-95.5 -82t-118.5 -31q-61 0 -115.5 31t-94.5 82 t-63.5 119.5t-23.5 146.5zM1321 424q0 78 23.5 147.5t63.5 123t95.5 85t120.5 31.5q63 0 119.5 -31.5t96.5 -85t63.5 -123t23.5 -147.5t-23.5 -147.5t-63.5 -122t-96.5 -82t-119.5 -29.5q-66 0 -121 29.5t-95 82t-63.5 122t-23.5 147.5z" />
<glyph unicode="&#xf8;" horiz-adv-x="1386" d="M59 551q0 582 635 582q47 0 89 -4.5t81 -10.5q4 10 13.5 25.5t17.5 30.5q8 16 18 34h242l-82 -153q131 -68 192.5 -194t61.5 -310q0 -293 -162 -437.5t-473 -144.5q-92 0 -174 17l-74 -133h-241q23 41 43 77q16 33 34.5 66t28.5 53q-129 68 -189.5 194t-60.5 308z M487 551q0 -76 33 -125q18 35 49 94.5t64 120.5t61.5 115.5t42.5 79.5q-16 8 -43 8q-47 0 -85 -13.5t-65.5 -47t-42 -90t-14.5 -142.5zM645 272q20 -14 47 -14q45 0 84 14.5t66.5 48t43 90t15.5 140.5t-35 137z" />
<glyph unicode="&#xf9;" horiz-adv-x="1435" d="M104 412v710h435v-667q0 -92 36.5 -131t112.5 -39q80 0 134.5 47t56.5 127v372v291h434v-1142h-434v94q-59 -47 -145.5 -76t-196.5 -29q-227 0 -330 109.5t-103 333.5zM317 1536h383l166 -390h-324z" />
<glyph unicode="&#xfa;" horiz-adv-x="1435" d="M104 412v710h435v-667q0 -92 36.5 -131t112.5 -39q80 0 134.5 47t56.5 127v372v291h434v-1142h-434v94q-59 -47 -145.5 -76t-196.5 -29q-227 0 -330 109.5t-103 333.5zM496 1136l180 375h385l-242 -375h-323z" />
<glyph unicode="&#xfb;" horiz-adv-x="1435" d="M104 412v710h435v-667q0 -92 36.5 -131t112.5 -39q80 0 134.5 47t56.5 127v372v291h434v-1142h-434v94q-59 -47 -145.5 -76t-196.5 -29q-227 0 -330 109.5t-103 333.5zM276 1134l283 373h246l282 -373h-317l-88 117l-88 -117h-318z" />
<glyph unicode="&#xfc;" horiz-adv-x="1435" d="M104 412v710h435v-667q0 -92 36.5 -131t112.5 -39q80 0 134.5 47t56.5 127v372v291h434v-1142h-434v94q-59 -47 -145.5 -76t-196.5 -29q-227 0 -330 109.5t-103 333.5zM280 1137v342h351v-342h-351zM741 1137v342h350v-342h-350z" />
<glyph unicode="&#xfd;" horiz-adv-x="1294" d="M-25 1122h463l215 -592q0 -4 1 -11t3 -17l11 -41q6 27 11 47t5 24l195 590h442q-113 -283 -203 -518q-39 -100 -76.5 -201.5t-69.5 -188.5t-54.5 -152.5t-30.5 -96.5q-39 -92 -86 -158.5t-109.5 -111.5t-141.5 -66.5t-181 -21.5q-63 0 -110.5 4t-84.5 12t-67.5 21.5 t-57.5 29.5l82 318q49 -41 104.5 -54.5t98.5 -13.5q29 0 56.5 16.5t43.5 55.5zM422 1136l180 375h385l-242 -375h-323z" />
<glyph unicode="&#xfe;" horiz-adv-x="1413" d="M119 -391v1988h432v-555q51 41 127 64.5t168 23.5q115 0 208 -32.5t159.5 -103t102.5 -181.5t36 -266q0 -158 -40 -267.5t-107.5 -178t-159 -99.5t-193.5 -31q-82 0 -161 17.5t-138 58.5v-438h-434zM547 553q0 -49 2 -100.5t19.5 -93.5t54 -68.5t104.5 -26.5 q94 0 142.5 64.5t48.5 222.5q0 88 -13.5 145.5t-38 89t-58.5 44t-75 12.5q-68 0 -105.5 -27t-56 -67.5t-21.5 -93t-3 -101.5z" />
<glyph unicode="&#xff;" horiz-adv-x="1294" d="M-25 1122h463l215 -592q0 -4 1 -11t3 -17l11 -41q6 27 11 47t5 24l195 590h442q-113 -283 -203 -518q-39 -100 -76.5 -201.5t-69.5 -188.5t-54.5 -152.5t-30.5 -96.5q-39 -92 -86 -158.5t-109.5 -111.5t-141.5 -66.5t-181 -21.5q-63 0 -110.5 4t-84.5 12t-67.5 21.5 t-57.5 29.5l82 318q49 -41 104.5 -54.5t98.5 -13.5q29 0 56.5 16.5t43.5 55.5zM217 1135v342h351v-342h-351zM678 1135v342h350v-342h-350z" />
<glyph unicode="&#x152;" horiz-adv-x="2531" d="M74 788q0 215 58 371t163.5 257.5t250 150.5t316.5 49q82 0 159 -16.5t136 -49.5v47h1342l-119 -374h-742v-224h697v-364h-697v-275h781l135 -380l-1397 -3v56q-41 -20 -125 -46t-192 -26q-170 0 -310.5 46t-242 145.5t-157.5 256t-56 379.5zM590 786q0 -131 21.5 -219 t61.5 -142t98 -77.5t132 -23.5q102 0 160.5 35.5t87.5 95.5q0 16 1 66t1 117v141.5v140t-1 115t-1 65.5q-35 80 -99.5 112.5t-148.5 32.5q-70 0 -127 -23.5t-99 -77.5t-64.5 -141.5t-22.5 -216.5z" />
<glyph unicode="&#x153;" horiz-adv-x="2148" d="M59 551q0 582 635 582q158 0 250 -32t158 -83q55 51 147 83t246 32q143 0 258 -40t193.5 -123t119.5 -211t39 -304h-807q16 -119 64.5 -163t132.5 -44q74 0 109.5 35.5t52.5 117.5l438 -43q-23 -88 -68 -159.5t-117.5 -122.5t-176 -79t-240.5 -28q-141 0 -234.5 29 t-164.5 84q-72 -53 -166 -83t-236 -30q-322 0 -477.5 144.5t-155.5 437.5zM494 551q0 -86 15 -142.5t42 -88t62.5 -45t78.5 -13.5t80 13.5t63.5 46t42 89t15.5 140.5q0 86 -15.5 142.5t-41 89t-62.5 46t-80 13.5t-79.5 -13.5t-63.5 -47t-42 -89t-15 -141.5zM1309 711h364 q-16 82 -60 114.5t-114 32.5q-80 0 -126 -36t-64 -111z" />
<glyph unicode="&#x178;" horiz-adv-x="1656" d="M-31 1597h586l244 -501q4 -12 14 -33t16 -35q4 -8 13 -29l12 29l18 45q4 6 6.5 10t2.5 9l239 505h570l-598 -1091v-526h-525v532zM399 1612v342h351v-342h-351zM860 1612v342h350v-342h-350z" />
<glyph unicode="&#x2c6;" horiz-adv-x="851" d="M20 1161l283 373h246l282 -373h-317l-88 117l-88 -117h-318z" />
<glyph unicode="&#x2dc;" horiz-adv-x="851" d="M37 1165q-10 162 53.5 251t177.5 89q33 0 57.5 -4t46 -12t43 -18.5t48.5 -24.5q16 -10 34.5 -20.5t39.5 -10.5q12 0 24 15.5t17 66.5h239q10 -162 -53 -250t-180 -88q-33 0 -56.5 4t-45 11.5t-44 18.5t-49.5 24q-16 10 -32.5 20t-39.5 10q-14 0 -26 -15t-17 -67h-237z " />
<glyph unicode="&#x2000;" horiz-adv-x="1008" />
<glyph unicode="&#x2001;" horiz-adv-x="2017" />
<glyph unicode="&#x2002;" horiz-adv-x="1008" />
<glyph unicode="&#x2003;" horiz-adv-x="2017" />
<glyph unicode="&#x2004;" horiz-adv-x="672" />
<glyph unicode="&#x2005;" horiz-adv-x="504" />
<glyph unicode="&#x2006;" horiz-adv-x="336" />
<glyph unicode="&#x2007;" horiz-adv-x="336" />
<glyph unicode="&#x2008;" horiz-adv-x="252" />
<glyph unicode="&#x2009;" horiz-adv-x="403" />
<glyph unicode="&#x200a;" horiz-adv-x="112" />
<glyph unicode="&#x2010;" horiz-adv-x="1107" d="M125 567v373h858v-373h-858z" />
<glyph unicode="&#x2011;" horiz-adv-x="1107" d="M125 567v373h858v-373h-858z" />
<glyph unicode="&#x2012;" horiz-adv-x="1107" d="M125 567v373h858v-373h-858z" />
<glyph unicode="&#x2013;" horiz-adv-x="839" d="M-20 594v328h880v-328h-880z" />
<glyph unicode="&#x2014;" horiz-adv-x="1335" d="M102 594v328h1131v-328h-1131z" />
<glyph unicode="&#x2018;" horiz-adv-x="739" d="M94 926v325q0 186 127 278.5t354 104.5l64 -200q-104 -18 -148.5 -46t-52.5 -67h219v-395h-563z" />
<glyph unicode="&#x2019;" horiz-adv-x="739" d="M94 1202v397h563v-323q0 -186 -127 -279.5t-356 -105.5l-61 201q104 18 148 45.5t52 64.5h-219z" />
<glyph unicode="&#x201a;" horiz-adv-x="739" d="M94 -20v395h563v-324q0 -186 -127 -278t-356 -107l-61 201q104 18 148 46t52 67h-219z" />
<glyph unicode="&#x201c;" horiz-adv-x="1392" d="M94 926v325q0 186 127 278.5t354 104.5l64 -200q-104 -18 -148.5 -46t-52.5 -67h219v-395h-563zM752 926v325q0 184 119.5 277.5t361.5 105.5l63 -200q-106 -18 -149 -46t-51 -67h217v-395h-561z" />
<glyph unicode="&#x201d;" horiz-adv-x="1392" d="M94 1202v397h563v-323q0 -186 -120.5 -279.5t-362.5 -105.5l-61 201q104 18 148 45.5t52 64.5h-219zM752 1202v397h563v-323q0 -188 -127 -280.5t-357 -104.5l-61 201q104 18 148.5 45.5t52.5 64.5h-219z" />
<glyph unicode="&#x201e;" horiz-adv-x="1392" d="M94 -20v395h563v-324q0 -186 -120.5 -278t-362.5 -107l-61 201q104 18 148 46t52 67h-219zM752 -20v395h563v-324q0 -186 -127 -278t-357 -107l-61 201q104 18 148.5 46t52.5 67h-219z" />
<glyph unicode="&#x2022;" horiz-adv-x="1003" d="M57 809q0 90 35 171t95.5 141.5t141.5 96t173 35.5t173 -34.5t141.5 -95t95 -141.5t34.5 -173t-34.5 -174t-95 -141.5t-141.5 -94t-173 -34.5t-173 34.5t-141.5 95t-95.5 141.5t-35 173z" />
<glyph unicode="&#x2026;" horiz-adv-x="2244" d="M131 -20v440h485v-440h-485zM879 -20v440h485v-440h-485zM1628 -20v440h483v-440h-483z" />
<glyph unicode="&#x202f;" horiz-adv-x="403" />
<glyph unicode="&#x2039;" horiz-adv-x="755" d="M45 545v264l674 532v-413l-283 -240l281 -231v-439z" />
<glyph unicode="&#x203a;" horiz-adv-x="755" d="M39 12v414l280 238l-280 235v438l674 -528v-266z" />
<glyph unicode="&#x205f;" horiz-adv-x="504" />
<glyph unicode="&#x2122;" horiz-adv-x="1685" d="M-2 1356v241h700v-241h-194v-412h-299v412h-207zM702 944v653h269l217 -387l203 387h268v-653h-266v230l-117 -230h-189l-122 234v-234h-263z" />
<glyph unicode="&#xe000;" horiz-adv-x="1126" d="M0 0v1126h1126v-1126h-1126z" />
<glyph unicode="&#xfb01;" horiz-adv-x="1470" d="M29 795v323h157v82q0 88 33 161t93.5 125t148.5 81.5t198 29.5h244v-327h-170q-49 0 -82 -25.5t-33 -79.5v-47h732v-1138h-435v815h-297v-815h-436v815h-153z" />
<glyph unicode="&#xfb02;" horiz-adv-x="1456" d="M29 795v323h157v127q0 78 31 143.5t87 111.5t135 71.5t177 25.5h224v-327h-119q-47 0 -75 -24.5t-28 -57.5v-70h205v-323h-205v-815h-436v815h-153zM901 -20v1617h434v-1617h-434z" />
</font>
</defs>
</svg>
